SplineFontDB: 3.2
FontName: aghtex_mathit_xlight
FullName: aghtex_mathit_xlight
FamilyName: aghtex_mathit
Weight: Light
Copyright: Copyright (c) 1997, 2009 American Mathematical Society (<http://www.ams.org>), with Reserved Font Name CMMI10.
Version: 1.1.6/2024-04-09
ItalicAngle: -14.04
UnderlinePosition: -102
UnderlineWidth: 51
Ascent: 768
Descent: 256
InvalidEm: 0
LayerCount: 2
Layer: 0 1 "+gMyXYgAA" 1
Layer: 1 1 "+Uk2XYgAA" 0
UniqueID: 5087385
FSType: 8
OS2Version: 1
OS2_WeightWidthSlopeOnly: 0
OS2_UseTypoMetrics: 0
CreationTime: 1344259757
ModificationTime: 1712630463
PfmFamily: 17
TTFWeight: 200
TTFWidth: 5
LineGap: 92
VLineGap: 0
OS2TypoAscent: 0
OS2TypoAOffset: 1
OS2TypoDescent: 0
OS2TypoDOffset: 1
OS2TypoLinegap: 92
OS2WinAscent: 0
OS2WinAOffset: 1
OS2WinDescent: 0
OS2WinDOffset: 1
HheadAscent: 0
HheadAOffset: 1
HheadDescent: 0
HheadDOffset: 1
OS2Vendor: 'PfEd'
MarkAttachClasses: 1
DEI: 91125
ShortTable: maxp 16
  0
  0
  0
  0
  0
  0
  0
  2
  1
  2
  22
  0
  256
  0
  0
  0
EndShort
TtTable: prep
PUSHW_1
 511
SCANCTRL
PUSHB_1
 1
SCANTYPE
SVTCA[y-axis]
MPPEM
PUSHB_1
 8
LT
IF
PUSHB_2
 1
 1
INSTCTRL
EIF
PUSHB_2
 70
 6
CALL
IF
POP
PUSHB_1
 16
EIF
MPPEM
PUSHB_1
 20
GT
IF
POP
PUSHB_1
 128
EIF
SCVTCI
PUSHB_1
 6
CALL
NOT
IF
SVTCA[y-axis]
PUSHB_1
 5
DUP
RCVT
PUSHB_1
 3
CALL
WCVTP
PUSHB_1
 6
DUP
RCVT
PUSHB_3
 5
 113
 2
CALL
PUSHB_1
 3
CALL
WCVTP
SVTCA[x-axis]
PUSHB_1
 7
DUP
RCVT
PUSHB_1
 3
CALL
WCVTP
EIF
PUSHB_1
 20
CALL
EndTTInstrs
TtTable: fpgm
PUSHB_1
 0
FDEF
PUSHB_1
 0
SZP0
MPPEM
PUSHB_1
 46
LT
IF
PUSHB_1
 74
SROUND
EIF
PUSHB_1
 0
SWAP
MIAP[rnd]
RTG
PUSHB_1
 6
CALL
IF
RTDG
EIF
MPPEM
PUSHB_1
 46
LT
IF
RDTG
EIF
DUP
MDRP[rp0,rnd,grey]
PUSHB_1
 1
SZP0
MDAP[no-rnd]
RTG
ENDF
PUSHB_1
 1
FDEF
DUP
MDRP[rp0,min,white]
PUSHB_1
 12
CALL
ENDF
PUSHB_1
 2
FDEF
MPPEM
GT
IF
RCVT
SWAP
EIF
POP
ENDF
PUSHB_1
 3
FDEF
ROUND[Black]
RTG
DUP
PUSHB_1
 64
LT
IF
POP
PUSHB_1
 64
EIF
ENDF
PUSHB_1
 4
FDEF
PUSHB_1
 6
CALL
IF
POP
SWAP
POP
ROFF
IF
MDRP[rp0,min,rnd,black]
ELSE

StartChar: A
Encoding: 65 65 0
Width: 768
Flags: W
HStem: 0 32<40.6425 115.074 201.75 258.833 467.674 552.033 660.321 737.785> 237 31<306 541>
LayerCount: 2
Fore
SplineSet
183 118 m 2,0,-1
 540 716 l 2,1,2
 550 733 550 733 566 733 c 0,3,4
 573 733 573 733 576.5 732.5 c 128,-1,5
 580 732 580 732 582 728.5 c 128,-1,6
 584 725 584 725 584.5 721.5 c 128,-1,7
 585 718 585 718 586 709 c 2,8,-1
 648 69 l 2,9,10
 650 44 650 44 660 38 c 128,-1,11
 670 32 670 32 715 32 c 0,12,13
 739 32 739 32 738 20 c 0,14,15
 738 0 738 0 720 0 c 0,16,17
 707 0 707 0 661.5 1.5 c 128,-1,18
 616 3 616 3 604 3 c 0,19,20
 584 3 584 3 541 1.5 c 128,-1,21
 498 0 498 0 476 0 c 0,22,23
 462 0 462 0 462 11 c 0,24,25
 462 25 462 25 467.5 28.5 c 128,-1,26
 473 32 473 32 486 32 c 0,27,28
 560 32 560 32 560 66 c 0,29,30
 560 70 560 70 556.5 106.5 c 128,-1,31
 553 143 553 143 548.5 187.5 c 128,-1,32
 544 232 544 232 544 237 c 1,33,-1
 287 237 l 1,34,-1
 209 105 l 2,35,36
 195 79 195 79 195 68 c 0,37,38
 195 36 195 36 243 32 c 1,39,40
 259 32 259 32 259 19 c 0,41,42
 259 0 259 0 240 0 c 0,43,44
 224 0 224 0 189.5 1.5 c 128,-1,45
 155 3 155 3 137 3 c 0,46,47
 123 3 123 3 92.5 1.5 c 128,-1,48
 62 0 62 0 49 0 c 128,-1,49
 36 0 36 0 36 11 c 0,50,51
 36 24 36 24 40.5 27.5 c 128,-1,52
 45 31 45 31 57 32 c 0,53,54
 95 35 95 35 124.5 53 c 128,-1,55
 154 71 154 71 183 118 c 2,0,-1
306 268 m 1,56,-1
 541 268 l 1,57,-1
 508 606 l 1,58,-1
 306 268 l 1,56,-1
EndSplineSet
Validated: 19457
EndChar

StartChar: B
Encoding: 66 66 1
Width: 776
Flags: W
HStem: 0 32<43.2476 141.552 237.003 491.969> 352 23<318 541.295> 668 31<210.211 304.658 396.741 635.865>
VStem: 624 95<145.878 294.352> 681 93<482.753 627.765>
LayerCount: 2
Fore
SplineSet
164 80 m 2,0,-1
 301 630 l 2,1,2
 305 646 305 646 305 649 c 0,3,4
 305 655 305 655 301.5 659 c 128,-1,5
 298 663 298 663 293.5 664 c 128,-1,6
 289 665 289 665 278 666 c 0,7,8
 261 668 261 668 239 668 c 0,9,10
 222 668 222 668 216 669.5 c 128,-1,11
 210 671 210 671 210 679 c 0,12,13
 210 693 210 693 216 696 c 128,-1,14
 222 699 222 699 240 699 c 2,15,-1
 584 699 l 2,16,17
 673 699 673 699 723.5 658 c 128,-1,18
 774 617 774 617 774 558 c 0,19,20
 774 488 774 488 709.5 434.5 c 128,-1,21
 645 381 645 381 560 366 c 1,22,23
 634 358 634 358 676.5 318 c 128,-1,24
 719 278 719 278 719 221 c 0,25,26
 719 141 719 141 635.5 70.5 c 128,-1,27
 552 0 552 0 436 0 c 2,28,-1
 71 0 l 2,29,30
 55 0 55 0 49 1.5 c 128,-1,31
 43 3 43 3 43 11 c 0,32,33
 43 25 43 25 49 28.5 c 128,-1,34
 55 32 55 32 71 32 c 0,35,36
 128 32 128 32 142 40 c 128,-1,37
 156 48 156 48 164 80 c 2,0,-1
318 375 m 1,38,-1
 468 375 l 2,39,40
 558 375 558 375 619.5 433.5 c 128,-1,41
 681 492 681 492 681 562 c 0,42,43
 681 604 681 604 655.5 636 c 128,-1,44
 630 668 630 668 569 668 c 2,45,-1
 437 668 l 2,46,47
 404 668 404 668 396.5 662 c 128,-1,48
 389 656 389 656 382 629 c 2,49,-1
 318 375 l 1,38,-1
272 32 m 2,50,-1
 412 32 l 2,51,52
 500 32 500 32 562 93.5 c 128,-1,53
 624 155 624 155 624 232 c 0,54,55
 624 251 624 251 618.5 270 c 128,-1,56
 613 289 613 289 601.5 308.5 c 128,-1,57
 590 328 590 328 565.5 340 c 128,-1,58
 541 352 541 352 506 352 c 2,59,-1
 312 352 l 1,60,-1
 242 67 l 2,61,62
 237 49 237 49 237 43 c 0,63,64
 237 34 237 34 250 33 c 0,65,66
 256 32 256 32 272 32 c 2,50,-1
EndSplineSet
Validated: 19457
EndChar

StartChar: C
Encoding: 67 67 2
Width: 731
Flags: W
HStem: -23 32<263.306 422.505> 430 21G<687.5 697> 690 32<426.538 591.613>
VStem: 51 93<139.275 366.445> 637 26<212.178 255.998> 680 29<431.516 487.703>
LayerCount: 2
Fore
SplineSet
778 712 m 1,0,-1
 714 451 l 2,1,2
 712 444 712 444 711.5 441.5 c 128,-1,3
 711 439 711 439 709 435.5 c 128,-1,4
 707 432 707 432 706 431.5 c 128,-1,5
 705 431 705 431 702 430.5 c 128,-1,6
 699 430 699 430 695 430 c 0,7,8
 680 430 680 430 680 440 c 0,9,10
 680 441 680 441 681.5 454.5 c 128,-1,11
 683 468 683 468 683 493 c 0,12,13
 683 583 683 583 639.5 636.5 c 128,-1,14
 596 690 596 690 518 690 c 0,15,16
 450 690 450 690 383 656 c 128,-1,17
 316 622 316 622 268 566 c 0,18,19
 200 487 200 487 172 388 c 128,-1,20
 144 289 144 289 144 222 c 0,21,22
 144 112 144 112 204 60.5 c 128,-1,23
 264 9 264 9 345 9 c 0,24,25
 441 9 441 9 534 84 c 1,26,27
 606 144 606 144 637 246 c 1,28,29
 639 256 639 256 650 256 c 0,30,31
 662 256 662 256 663 246 c 0,32,33
 663 240 663 240 655.5 217.5 c 128,-1,34
 648 195 648 195 620 149 c 128,-1,35
 592 103 592 103 550 66 c 1,36,37
 449 -22 449 -22 329 -22 c 0,38,39
 328 -23 328 -23 327 -23 c 0,40,41
 208 -23 208 -23 130 55 c 0,42,43
 51 134 51 134 51 258 c 0,44,45
 51 345 51 345 91 430.5 c 128,-1,46
 131 516 131 516 194.5 579.5 c 128,-1,47
 258 643 258 643 342 682.5 c 128,-1,48
 426 722 426 722 510 722 c 0,49,50
 622 722 622 722 680 631 c 1,51,-1
 752 710 l 2,52,53
 764 722 764 722 767 722 c 0,54,55
 778 722 778 722 778 712 c 1,0,-1
EndSplineSet
Validated: 3073
EndChar

StartChar: D
Encoding: 68 68 3
Width: 846
Flags: W
HStem: 0 32<44.6097 140.552 239.003 489.106> 668 31<211.61 303.463 398.741 631.6>
VStem: 734 89<332.109 558.395>
LayerCount: 2
Fore
SplineSet
163 80 m 2,0,-1
 300 630 l 2,1,2
 304 646 304 646 304 649 c 0,3,4
 304 662 304 662 282 666 c 1,5,6
 257 668 257 668 238 668 c 0,7,8
 226 668 226 668 220.5 668.5 c 128,-1,9
 215 669 215 669 211.5 671.5 c 128,-1,10
 208 674 208 674 208 680 c 0,11,12
 208 693 208 693 214.5 696 c 128,-1,13
 221 699 221 699 239 699 c 2,14,-1
 583 699 l 2,15,16
 695 699 695 699 759 626 c 128,-1,17
 823 553 823 553 823 440 c 0,18,19
 823 330 823 330 764.5 228 c 128,-1,20
 706 126 706 126 609.5 63 c 128,-1,21
 513 0 513 0 409 0 c 2,22,-1
 70 0 l 2,23,24
 58 0 58 0 53 0.5 c 128,-1,25
 48 1 48 1 44.5 3.5 c 128,-1,26
 41 6 41 6 41 12 c 0,27,28
 41 25 41 25 47 28.5 c 128,-1,29
 53 32 53 32 70 32 c 0,30,31
 127 32 127 32 141 40 c 128,-1,32
 155 48 155 48 163 80 c 2,0,-1
384 629 m 2,33,-1
 244 67 l 2,34,35
 239 49 239 49 239 43 c 0,36,37
 239 34 239 34 252 33 c 0,38,39
 258 32 258 32 274 32 c 2,40,-1
 390 32 l 2,41,42
 473 32 473 32 533.5 68.5 c 128,-1,43
 594 105 594 105 627 147 c 0,44,45
 683 221 683 221 708.5 320 c 128,-1,46
 734 419 734 419 734 478 c 0,47,48
 734 574 734 574 682.5 621 c 128,-1,49
 631 668 631 668 549 668 c 2,50,-1
 439 668 l 2,51,52
 406 668 406 668 398.5 662.5 c 128,-1,53
 391 657 391 657 384 629 c 2,33,-1
EndSplineSet
Validated: 19457
EndChar

StartChar: E
Encoding: 69 69 4
Width: 755
Flags: W
HStem: 0 32<42.6097 138.552 240.003 540.433> 346 32<323 494.536> 466 21G<740 749> 665 31<206.229 300.622 398.741 690.824>
VStem: 493 28<226.199 276.036> 553 27<456.964 497.921> 734 25<468.579 550.187>
LayerCount: 2
Fore
SplineSet
725 239 m 2,0,-1
 631 17 l 2,1,2
 626 5 626 5 621 2.5 c 128,-1,3
 616 0 616 0 599 0 c 2,4,-1
 68 0 l 2,5,6
 56 0 56 0 51 0.5 c 128,-1,7
 46 1 46 1 42.5 3.5 c 128,-1,8
 39 6 39 6 39 12 c 0,9,10
 39 25 39 25 45 28.5 c 128,-1,11
 51 32 51 32 68 32 c 0,12,13
 125 32 125 32 139 40 c 128,-1,14
 153 48 153 48 161 80 c 2,15,-1
 296 622 l 2,16,17
 301 640 301 640 301 646 c 0,18,19
 301 658 301 658 285.5 661.5 c 128,-1,20
 270 665 270 665 234 665 c 0,21,22
 217 665 217 665 211.5 666.5 c 128,-1,23
 206 668 206 668 206 676 c 0,24,25
 206 690 206 690 212.5 693 c 128,-1,26
 219 696 219 696 237 696 c 2,27,-1
 754 696 l 2,28,29
 774 696 774 696 778.5 692 c 128,-1,30
 783 688 783 688 781 669 c 2,31,-1
 761 492 l 2,32,33
 760 481 760 481 759 476 c 128,-1,34
 758 471 758 471 755 468.5 c 128,-1,35
 752 466 752 466 746 466 c 0,36,37
 734 466 734 466 734 478 c 0,38,39
 734 480 734 480 734.5 487 c 128,-1,40
 735 494 735 494 735 497 c 0,41,42
 739 525 739 525 739 551 c 0,43,44
 739 616 739 616 707.5 640.5 c 128,-1,45
 676 665 676 665 584 665 c 2,46,-1
 439 665 l 2,47,48
 406 665 406 665 398.5 658.5 c 128,-1,49
 391 652 391 652 384 625 c 2,50,-1
 323 378 l 1,51,-1
 419 378 l 2,52,53
 487 378 487 378 512 398 c 128,-1,54
 537 418 537 418 553 479 c 0,55,56
 557 497 557 497 567 498 c 0,57,58
 579 498 579 498 580 486 c 1,59,-1
 521 247 l 2,60,61
 516 227 516 227 506 226 c 0,62,63
 493 226 493 226 493 238 c 0,64,65
 493 242 493 242 496 249 c 1,66,67
 503 280 503 280 503 299 c 0,68,69
 503 315 503 315 500 323.5 c 128,-1,70
 497 332 497 332 477 339 c 128,-1,71
 457 346 457 346 416 346 c 2,72,-1
 314 346 l 1,73,-1
 245 67 l 2,74,75
 240 49 240 49 240 43 c 0,76,77
 240 34 240 34 253 33 c 0,78,79
 259 32 259 32 275 32 c 2,80,-1
 425 32 l 2,81,82
 477 32 477 32 515.5 41 c 128,-1,83
 554 50 554 50 579.5 64.5 c 128,-1,84
 605 79 605 79 628 110 c 128,-1,85
 651 141 651 141 666 170 c 128,-1,86
 681 199 681 199 705 252 c 1,87,88
 709 264 709 264 718 264 c 0,89,90
 730 264 730 264 730 253 c 0,91,92
 730 252 730 252 725 239 c 2,0,-1
EndSplineSet
Validated: 19457
EndChar

StartChar: F
Encoding: 70 70 5
Width: 658
Flags: W
HStem: 0 32<39.1854 138.552 248.676 357> 333 32<318 478.491> 466 21G<725 733.5> 665 31<206.229 300.622 398.741 677.294>
VStem: 484 28<213.446 262.544> 549.5 21.5<446.684 483.957> 719 24<468.579 551.156>
LayerCount: 2
Fore
SplineSet
310 333 m 1,0,-1
 247 78 l 2,1,2
 243 63 243 63 243 54 c 0,3,4
 243 44 243 44 248.5 40 c 128,-1,5
 254 36 254 36 275 34 c 0,6,7
 301 32 301 32 329 32 c 0,8,9
 355 32 355 32 357 31 c 2,10,-1
 358 30 l 2,11,12
 360 29 360 29 362 26.5 c 128,-1,13
 364 24 364 24 364 19 c 0,14,15
 364 0 364 0 342 0 c 0,16,17
 326 0 326 0 266.5 1.5 c 128,-1,18
 207 3 207 3 189 3 c 0,19,20
 174 3 174 3 122 1.5 c 128,-1,21
 70 0 70 0 54.5 0 c 128,-1,22
 39 0 39 0 39 12 c 0,23,24
 39 25 39 25 45 28.5 c 128,-1,25
 51 32 51 32 68 32 c 0,26,27
 125 32 125 32 139 40 c 128,-1,28
 153 48 153 48 161 80 c 2,29,-1
 296 622 l 2,30,31
 301 640 301 640 301 646 c 0,32,33
 301 658 301 658 285.5 661.5 c 128,-1,34
 270 665 270 665 234 665 c 0,35,36
 217 665 217 665 211.5 666.5 c 128,-1,37
 206 668 206 668 206 676 c 0,38,39
 206 690 206 690 212.5 693 c 128,-1,40
 219 696 219 696 237 696 c 2,41,-1
 738 696 l 2,42,43
 758 696 758 696 763 692 c 128,-1,44
 768 688 768 688 766 669 c 2,45,-1
 745 492 l 2,46,47
 744 481 744 481 743 476 c 128,-1,48
 742 471 742 471 739 468.5 c 128,-1,49
 736 466 736 466 731 466 c 0,50,51
 719 466 719 466 719 478 c 0,52,53
 719 483 719 483 721 497 c 0,54,55
 724 525 724 525 724 552 c 0,56,57
 724 614 724 614 694.5 639.5 c 128,-1,58
 665 665 665 665 574 665 c 2,59,-1
 439 665 l 2,60,61
 406 665 406 665 398.5 658.5 c 128,-1,62
 391 652 391 652 384 625 c 2,63,-1
 318 365 l 1,64,-1
 412 365 l 2,65,66
 478 365 478 365 502.5 383.5 c 128,-1,67
 527 402 527 402 544 463 c 0,68,69
 547 476 547 476 549.5 480 c 128,-1,70
 552 484 552 484 559 484 c 0,71,72
 571 484 571 484 571 473 c 0,73,74
 571 468 571 468 568 457 c 2,75,-1
 512 234 l 1,76,77
 502 214 502 214 497 213 c 1,78,79
 485 213 485 213 484 225 c 0,80,81
 484 229 484 229 487 237 c 1,82,83
 494 268 494 268 495 287 c 0,84,85
 495 312 495 312 479 322.5 c 128,-1,86
 463 333 463 333 410 333 c 2,87,-1
 310 333 l 1,0,-1
EndSplineSet
Validated: 19457
EndChar

StartChar: G
Encoding: 71 71 6
Width: 804
Flags: W
HStem: -23 32<264.946 434.481> 1 21G<590.5 597.5> 248 32<453.415 563.325 669.321 737.797> 430 21G<687.5 697> 690 32<425.953 591.613>
VStem: 51 93<139.537 363.776> 680 29<431.516 487.703>
LayerCount: 2
Fore
SplineSet
778 712 m 1,0,-1
 714 451 l 2,1,2
 712 444 712 444 711.5 441.5 c 128,-1,3
 711 439 711 439 709 435.5 c 128,-1,4
 707 432 707 432 706 431.5 c 128,-1,5
 705 431 705 431 702 430.5 c 128,-1,6
 699 430 699 430 695 430 c 0,7,8
 680 430 680 430 680 440 c 0,9,10
 680 441 680 441 681.5 454.5 c 128,-1,11
 683 468 683 468 683 493 c 0,12,13
 683 583 683 583 639.5 636.5 c 128,-1,14
 596 690 596 690 518 690 c 0,15,16
 445 690 445 690 375.5 651.5 c 128,-1,17
 306 613 306 613 262 558 c 0,18,19
 214 498 214 498 185 418.5 c 128,-1,20
 156 339 156 339 150 296.5 c 128,-1,21
 144 254 144 254 144 224 c 0,22,23
 144 115 144 115 205 62 c 128,-1,24
 266 9 266 9 350 9 c 0,25,26
 369 9 369 9 393 13 c 128,-1,27
 417 17 417 17 450.5 28.5 c 128,-1,28
 484 40 484 40 511 67 c 128,-1,29
 538 94 538 94 548 133 c 0,30,31
 569 210 569 210 569 225 c 0,32,33
 569 226 569 226 569 226 c 0,34,35
 569 236 569 236 563.5 240 c 128,-1,36
 558 244 558 244 538 246 c 0,37,38
 514 248 514 248 483 248 c 0,39,40
 465 248 465 248 459 249.5 c 128,-1,41
 453 251 453 251 453 259 c 0,42,43
 453 279 453 279 474 280 c 0,44,45
 489 280 489 280 545.5 278 c 128,-1,46
 602 276 602 276 617 276 c 0,47,48
 628 276 628 276 670.5 278 c 128,-1,49
 713 280 713 280 725 280 c 0,50,51
 738 280 738 280 738 268 c 0,52,53
 738 248 738 248 722 248 c 0,54,55
 679 247 679 247 669 240 c 128,-1,56
 659 233 659 233 651 199 c 0,57,58
 649 191 649 191 644.5 173.5 c 128,-1,59
 640 156 640 156 638 146 c 2,60,-1
 618 68 l 2,61,62
 604 9 604 9 601 5 c 1,63,64
 601 1 601 1 594 1 c 128,-1,65
 587 1 587 1 571 23 c 128,-1,66
 555 45 555 45 548 65 c 1,67,68
 510 23 510 23 459 2 c 0,69,70
 400 -23 400 -23 331 -23 c 0,71,72
 207 -23 207 -23 129 56 c 128,-1,73
 51 135 51 135 51 258 c 0,74,75
 51 345 51 345 91 430.5 c 128,-1,76
 131 516 131 516 194.5 579.5 c 128,-1,77
 258 643 258 643 342 682.5 c 128,-1,78
 426 722 426 722 510 722 c 0,79,80
 622 722 622 722 680 631 c 1,81,-1
 752 710 l 2,82,83
 764 722 764 722 767 722 c 0,84,85
 778 722 778 722 778 712 c 1,0,-1
EndSplineSet
Validated: 3073
EndChar

StartChar: H
Encoding: 72 72 7
Width: 850
Flags: W
HStem: 0 32<40.2269 138.552 242.132 336.75 443.674 547.13 640.136 734.75> 348 32<323 627> 668 31<207.277 301.658 403.931 503.773 605.277 699.658 801.931 901.771>
LayerCount: 2
Fore
SplineSet
781 621 m 2,0,-1
 643 68 l 2,1,2
 643 67 643 67 641.5 60.5 c 128,-1,3
 640 54 640 54 640 50 c 0,4,5
 640 38 640 38 655.5 35 c 128,-1,6
 671 32 671 32 707 32 c 0,7,8
 723 32 723 32 729 30.5 c 128,-1,9
 735 29 735 29 735 20 c 128,-1,10
 735 11 735 11 731 6 c 128,-1,11
 727 1 727 1 724 0.5 c 128,-1,12
 721 0 721 0 715 0 c 0,13,14
 705 0 705 0 682 1 c 128,-1,15
 659 2 659 2 648 2 c 128,-1,16
 637 2 637 2 615.5 2.5 c 128,-1,17
 594 3 594 3 583 3 c 0,18,19
 569 3 569 3 518 1.5 c 128,-1,20
 467 0 467 0 452.5 0 c 128,-1,21
 438 0 438 0 438 11 c 0,22,23
 438 25 438 25 443.5 28.5 c 128,-1,24
 449 32 449 32 463 32 c 0,25,26
 514 32 514 32 531.5 37 c 128,-1,27
 549 42 549 42 556 66 c 0,28,29
 557 71 557 71 565.5 104.5 c 128,-1,30
 574 138 574 138 591 206 c 128,-1,31
 608 274 608 274 627 348 c 1,32,-1
 314 348 l 1,33,-1
 245 68 l 2,34,35
 245 67 245 67 243.5 60.5 c 128,-1,36
 242 54 242 54 242 50 c 0,37,38
 242 38 242 38 257 35 c 128,-1,39
 272 32 272 32 308 32 c 0,40,41
 325 32 325 32 331 30.5 c 128,-1,42
 337 29 337 29 337 20 c 128,-1,43
 337 11 337 11 333 6 c 128,-1,44
 329 1 329 1 326 0.5 c 128,-1,45
 323 0 323 0 316 0 c 0,46,47
 306 0 306 0 283.5 1 c 128,-1,48
 261 2 261 2 250 2 c 0,49,50
 240 2 240 2 217.5 2.5 c 128,-1,51
 195 3 195 3 184 3 c 0,52,53
 170 3 170 3 119.5 1.5 c 128,-1,54
 69 0 69 0 54.5 0 c 128,-1,55
 40 0 40 0 40 11 c 0,56,57
 40 25 40 25 45.5 28.5 c 128,-1,58
 51 32 51 32 68 32 c 0,59,60
 125 32 125 32 139 40 c 128,-1,61
 153 48 153 48 161 80 c 2,62,-1
 298 630 l 2,63,64
 302 646 302 646 302 649 c 0,65,66
 302 655 302 655 298.5 659 c 128,-1,67
 295 663 295 663 290.5 664 c 128,-1,68
 286 665 286 665 274 666 c 0,69,70
 257 668 257 668 236 668 c 0,71,72
 220 668 220 668 213.5 669.5 c 128,-1,73
 207 671 207 671 207 679 c 0,74,75
 207 688 207 688 210.5 693 c 128,-1,76
 214 698 214 698 217 698.5 c 128,-1,77
 220 699 220 699 226 699 c 0,78,79
 241 699 241 699 292.5 697.5 c 128,-1,80
 344 696 344 696 358.5 696 c 128,-1,81
 373 696 373 696 424 697.5 c 128,-1,82
 475 699 475 699 489.5 699 c 128,-1,83
 504 699 504 699 504 688 c 0,84,85
 504 674 504 674 498 671 c 128,-1,86
 492 668 492 668 469 668 c 0,87,88
 417 668 417 668 403.5 659 c 128,-1,89
 390 650 390 650 383 621 c 2,90,-1
 323 380 l 1,91,-1
 635 380 l 1,92,-1
 696 630 l 2,93,94
 700 647 700 647 700 649 c 0,95,96
 700 655 700 655 696.5 659 c 128,-1,97
 693 663 693 663 688.5 664 c 128,-1,98
 684 665 684 665 673 666 c 0,99,100
 656 668 656 668 634 668 c 0,101,102
 617 668 617 668 611 669.5 c 128,-1,103
 605 671 605 671 605 679 c 0,104,105
 605 688 605 688 608.5 693 c 128,-1,106
 612 698 612 698 615 698.5 c 128,-1,107
 618 699 618 699 625 699 c 0,108,109
 639 699 639 699 690 697.5 c 128,-1,110
 741 696 741 696 757 696 c 0,111,112
 771 696 771 696 822 697.5 c 128,-1,113
 873 699 873 699 887.5 699 c 128,-1,114
 902 699 902 699 902 688 c 0,115,116
 902 674 902 674 895.5 671 c 128,-1,117
 889 668 889 668 867 668 c 0,118,119
 815 668 815 668 801.5 660 c 128,-1,120
 788 652 788 652 781 621 c 2,0,-1
EndSplineSet
Validated: 19457
EndChar

StartChar: I
Encoding: 73 73 8
Width: 449
Flags: W
HStem: 0 32<35.2476 139.036 247.159 338.39> 668 31<202.312 300.438 404.964 508.854>
LayerCount: 2
Fore
SplineSet
383 621 m 2,0,-1
 246 75 l 2,1,2
 242 61 242 61 242 51.5 c 128,-1,3
 242 42 242 42 247 38.5 c 128,-1,4
 252 35 252 35 267 34 c 0,5,6
 287 32 287 32 311 32 c 0,7,8
 324 32 324 32 329.5 31.5 c 128,-1,9
 335 31 335 31 338.5 28.5 c 128,-1,10
 342 26 342 26 342 19 c 0,11,12
 342 0 342 0 322 0 c 0,13,14
 307 0 307 0 253.5 1.5 c 128,-1,15
 200 3 200 3 184 3 c 0,16,17
 170 3 170 3 118 1.5 c 128,-1,18
 66 0 66 0 50.5 0 c 128,-1,19
 35 0 35 0 35 11 c 0,20,21
 35 25 35 25 41 28.5 c 128,-1,22
 47 32 47 32 68 32 c 0,23,24
 125 32 125 32 139.5 40.5 c 128,-1,25
 154 49 154 49 161 80 c 2,26,-1
 299 632 l 2,27,28
 301 641 301 641 301 648 c 0,29,30
 301 661 301 661 285 664.5 c 128,-1,31
 269 668 269 668 230 668 c 0,32,33
 213 668 213 668 207.5 669.5 c 128,-1,34
 202 671 202 671 202 679 c 0,35,36
 202 699 202 699 222 699 c 0,37,38
 237 699 237 699 290 697.5 c 128,-1,39
 343 696 343 696 358 696 c 0,40,41
 372 696 372 696 425.5 697.5 c 128,-1,42
 479 699 479 699 494 699 c 128,-1,43
 509 699 509 699 509 687 c 0,44,45
 509 674 509 674 503 671 c 128,-1,46
 497 668 497 668 476 668 c 0,47,48
 419 668 419 668 404.5 659.5 c 128,-1,49
 390 651 390 651 383 621 c 2,0,-1
EndSplineSet
Validated: 19457
EndChar

StartChar: J
Encoding: 74 74 9
Width: 567
Flags: W
HStem: -23 23<153.237 249.274> 62 109<108.148 168.74> 668 31<348.344 467.809 563.385 647.854>
VStem: 73 113<80.1406 151.672>
LayerCount: 2
Fore
SplineSet
554 625 m 2,0,-1
 434 146 l 2,1,2
 416 72 416 72 349 24.5 c 128,-1,3
 282 -23 282 -23 208 -23 c 0,4,5
 148 -23 148 -23 110.5 9 c 128,-1,6
 73 41 73 41 73 89 c 0,7,8
 73 134 73 134 96 152.5 c 128,-1,9
 119 171 119 171 141 171 c 0,10,11
 157 171 157 171 171.5 161 c 128,-1,12
 186 151 186 151 186 128 c 0,13,14
 186 103 186 103 167 82.5 c 128,-1,15
 148 62 148 62 120 62 c 0,16,17
 111 62 111 62 108 63 c 1,18,19
 119 28 119 28 147.5 14 c 128,-1,20
 176 0 176 0 205 0 c 0,21,22
 248 0 248 0 291.5 41.5 c 128,-1,23
 335 83 335 83 352 154 c 2,24,-1
 470 624 l 2,25,26
 474 640 474 640 474 645 c 0,27,28
 474 655 474 655 468 659.5 c 128,-1,29
 462 664 462 664 442 666 c 0,30,31
 416 668 416 668 383 668 c 0,32,33
 360 668 360 668 354 669.5 c 128,-1,34
 348 671 348 671 348 679 c 0,35,36
 348 699 348 699 370 699 c 0,37,38
 387 699 387 699 445.5 697.5 c 128,-1,39
 504 696 504 696 520 696 c 0,40,41
 532 696 532 696 576.5 697.5 c 128,-1,42
 621 699 621 699 634 699 c 0,43,44
 648 699 648 699 648 687 c 0,45,46
 648 674 648 674 642 671 c 128,-1,47
 636 668 636 668 621 668 c 0,48,49
 593 668 593 668 579.5 663 c 128,-1,50
 566 658 566 658 562.5 651 c 128,-1,51
 559 644 559 644 554 625 c 2,0,-1
EndSplineSet
Validated: 19457
EndChar

StartChar: K
Encoding: 75 75 10
Width: 869
Flags: W
HStem: 0 32<39.1794 138.552 242.132 336.749 500.342 570.329 692.442 757.728> 668.5 29.5<209.61 301.092 403.931 503.723 693.312 735.062 834.026 909.561>
LayerCount: 2
Fore
SplineSet
521 414 m 2,0,-1
 667 78 l 2,1,2
 678 51 678 51 692 42 c 128,-1,3
 706 33 706 33 737 32 c 0,4,5
 757 32 757 32 758 20 c 0,6,7
 758 0 758 0 739 0 c 0,8,9
 728 0 728 0 689 1.5 c 128,-1,10
 650 3 650 3 639 3 c 0,11,12
 619 3 619 3 577 1.5 c 128,-1,13
 535 0 535 0 514 0 c 0,14,15
 500 0 500 0 500 11 c 0,16,17
 500 20 500 20 503.5 25.5 c 128,-1,18
 507 31 507 31 511 31.5 c 128,-1,19
 515 32 515 32 522 32 c 0,20,21
 575 32 575 32 575 63 c 0,22,23
 575 71 575 71 563 99 c 2,24,-1
 444 375 l 1,25,-1
 292 256 l 1,26,27
 262 135 262 135 251 95 c 0,28,29
 250 90 250 90 247.5 79.5 c 128,-1,30
 245 69 245 69 243.5 61 c 128,-1,31
 242 53 242 53 242 50 c 0,32,33
 242 38 242 38 257 35 c 128,-1,34
 272 32 272 32 308 32 c 0,35,36
 325 32 325 32 331 30.5 c 128,-1,37
 337 29 337 29 337 20 c 0,38,39
 337 0 337 0 316 0 c 0,40,41
 306 0 306 0 283.5 1 c 128,-1,42
 261 2 261 2 250 2 c 0,43,44
 240 2 240 2 217.5 2.5 c 128,-1,45
 195 3 195 3 184 3 c 0,46,47
 170 3 170 3 119.5 1.5 c 128,-1,48
 69 0 69 0 54 0 c 128,-1,49
 39 0 39 0 39 12 c 0,50,51
 39 25 39 25 45 28.5 c 128,-1,52
 51 32 51 32 68 32 c 0,53,54
 125 32 125 32 139 40 c 128,-1,55
 153 48 153 48 161 80 c 2,56,-1
 298 630 l 2,57,58
 302 646 302 646 302 649 c 0,59,60
 302 662 302 662 280 666 c 1,61,62
 255 668 255 668 236 668 c 0,63,64
 224 668 224 668 218.5 668.5 c 128,-1,65
 213 669 213 669 209.5 671.5 c 128,-1,66
 206 674 206 674 206 680 c 0,67,68
 206 699 206 699 226 698 c 0,69,70
 241 698 241 698 292.5 697 c 128,-1,71
 344 696 344 696 358.5 696 c 128,-1,72
 373 696 373 696 424 698 c 0,73,74
 462 699 462 699 480 699 c 0,75,76
 486 698 486 698 490 698 c 0,77,78
 504 698 504 698 504 688 c 0,79,80
 504 674 504 674 497 671 c 128,-1,81
 490 668 490 668 469 668 c 0,82,83
 417 668 417 668 403.5 659.5 c 128,-1,84
 390 651 390 651 383 621 c 2,85,-1
 301 292 l 1,86,-1
 700 599 l 1,87,88
 737 630 737 630 737 646 c 0,89,90
 737 664 737 664 706 668 c 0,91,92
 694 670 694 670 693 679 c 0,93,94
 693 699 693 699 713 698 c 0,95,96
 731 698 731 698 769.5 697 c 128,-1,97
 808 696 808 696 826 696 c 0,98,99
 838 696 838 696 863 698 c 0,100,101
 882 699 882 699 893 699 c 0,102,103
 897 698 897 698 899 698 c 0,104,105
 910 698 910 698 910 688 c 0,106,107
 910 670 910 670 892 668 c 0,108,109
 870 666 870 666 855.5 662 c 128,-1,110
 841 658 841 658 805 640.5 c 128,-1,111
 769 623 769 623 725 590 c 2,112,-1
 546 452 l 1,113,114
 516 430 516 430 516 428 c 0,115,116
 516 427 516 427 517 424 c 128,-1,117
 518 421 518 421 519.5 418 c 128,-1,118
 521 415 521 415 521 414 c 2,0,-1
EndSplineSet
Validated: 3073
EndChar

StartChar: L
Encoding: 76 76 11
Width: 696
Flags: W
HStem: 0 32<40.2476 138.552 240.003 469.73> 668 31<207.311 301.658 407.544 529.809>
VStem: 629 29<211.25 262.964>
LayerCount: 2
Fore
SplineSet
383 620 m 2,0,-1
 245 67 l 2,1,2
 240 49 240 49 240 43 c 0,3,4
 240 34 240 34 253 33 c 0,5,6
 259 32 259 32 275 32 c 2,7,-1
 372 32 l 2,8,9
 423 32 423 32 463.5 45.5 c 128,-1,10
 504 59 504 59 528.5 77.5 c 128,-1,11
 553 96 553 96 574.5 129 c 128,-1,12
 596 162 596 162 605 183.5 c 128,-1,13
 614 205 614 205 629 243 c 1,14,15
 637 262 637 262 642 263 c 0,16,17
 644 264 644 264 646 264 c 0,18,19
 658 264 658 264 658 253 c 0,20,21
 658 250 658 250 654 239 c 2,22,-1
 573 17 l 2,23,24
 569 4 569 4 564.5 2 c 128,-1,25
 560 0 560 0 542 0 c 2,26,-1
 68 0 l 2,27,28
 52 0 52 0 46 1.5 c 128,-1,29
 40 3 40 3 40 11 c 0,30,31
 40 25 40 25 46 28.5 c 128,-1,32
 52 32 52 32 68 32 c 0,33,34
 125 32 125 32 139 40 c 128,-1,35
 153 48 153 48 161 80 c 2,36,-1
 298 630 l 2,37,38
 302 646 302 646 302 649 c 0,39,40
 302 655 302 655 298.5 659 c 128,-1,41
 295 663 295 663 290.5 664 c 128,-1,42
 286 665 286 665 274 666 c 0,43,44
 257 668 257 668 236 668 c 0,45,46
 220 668 220 668 213.5 669.5 c 128,-1,47
 207 671 207 671 207 679 c 0,48,49
 207 699 207 699 226 699 c 0,50,51
 241 699 241 699 294 697.5 c 128,-1,52
 347 696 347 696 362 696 c 0,53,54
 378 696 378 696 438 697.5 c 128,-1,55
 498 699 498 699 514 699 c 128,-1,56
 530 699 530 699 530 687 c 0,57,58
 530 674 530 674 523 671 c 128,-1,59
 516 668 516 668 492 668 c 0,60,61
 424 668 424 668 407 659.5 c 128,-1,62
 390 651 390 651 383 620 c 2,0,-1
EndSplineSet
Validated: 19457
EndChar

StartChar: M
Encoding: 77 77 12
Width: 993
Flags: W
HStem: 0 32<43.2812 132.879 208.281 283.74 612.192 711.552 807.136 901.752> 668 31<213.61 305.463 968.932 1068.75>
LayerCount: 2
Fore
SplineSet
948 621 m 2,0,-1
 812 75 l 2,1,2
 807 57 807 57 807 50 c 0,3,4
 807 38 807 38 822.5 35 c 128,-1,5
 838 32 838 32 873 32 c 0,6,7
 890 32 890 32 896 30.5 c 128,-1,8
 902 29 902 29 902 20 c 0,9,10
 902 0 902 0 883 0 c 0,11,12
 863 0 863 0 819.5 1.5 c 128,-1,13
 776 3 776 3 755 3 c 0,14,15
 741 3 741 3 691.5 1.5 c 128,-1,16
 642 0 642 0 628 0 c 0,17,18
 613 0 613 0 612 12 c 0,19,20
 612 25 612 25 618.5 28.5 c 128,-1,21
 625 32 625 32 641 32 c 0,22,23
 698 32 698 32 712 40 c 128,-1,24
 726 48 726 48 734 80 c 2,25,-1
 881 667 l 1,26,-1
 880 667 l 1,27,-1
 466 18 l 1,28,29
 453 0 453 0 443 0 c 0,30,31
 432 0 432 0 428 24 c 2,32,-1
 340 658 l 1,33,-1
 339 658 l 1,34,-1
 200 100 l 2,35,36
 196 85 196 85 196 77 c 0,37,38
 196 33 196 33 265 32 c 0,39,40
 283 32 283 32 284 20 c 0,41,42
 284 0 284 0 265 0 c 0,43,44
 249 0 249 0 213 1.5 c 128,-1,45
 177 3 177 3 159.5 3 c 128,-1,46
 142 3 142 3 108 1.5 c 128,-1,47
 74 0 74 0 57 0 c 0,48,49
 43 0 43 0 43 12 c 0,50,51
 43 31 43 31 61 32 c 0,52,53
 117 34 117 34 140 53 c 128,-1,54
 163 72 163 72 172 109 c 2,55,-1
 302 630 l 2,56,57
 306 646 306 646 306 649 c 0,58,59
 306 662 306 662 284 666 c 1,60,61
 259 668 259 668 240 668 c 0,62,63
 228 668 228 668 222.5 668.5 c 128,-1,64
 217 669 217 669 213.5 671.5 c 128,-1,65
 210 674 210 674 210 680 c 0,66,67
 210 693 210 693 216.5 696 c 128,-1,68
 223 699 223 699 241 699 c 2,69,-1
 381 699 l 2,70,71
 401 699 401 699 406 696 c 128,-1,72
 411 693 411 693 413 676 c 2,73,-1
 493 96 l 1,74,-1
 866 680 l 2,75,76
 875 694 875 694 880.5 696.5 c 128,-1,77
 886 699 886 699 906 699 c 2,78,-1
 1041 699 l 2,79,80
 1069 699 1069 699 1069 688 c 0,81,82
 1069 674 1069 674 1063 671 c 128,-1,83
 1057 668 1057 668 1036 668 c 0,84,85
 982 668 982 668 968.5 660 c 128,-1,86
 955 652 955 652 948 621 c 2,0,-1
EndSplineSet
Validated: 19457
EndChar

StartChar: N
Encoding: 78 78 13
Width: 822
Flags: W
HStem: 0 32<40.3362 128.879 204.016 279.728> 668 31<207.211 304.983 663.281 737.602 813.993 901.734>
LayerCount: 2
Fore
SplineSet
774 592 m 2,0,-1
 631 22 l 2,1,2
 627 7 627 7 625 3.5 c 128,-1,3
 623 0 623 0 614 0 c 0,4,5
 607 0 607 0 603.5 3.5 c 128,-1,6
 600 7 600 7 595 19 c 2,7,-1
 340 623 l 1,8,-1
 331 641 l 1,9,-1
 196 100 l 2,10,11
 192 85 192 85 191 77 c 0,12,13
 191 34 191 34 259 32 c 0,14,15
 279 32 279 32 280 20 c 0,16,17
 280 0 280 0 261 0 c 0,18,19
 245 0 245 0 209 1.5 c 128,-1,20
 173 3 173 3 155.5 3 c 128,-1,21
 138 3 138 3 104 1.5 c 128,-1,22
 70 0 70 0 53 0 c 0,23,24
 40 0 40 0 40 11 c 0,25,26
 40 31 40 31 57 32 c 0,27,28
 113 34 113 34 136 53 c 128,-1,29
 159 72 159 72 168 109 c 2,30,-1
 305 658 l 1,31,32
 305 667 305 667 236 668 c 0,33,34
 220 668 220 668 213.5 669.5 c 128,-1,35
 207 671 207 671 207 679 c 0,36,37
 207 693 207 693 213 696 c 128,-1,38
 219 699 219 699 237 699 c 2,39,-1
 374 699 l 2,40,41
 391 699 391 699 395.5 696.5 c 128,-1,42
 400 694 400 694 407 680 c 2,43,-1
 633 145 l 1,44,-1
 748 601 l 2,45,46
 751 610 751 610 751 623 c 0,47,48
 751 667 751 667 681 668 c 0,49,50
 663 668 663 668 663 679 c 0,51,52
 663 699 663 699 681 699 c 0,53,54
 697 699 697 699 732.5 697.5 c 128,-1,55
 768 696 768 696 785.5 696 c 128,-1,56
 803 696 803 696 837.5 697.5 c 128,-1,57
 872 699 872 699 889 699 c 0,58,59
 902 699 902 699 902 688 c 0,60,61
 902 668 902 668 885 668 c 0,62,63
 829 666 829 666 806 647 c 128,-1,64
 783 628 783 628 774 592 c 2,0,-1
EndSplineSet
Validated: 19457
EndChar

StartChar: O
Encoding: 79 79 14
Width: 780
Flags: W
HStem: -23 27<251.612 390.337> 696 26<418.873 555.153>
VStem: 50 95<129.58 370.857> 667 91<340.741 567.225>
LayerCount: 2
Fore
SplineSet
758 446 m 0,0,1
 758 357 758 357 718.5 270 c 128,-1,2
 679 183 679 183 616.5 119.5 c 128,-1,3
 554 56 554 56 473 16.5 c 128,-1,4
 392 -23 392 -23 312 -23 c 0,5,6
 198 -23 198 -23 124 51.5 c 128,-1,7
 50 126 50 126 50 251 c 0,8,9
 50 338 50 338 89 424.5 c 128,-1,10
 128 511 128 511 190 576 c 128,-1,11
 252 641 252 641 334 681.5 c 128,-1,12
 416 722 416 722 497 722 c 0,13,14
 612 722 612 722 685 645.5 c 128,-1,15
 758 569 758 569 758 446 c 0,0,1
318 4 m 0,16,17
 378 4 378 4 437.5 40 c 128,-1,18
 497 76 497 76 538 127 c 0,19,20
 606 211 606 211 636.5 312.5 c 128,-1,21
 667 414 667 414 667 486 c 0,22,23
 667 591 667 591 614.5 643.5 c 128,-1,24
 562 696 562 696 490 696 c 0,25,26
 427 696 427 696 358.5 654.5 c 128,-1,27
 290 613 290 613 239 537 c 0,28,29
 188 459 188 459 166.5 368.5 c 128,-1,30
 145 278 145 278 145 222 c 0,31,32
 145 122 145 122 193 63 c 128,-1,33
 241 4 241 4 318 4 c 0,16,17
EndSplineSet
Validated: 19457
EndChar

StartChar: P
Encoding: 80 80 15
Width: 657
Flags: W
HStem: 0 32<41.1794 140.552 244.132 338.749> 324 26<314 544.214> 668 31<211.61 303.463 398.741 622.703>
VStem: 677 95<465.461 618.588>
LayerCount: 2
Fore
SplineSet
310 324 m 1,0,-1
 247 68 l 2,1,2
 247 67 247 67 245.5 60.5 c 128,-1,3
 244 54 244 54 244 50 c 0,4,5
 244 38 244 38 259 35 c 128,-1,6
 274 32 274 32 310 32 c 0,7,8
 327 32 327 32 333 30.5 c 128,-1,9
 339 29 339 29 339 20 c 0,10,11
 339 0 339 0 318 0 c 0,12,13
 308 0 308 0 285.5 1 c 128,-1,14
 263 2 263 2 252 2 c 0,15,16
 242 2 242 2 219.5 2.5 c 128,-1,17
 197 3 197 3 186 3 c 0,18,19
 172 3 172 3 121.5 1.5 c 128,-1,20
 71 0 71 0 56 0 c 128,-1,21
 41 0 41 0 41 12 c 0,22,23
 41 25 41 25 47 28.5 c 128,-1,24
 53 32 53 32 70 32 c 0,25,26
 127 32 127 32 141 40 c 128,-1,27
 155 48 155 48 163 80 c 2,28,-1
 300 630 l 2,29,30
 304 646 304 646 304 649 c 0,31,32
 304 662 304 662 282 666 c 1,33,34
 257 668 257 668 238 668 c 0,35,36
 226 668 226 668 220.5 668.5 c 128,-1,37
 215 669 215 669 211.5 671.5 c 128,-1,38
 208 674 208 674 208 680 c 0,39,40
 208 693 208 693 214.5 696 c 128,-1,41
 221 699 221 699 239 699 c 2,42,-1
 570 699 l 2,43,44
 665 699 665 699 718.5 653.5 c 128,-1,45
 772 608 772 608 772 545 c 0,46,47
 772 459 772 459 683 391.5 c 128,-1,48
 594 324 594 324 484 324 c 2,49,-1
 310 324 l 1,0,-1
384 629 m 2,50,-1
 314 350 l 1,51,-1
 459 350 l 2,52,53
 556 350 556 350 616 404 c 0,54,55
 644 430 644 430 660.5 482 c 128,-1,56
 677 534 677 534 677 569 c 0,57,58
 677 667 677 667 538 668 c 2,59,-1
 439 668 l 2,60,61
 406 668 406 668 398.5 662.5 c 128,-1,62
 391 657 391 657 384 629 c 2,50,-1
EndSplineSet
Validated: 19457
EndChar

StartChar: Q
Encoding: 81 81 16
Width: 808
Flags: W
HStem: -199 100<473.018 562.144> -23 26<282.726 387.821> 129 23<313.63 391.958> 696 26<420.059 556.355>
VStem: 50 90<128.934 362.449> 249 22<16 85.2219> 409 256<-86 0> 668 90<336.267 566.381>
LayerCount: 2
Fore
SplineSet
449 6 m 1,0,1
 457 -53 457 -53 471.5 -76 c 128,-1,2
 486 -99 486 -99 521 -99 c 0,3,4
 554 -99 554 -99 589.5 -74.5 c 128,-1,5
 625 -50 625 -50 641 -1 c 0,6,7
 645 10 645 10 653 10 c 0,8,9
 664 10 664 10 665 0 c 0,10,11
 665 -7 665 -7 654.5 -36.5 c 128,-1,12
 644 -66 644 -66 625 -103.5 c 128,-1,13
 606 -141 606 -141 571 -170 c 128,-1,14
 536 -199 536 -199 494 -199 c 0,15,16
 409 -199 409 -199 409 -86 c 0,17,18
 409 -71 409 -71 413 -7 c 1,19,20
 359 -22 359 -22 312 -23 c 0,21,22
 198 -23 198 -23 124 51.5 c 128,-1,23
 50 126 50 126 50 251 c 0,24,25
 50 338 50 338 89 424.5 c 128,-1,26
 128 511 128 511 190 576 c 128,-1,27
 252 641 252 641 334 681.5 c 128,-1,28
 416 722 416 722 497 722 c 0,29,30
 612 722 612 722 685 645.5 c 128,-1,31
 758 569 758 569 758 446 c 0,32,33
 758 304 758 304 666 178.5 c 128,-1,34
 574 53 574 53 449 6 c 1,0,1
255 14 m 1,35,-1
 254 16 l 2,36,37
 254 18 254 18 253 21 c 128,-1,38
 252 24 252 24 251 27.5 c 128,-1,39
 250 31 250 31 249.5 36 c 128,-1,40
 249 41 249 41 249 47 c 0,41,42
 249 87 249 87 280.5 119.5 c 128,-1,43
 312 152 312 152 353 152 c 0,44,45
 380 152 380 152 398 140.5 c 128,-1,46
 416 129 416 129 425 108 c 128,-1,47
 434 87 434 87 437 74 c 128,-1,48
 440 61 440 61 443 41 c 1,49,50
 503 75 503 75 550 135 c 128,-1,51
 597 195 597 195 621 259.5 c 128,-1,52
 645 324 645 324 656.5 380 c 128,-1,53
 668 436 668 436 668 479 c 0,54,55
 668 579 668 579 618.5 637.5 c 128,-1,56
 569 696 569 696 490 696 c 0,57,58
 431 696 431 696 364.5 658 c 128,-1,59
 298 620 298 620 245 545 c 0,60,61
 193 470 193 470 166.5 377 c 128,-1,62
 140 284 140 284 140 218 c 0,63,64
 140 145 140 145 169 91 c 128,-1,65
 198 37 198 37 255 14 c 1,35,-1
318 3 m 0,66,67
 360 3 360 3 404 22 c 0,68,69
 412 25 412 25 414 28 c 128,-1,70
 416 31 416 31 416 42 c 0,71,72
 416 88 416 88 401 108.5 c 128,-1,73
 386 129 386 129 353 129 c 0,74,75
 321 129 321 129 296 103.5 c 128,-1,76
 271 78 271 78 271 47 c 0,77,78
 271 3 271 3 318 3 c 0,66,67
EndSplineSet
Validated: 19457
EndChar

StartChar: R
Encoding: 82 82 17
Width: 777
Flags: W
HStem: -23 23<624.477 688.836> 0 32<42.2269 140.552 241.132 335.75> 339 22<317 494.84> 668 31<209.211 303.658 394.674 599.328>
VStem: 514 99<20.7412 201.19> 545 83<143.323 296.325> 662 95<472.725 615.398> 748 25<64.625 107.921>
LayerCount: 2
Fore
SplineSet
384 629 m 2,0,-1
 317 361 l 1,1,-1
 432 361 l 2,2,3
 546 361 546 361 605 421 c 0,4,5
 633 449 633 449 647.5 492 c 128,-1,6
 662 535 662 535 662 566 c 0,7,8
 662 591 662 591 653.5 609 c 128,-1,9
 645 627 645 627 628 637.5 c 128,-1,10
 611 648 611 648 596 655 c 128,-1,11
 581 662 581 662 555 664.5 c 128,-1,12
 529 667 529 667 515 667.5 c 128,-1,13
 501 668 501 668 475 668 c 0,14,15
 422 668 422 668 413 667 c 0,16,17
 400 665 400 665 394.5 657 c 128,-1,18
 389 649 389 649 384 629 c 2,0,-1
531 348 m 1,19,20
 627 312 627 312 628 227 c 0,21,22
 628 208 628 208 624 179 c 0,23,24
 614 97 614 97 613 62 c 0,25,26
 613 29 613 29 622 14.5 c 128,-1,27
 631 0 631 0 654.5 0 c 128,-1,28
 678 0 678 0 704 21.5 c 128,-1,29
 730 43 730 43 748 93 c 0,30,31
 752 107 752 107 761 108 c 0,32,33
 773 108 773 108 773 95 c 0,34,35
 773 70 773 70 739.5 23.5 c 128,-1,36
 706 -23 706 -23 650 -23 c 0,37,38
 641 -23 641 -23 631 -22.5 c 128,-1,39
 621 -22 621 -22 597.5 -15.5 c 128,-1,40
 574 -9 574 -9 557.5 1 c 128,-1,41
 541 11 541 11 527.5 34 c 128,-1,42
 514 57 514 57 514 88 c 0,43,44
 514 110 514 110 530 175 c 0,45,46
 544 230 544 230 545 246 c 0,47,48
 545 282 545 282 520.5 310.5 c 128,-1,49
 496 339 496 339 433 339 c 2,50,-1
 311 339 l 1,51,-1
 244 68 l 2,52,53
 244 67 244 67 242.5 60.5 c 128,-1,54
 241 54 241 54 241 50 c 0,55,56
 241 38 241 38 256 35 c 128,-1,57
 271 32 271 32 307 32 c 0,58,59
 323 32 323 32 329.5 30.5 c 128,-1,60
 336 29 336 29 336 20 c 128,-1,61
 336 11 336 11 332 6 c 128,-1,62
 328 1 328 1 325 0.5 c 128,-1,63
 322 0 322 0 315 0 c 0,64,65
 301 0 301 0 250.5 1.5 c 128,-1,66
 200 3 200 3 185.5 3 c 128,-1,67
 171 3 171 3 121 1.5 c 128,-1,68
 71 0 71 0 56.5 0 c 128,-1,69
 42 0 42 0 42 11 c 0,70,71
 42 25 42 25 47.5 28.5 c 128,-1,72
 53 32 53 32 70 32 c 0,73,74
 127 32 127 32 141 40 c 128,-1,75
 155 48 155 48 163 80 c 2,76,-1
 300 630 l 2,77,78
 304 646 304 646 304 649 c 0,79,80
 304 655 304 655 300.5 659 c 128,-1,81
 297 663 297 663 292.5 664 c 128,-1,82
 288 665 288 665 276 666 c 0,83,84
 259 668 259 668 238 668 c 0,85,86
 222 668 222 668 215.5 669.5 c 128,-1,87
 209 671 209 671 209 679 c 0,88,89
 209 693 209 693 215 696 c 128,-1,90
 221 699 221 699 239 699 c 2,91,-1
 530 699 l 2,92,93
 629 699 629 699 693 655.5 c 128,-1,94
 757 612 757 612 757 546 c 0,95,96
 757 474 757 474 688 420.5 c 128,-1,97
 619 367 619 367 531 348 c 1,19,20
EndSplineSet
Validated: 19457
EndChar

StartChar: S
Encoding: 83 83 18
Width: 627
Flags: W
HStem: -23 32<219.33 379.599> 467 21G<584 594> 693 29<364.795 505.684>
VStem: 182 73<458.829 573.388> 493 73<142.02 269.445> 578 22<467.022 508.094>
LayerCount: 2
Fore
SplineSet
660 712 m 1,0,-1
 605 487 l 2,1,2
 602 474 602 474 600 470.5 c 128,-1,3
 598 467 598 467 590 467 c 0,4,5
 578 467 578 467 578 477 c 0,6,7
 578 479 578 479 579 487 c 128,-1,8
 580 495 580 495 581 507.5 c 128,-1,9
 582 520 582 520 582 535 c 0,10,11
 582 617 582 617 542 655 c 128,-1,12
 502 693 502 693 434 693 c 0,13,14
 362 693 362 693 308.5 640 c 128,-1,15
 255 587 255 587 255 523 c 0,16,17
 255 486 255 486 274 462 c 128,-1,18
 293 438 293 438 317 430 c 0,19,20
 322 429 322 429 386 412 c 1,21,22
 458 394 458 394 478.5 386 c 128,-1,23
 499 378 499 378 516 360 c 0,24,25
 566 313 566 313 566 241 c 0,26,27
 566 144 566 144 487.5 60.5 c 128,-1,28
 409 -23 409 -23 306 -23 c 0,29,30
 187 -23 187 -23 133 51 c 1,31,-1
 83 -7 l 2,32,33
 70 -22 70 -22 65 -23 c 0,34,35
 54 -23 54 -23 53 -12 c 0,36,37
 53 -9 53 -9 82.5 108 c 128,-1,38
 112 225 112 225 115 228 c 0,39,40
 119 232 119 232 125 232 c 0,41,42
 137 232 137 232 137 221 c 0,43,44
 137 220 137 220 136 218 c 128,-1,45
 135 216 135 216 135 214 c 0,46,47
 129 177 129 177 129 159 c 0,48,49
 129 123 129 123 142 95 c 128,-1,50
 155 67 155 67 173 51.5 c 128,-1,51
 191 36 191 36 217 25.5 c 128,-1,52
 243 15 243 15 264.5 12 c 128,-1,53
 286 9 286 9 308 9 c 0,54,55
 382 9 382 9 437.5 68 c 128,-1,56
 493 127 493 127 493 198 c 0,57,58
 493 228 493 228 484 248.5 c 128,-1,59
 475 269 475 269 458.5 280.5 c 128,-1,60
 442 292 442 292 430 296.5 c 128,-1,61
 418 301 418 301 398 306 c 2,62,-1
 289 335 l 1,63,64
 245 348 245 348 213.5 385.5 c 128,-1,65
 182 423 182 423 182 480 c 0,66,67
 182 573 182 573 260 647.5 c 128,-1,68
 338 722 338 722 435 722 c 0,69,70
 540 722 540 722 582 648 c 1,71,-1
 631 707 l 2,72,73
 644 722 644 722 649 722 c 0,74,75
 660 722 660 722 660 712 c 1,0,-1
EndSplineSet
Validated: 19457
EndChar

StartChar: T
Encoding: 84 84 19
Width: 598
Flags: W
HStem: 2 30<50.2682 200.096 304.223 434.841> 463 21G<31 38.5> 662 31<161.949 354.967 447.157 645.438>
VStem: 25 29<464.036 515.5> 675 46<556.551 687.5>
LayerCount: 2
Fore
SplineSet
437 622 m 2,0,-1
 301 78 l 2,1,2
 297 63 297 63 297 56 c 0,3,4
 297 44 297 44 304 40 c 128,-1,5
 311 36 311 36 335 34 c 0,6,7
 362 32 362 32 400 32 c 0,8,9
 422 32 422 32 428.5 30.5 c 128,-1,10
 435 29 435 29 435 20 c 0,11,12
 435 0 435 0 413 0 c 0,13,14
 399 0 399 0 369 1 c 128,-1,15
 339 2 339 2 324 2 c 0,16,17
 311 2 311 2 282 2.5 c 128,-1,18
 253 3 253 3 238.5 3 c 128,-1,19
 224 3 224 3 195 2.5 c 128,-1,20
 166 2 166 2 151.5 2 c 128,-1,21
 137 2 137 2 109.5 1 c 128,-1,22
 82 0 82 0 68 0 c 0,23,24
 51 0 51 0 50 12 c 0,25,26
 50 26 50 26 56.5 29 c 128,-1,27
 63 32 63 32 93 32 c 0,28,29
 147 32 147 32 172 37 c 128,-1,30
 197 42 197 42 203.5 50 c 128,-1,31
 210 58 210 58 215 81 c 2,32,-1
 352 628 l 2,33,34
 356 640 356 640 356 649 c 0,35,36
 356 654 356 654 355 656 c 128,-1,37
 354 658 354 658 347.5 660 c 128,-1,38
 341 662 341 662 328 662 c 2,39,-1
 288 662 l 2,40,41
 173 662 173 662 134 632.5 c 128,-1,42
 95 603 95 603 54 484 c 0,43,44
 47 465 47 465 42 464 c 0,45,46
 40 463 40 463 37 463 c 0,47,48
 25 463 25 463 25 474 c 0,49,50
 25 480 25 480 31 493 c 1,51,-1
 92 673 l 2,52,53
 97 687 97 687 101.5 690 c 128,-1,54
 106 693 106 693 125 693 c 2,55,-1
 693 693 l 2,56,57
 721 693 721 693 721 682 c 0,58,59
 721 673 721 673 719 665 c 2,60,-1
 691 486 l 2,61,62
 688 462 688 462 676 462.5 c 128,-1,63
 664 463 664 463 664 476 c 0,64,65
 664 483 664 483 667 496 c 1,66,67
 675 549 675 549 675 578 c 0,68,69
 675 633 675 633 643.5 647.5 c 128,-1,70
 612 662 612 662 525 662 c 0,71,72
 470 662 470 662 461 659.5 c 128,-1,73
 452 657 452 657 447 650.5 c 128,-1,74
 442 644 442 644 437 622 c 2,0,-1
EndSplineSet
Validated: 19457
EndChar

StartChar: U
Encoding: 85 85 20
Width: 698
Flags: W
HStem: -23 32<209.222 351.227> 668 31<83.2769 177.692 279.931 379.771 536.281 610.602 689.993 777.734>
VStem: 69 79<77.4625 261.206>
LayerCount: 2
Fore
SplineSet
650 592 m 2,0,-1
 559 228 l 2,1,2
 533 126 533 126 449 51.5 c 128,-1,3
 365 -23 365 -23 269 -23 c 0,4,5
 185 -23 185 -23 127 30.5 c 128,-1,6
 69 84 69 84 69 174 c 0,7,8
 69 205 69 205 76 233 c 0,9,10
 78 243 78 243 105.5 355 c 128,-1,11
 133 467 133 467 138 486 c 2,12,-1
 161 577 l 2,13,14
 178 644 178 644 178 649.5 c 128,-1,15
 178 655 178 655 174.5 659 c 128,-1,16
 171 663 171 663 166.5 664 c 128,-1,17
 162 665 162 665 151 666 c 0,18,19
 134 668 134 668 112 668 c 0,20,21
 95 668 95 668 89 669.5 c 128,-1,22
 83 671 83 671 83 679 c 0,23,24
 83 688 83 688 86.5 693 c 128,-1,25
 90 698 90 698 93 698.5 c 128,-1,26
 96 699 96 699 102 699 c 0,27,28
 116 699 116 699 167.5 697.5 c 128,-1,29
 219 696 219 696 234 696 c 0,30,31
 248 696 248 696 299.5 697.5 c 128,-1,32
 351 699 351 699 365.5 699 c 128,-1,33
 380 699 380 699 380 688 c 0,34,35
 380 674 380 674 373.5 671 c 128,-1,36
 367 668 367 668 345 668 c 0,37,38
 293 668 293 668 279.5 659.5 c 128,-1,39
 266 651 266 651 259 621 c 2,40,-1
 160 222 l 2,41,42
 149 177 149 177 148 142 c 0,43,44
 148 79 148 79 183.5 44 c 128,-1,45
 219 9 219 9 273 9 c 0,46,47
 353 9 353 9 428 72.5 c 128,-1,48
 503 136 503 136 528 236 c 2,49,-1
 621 601 l 2,50,51
 624 610 624 610 624 623 c 0,52,53
 624 667 624 667 554 668 c 0,54,55
 536 668 536 668 536 679 c 0,56,57
 536 699 536 699 554 699 c 0,58,59
 570 699 570 699 606.5 697.5 c 128,-1,60
 643 696 643 696 660.5 696 c 128,-1,61
 678 696 678 696 713.5 697.5 c 128,-1,62
 749 699 749 699 765 699 c 0,63,64
 778 699 778 699 778 688 c 0,65,66
 778 668 778 668 761 668 c 0,67,68
 705 666 705 666 682 647 c 128,-1,69
 659 628 659 628 650 592 c 2,0,-1
EndSplineSet
Validated: 19457
EndChar

StartChar: V
Encoding: 86 86 21
Width: 596
Flags: W
HStem: -23 21G<241 254.5> 668.5 29.5<61.125 139.333 240.644 329.626 569.184 625.828 711.75 786.797>
LayerCount: 2
Fore
SplineSet
643 583 m 2,0,-1
 274 -4 l 2,1,2
 263 -22 263 -22 246 -23 c 0,3,4
 236 -23 236 -23 231.5 -18.5 c 128,-1,5
 227 -14 227 -14 225 1 c 2,6,-1
 144 633 l 2,7,8
 142 648 142 648 139.5 653.5 c 128,-1,9
 137 659 137 659 124 663.5 c 128,-1,10
 111 668 111 668 83 668 c 0,11,12
 73 668 73 668 69 668.5 c 128,-1,13
 65 669 65 669 61 671.5 c 128,-1,14
 57 674 57 674 57 680 c 0,15,16
 57 699 57 699 77 698 c 0,17,18
 85 698 85 698 104 697.5 c 128,-1,19
 123 697 123 697 132 697 c 128,-1,20
 141 697 141 697 160 696.5 c 128,-1,21
 179 696 179 696 188 696 c 0,22,23
 210 696 210 696 252 698 c 0,24,25
 265 698 265 698 275.5 698 c 128,-1,26
 286 698 286 698 295 698 c 0,27,28
 307 698 307 698 315 698 c 0,29,30
 329 698 329 698 330 688 c 0,31,32
 330 679 330 679 326 674 c 128,-1,33
 322 669 322 669 317.5 668.5 c 128,-1,34
 313 668 313 668 304 668 c 0,35,36
 233 668 233 668 233 637 c 1,37,-1
 303 95 l 1,38,-1
 617 595 l 1,39,-1
 621 602 l 2,40,41
 625 608 625 608 629 617.5 c 128,-1,42
 633 627 633 627 633 634 c 0,43,44
 633 665 633 665 586 668 c 1,45,46
 570 668 570 668 569 680 c 0,47,48
 569 699 569 699 589 698 c 0,49,50
 605 698 605 698 639 697 c 128,-1,51
 673 696 673 696 690 696 c 0,52,53
 704 696 704 696 732 698 c 0,54,55
 753 699 753 699 767 699 c 0,56,57
 771 698 771 698 774 698 c 0,58,59
 787 698 787 698 787 687 c 0,60,61
 787 669 787 669 774 668 c 0,62,63
 756 667 756 667 744 665 c 128,-1,64
 732 663 732 663 714 655 c 128,-1,65
 696 647 696 647 678 629.5 c 128,-1,66
 660 612 660 612 643 583 c 2,0,-1
EndSplineSet
Validated: 3073
EndChar

StartChar: W
Encoding: 87 87 22
Width: 966
Flags: W
HStem: -23 21G<194 200.5 574.5 585.5> 668.5 29.5<59.6096 131.851 234.109 322.565 436.312 503.197 614.625 702.766 856.179 920.324 1001.34 1068.36>
LayerCount: 2
Fore
SplineSet
939 581 m 2,0,-1
 603 -3 l 2,1,2
 592 -22 592 -22 579 -23 c 0,3,4
 570 -23 570 -23 567 -17.5 c 128,-1,5
 564 -12 564 -12 562 4 c 2,6,-1
 524 521 l 1,7,-1
 223 -1 l 2,8,9
 212 -20 212 -20 204 -22 c 0,10,11
 202 -23 202 -23 199 -23 c 0,12,13
 189 -23 189 -23 186 -17 c 128,-1,14
 183 -11 183 -11 182 4 c 2,15,-1
 136 630 l 2,16,17
 135 646 135 646 132.5 652.5 c 128,-1,18
 130 659 130 659 119 663.5 c 128,-1,19
 108 668 108 668 82 668 c 0,20,21
 72 668 72 668 67.5 668.5 c 128,-1,22
 63 669 63 669 59.5 671.5 c 128,-1,23
 56 674 56 674 56 680 c 0,24,25
 56 699 56 699 75 698 c 0,26,27
 92 698 92 698 128 697 c 128,-1,28
 164 696 164 696 182 696 c 0,29,30
 204 696 204 696 246 698 c 0,31,32
 258 698 258 698 269 698 c 128,-1,33
 280 698 280 698 288 698 c 0,34,35
 300 698 300 698 308 698 c 0,36,37
 322 698 322 698 323 688 c 0,38,39
 323 668 323 668 301 668 c 0,40,41
 265 668 265 668 246.5 660 c 128,-1,42
 228 652 228 652 225.5 646 c 128,-1,43
 223 640 223 640 223 631 c 2,44,-1
 262 112 l 1,45,-1
 521 563 l 1,46,-1
 515 642 l 2,47,48
 513 657 513 657 503.5 662.5 c 128,-1,49
 494 668 494 668 461 668 c 0,50,51
 436 668 436 668 436 679 c 0,52,53
 436 699 436 699 456 698 c 0,54,55
 467 698 467 698 509 697 c 128,-1,56
 551 696 551 696 563 696 c 0,57,58
 584 696 584 696 626 698 c 0,59,60
 639 698 639 698 649.5 698 c 128,-1,61
 660 698 660 698 668 698 c 0,62,63
 680 698 680 698 688 698 c 0,64,65
 703 698 703 698 703 688 c 0,66,67
 703 674 703 674 697 671 c 128,-1,68
 691 668 691 668 676 668 c 0,69,70
 649 668 649 668 633 663 c 128,-1,71
 617 658 617 658 611 650 c 128,-1,72
 605 642 605 642 604 636.5 c 128,-1,73
 603 631 603 631 604 620 c 2,74,-1
 642 112 l 1,75,-1
 919 594 l 2,76,77
 932 618 932 618 932 628 c 0,78,79
 932 666 932 666 871 668 c 0,80,81
 856 668 856 668 856 680 c 0,82,83
 856 699 856 699 876 698 c 0,84,85
 892 698 892 698 928.5 697 c 128,-1,86
 965 696 965 696 982 696 c 0,87,88
 995 696 995 696 1022 698 c 0,89,90
 1042 699 1042 699 1054 699 c 0,91,92
 1058 698 1058 698 1061 698 c 0,93,94
 1073 698 1073 698 1073 688 c 0,95,96
 1073 675 1073 675 1068.5 672 c 128,-1,97
 1064 669 1064 669 1054 668 c 0,98,99
 1010 665 1010 665 986.5 643.5 c 128,-1,100
 963 622 963 622 939 581 c 2,0,-1
EndSplineSet
Validated: 3073
EndChar

StartChar: X
Encoding: 88 88 23
Width: 847
Flags: W
HStem: 0 32<33.158 119.313 221.004 269.763 470.234 540.177 666.9 747.809> 668 31<209.298 287.586 418.131 485.761 629.297 676.705 780.5 865.842>
LayerCount: 2
Fore
SplineSet
497 421 m 1,0,-1
 663 599 l 2,1,2
 682 621 682 621 682 636 c 0,3,4
 682 664 682 664 641 668 c 0,5,6
 629 670 629 670 629 679 c 0,7,8
 629 699 629 699 648 699 c 0,9,10
 666 699 666 699 704 697.5 c 128,-1,11
 742 696 742 696 762 696 c 0,12,13
 778 696 778 696 810.5 697.5 c 128,-1,14
 843 699 843 699 858 699 c 0,15,16
 871 699 871 699 871 688 c 0,17,18
 871 675 871 675 866 672 c 128,-1,19
 861 669 861 669 849 668 c 0,20,21
 777 665 777 665 719 615 c 0,22,23
 705 603 705 603 668.5 564 c 128,-1,24
 632 525 632 525 584.5 473.5 c 128,-1,25
 537 422 537 422 509 393 c 1,26,27
 515 377 515 377 641 77 c 0,28,29
 654 45 654 45 666.5 39 c 128,-1,30
 679 33 679 33 729 32 c 0,31,32
 747 32 747 32 748 19 c 0,33,34
 748 0 748 0 728 0 c 0,35,36
 715 0 715 0 671 1.5 c 128,-1,37
 627 3 627 3 614 3 c 0,38,39
 600 3 600 3 550 1.5 c 128,-1,40
 500 0 500 0 485 0 c 128,-1,41
 470 0 470 0 470 12 c 0,42,43
 470 20 470 20 473 24.5 c 128,-1,44
 476 29 476 29 479.5 30 c 128,-1,45
 483 31 483 31 490 32 c 0,46,47
 508 34 508 34 523 39.5 c 128,-1,48
 538 45 538 45 544 51 c 128,-1,49
 550 57 550 57 550 61 c 1,50,-1
 545 76 l 1,51,-1
 441 321 l 1,52,-1
 349 220 l 1,53,-1
 245 110 l 2,54,55
 217 80 217 80 217 63 c 0,56,57
 217 35 217 35 258 32 c 1,58,59
 270 32 270 32 270 20 c 0,60,61
 270 0 270 0 251.5 0 c 128,-1,62
 233 0 233 0 195 1.5 c 128,-1,63
 157 3 157 3 137 3 c 0,64,65
 121 3 121 3 88.5 1.5 c 128,-1,66
 56 0 56 0 41 0 c 0,67,68
 28 0 28 0 28 11 c 0,69,70
 28 24 28 24 33 27.5 c 128,-1,71
 38 31 38 31 50 32 c 0,72,73
 137 37 137 37 201 105 c 1,74,-1
 214 117 l 1,75,-1
 430 349 l 1,76,-1
 309 635 l 2,77,78
 301 654 301 654 288 661 c 128,-1,79
 275 668 275 668 232 668 c 0,80,81
 208 668 208 668 209 679 c 0,82,83
 209 699 209 699 227 699 c 0,84,85
 239 699 239 699 284.5 697.5 c 128,-1,86
 330 696 330 696 342 696 c 0,87,88
 364 696 364 696 407.5 697.5 c 128,-1,89
 451 699 451 699 471 699 c 0,90,91
 486 699 486 699 486 687 c 0,92,93
 486 670 486 670 466 668 c 0,94,95
 447 666 447 666 432 659.5 c 128,-1,96
 417 653 417 653 411.5 647.5 c 128,-1,97
 406 642 406 642 406 638 c 1,98,99
 406 638 406 638 411 625 c 2,100,-1
 497 421 l 1,0,-1
EndSplineSet
Validated: 19457
EndChar

StartChar: Y
Encoding: 89 89 24
Width: 593
Flags: W
HStem: 0 32<94.2269 194.582 298.675 387.752> 668 31<36.2979 123.841 232.261 308.326 561.242 611.515 698.644 775.358>
LayerCount: 2
Fore
SplineSet
611 583 m 1,0,-1
 357 291 l 2,1,2
 349 282 349 282 343 259 c 2,3,-1
 307 115 l 2,4,5
 293 55 293 55 293 50 c 0,6,7
 293 41 293 41 298.5 38.5 c 128,-1,8
 304 36 304 36 321 34 c 128,-1,9
 338 32 338 32 359 32 c 0,10,11
 376 32 376 32 382 30.5 c 128,-1,12
 388 29 388 29 388 20 c 0,13,14
 388 0 388 0 369 0 c 0,15,16
 355 0 355 0 303.5 1.5 c 128,-1,17
 252 3 252 3 237.5 3 c 128,-1,18
 223 3 223 3 173 1.5 c 128,-1,19
 123 0 123 0 108.5 0 c 128,-1,20
 94 0 94 0 94 11 c 0,21,22
 94 25 94 25 99.5 28.5 c 128,-1,23
 105 32 105 32 122 32 c 0,24,25
 182 33 182 33 195 41 c 128,-1,26
 208 49 208 49 218 92 c 0,27,28
 222 106 222 106 243 191 c 128,-1,29
 264 276 264 276 264 279 c 0,30,31
 264 284 264 284 260 296 c 2,32,-1
 134 633 l 2,33,34
 129 648 129 648 124 653.5 c 128,-1,35
 119 659 119 659 104 663.5 c 128,-1,36
 89 668 89 668 59 668 c 0,37,38
 35 668 35 668 36 679 c 0,39,40
 36 699 36 699 55 699 c 0,41,42
 67 699 67 699 112.5 697.5 c 128,-1,43
 158 696 158 696 170 696 c 0,44,45
 184 696 184 696 234.5 697.5 c 128,-1,46
 285 699 285 699 299 699 c 0,47,48
 314 699 314 699 314 688 c 0,49,50
 314 674 314 674 308.5 671 c 128,-1,51
 303 668 303 668 290 668 c 0,52,53
 230 668 230 668 229 643 c 0,54,55
 229 640 229 640 236 626 c 2,56,-1
 348 322 l 1,57,-1
 586 595 l 1,58,59
 613 629 613 629 613 643 c 0,60,61
 613 644 613 644 613 644 c 0,62,63
 613 668 613 668 577 668 c 0,64,65
 562 668 562 668 561 680 c 0,66,67
 561 699 561 699 581 699 c 0,68,69
 597 699 597 699 631.5 697.5 c 128,-1,70
 666 696 666 696 683 696 c 0,71,72
 697 696 697 696 725.5 697.5 c 128,-1,73
 754 699 754 699 767 699 c 128,-1,74
 780 699 780 699 780 687 c 128,-1,75
 780 675 780 675 775.5 672 c 128,-1,76
 771 669 771 669 760 668 c 0,77,78
 727 666 727 666 699.5 653 c 128,-1,79
 672 640 672 640 659.5 629 c 128,-1,80
 647 618 647 618 626 597 c 2,81,-1
 611 583 l 1,0,-1
EndSplineSet
Validated: 3073
EndChar

StartChar: Z
Encoding: 90 90 25
Width: 698
Flags: W
HStem: 0 35<165 463.711> 469 21G<198 207> 668 31<358.23 636>
VStem: 191 26<469.003 514.227> 613.5 25.5<227.059 272.997>
LayerCount: 2
Fore
SplineSet
737 675 m 1,0,-1
 165 35 l 1,1,-1
 340 35 l 2,2,3
 405 35 405 35 449 47.5 c 128,-1,4
 493 60 493 60 523 90 c 128,-1,5
 553 120 553 120 571.5 155 c 128,-1,6
 590 190 590 190 608 248 c 0,7,8
 612 261 612 261 613.5 264.5 c 128,-1,9
 615 268 615 268 618 270.5 c 128,-1,10
 621 273 621 273 626 273 c 0,11,12
 639 273 639 273 639 262 c 0,13,14
 639 260 639 260 638.5 257.5 c 128,-1,15
 638 255 638 255 636.5 251.5 c 128,-1,16
 635 248 635 248 635 247 c 2,17,-1
 562 20 l 2,18,19
 557 6 557 6 553 3 c 128,-1,20
 549 0 549 0 530 0 c 2,21,-1
 85 0 l 2,22,23
 77 0 77 0 73.5 0 c 128,-1,24
 70 0 70 0 65.5 1 c 128,-1,25
 61 2 61 2 60 4 c 128,-1,26
 59 6 59 6 59 9 c 0,27,28
 59 11 59 11 61 19 c 2,29,-1
 63 28 l 1,30,-1
 636 668 l 1,31,-1
 469 668 l 2,32,33
 356 668 356 668 302.5 623 c 128,-1,34
 249 578 249 578 217 479 c 1,35,36
 210 469 210 469 204 469 c 0,37,38
 192 469 192 469 191 480 c 0,39,40
 191 487 191 487 195 495 c 2,41,-1
 251 679 l 2,42,43
 256 693 256 693 260 696 c 128,-1,44
 264 699 264 699 283 699 c 2,45,-1
 715 699 l 2,46,47
 724 699 724 699 727.5 699 c 128,-1,48
 731 699 731 699 734.5 698 c 128,-1,49
 738 697 738 697 739 695 c 128,-1,50
 740 693 740 693 740 690 c 128,-1,51
 740 687 740 687 737 675 c 1,0,-1
EndSplineSet
Validated: 19457
EndChar

StartChar: a
Encoding: 97 97 26
Width: 540
Flags: W
HStem: -11 22<144.739 222.713 383.665 434.821> 430 23<248.529 325.876>
VStem: 41 73<58.2097 231.616>
LayerCount: 2
Fore
SplineSet
382 387 m 1,0,1
 384 405 384 405 396 418.5 c 128,-1,2
 408 432 408 432 425 432 c 0,3,4
 455 432 455 432 455 404 c 0,5,6
 455 398 455 398 447 370 c 2,7,-1
 411 226 l 1,8,9
 396 161 396 161 388 134 c 0,10,11
 375 81 375 81 375 58 c 0,12,13
 375 11 375 11 406 11 c 0,14,15
 435 11 435 11 451 43.5 c 128,-1,16
 467 76 467 76 483 138 c 0,17,18
 485 149 485 149 487.5 153 c 128,-1,19
 490 157 490 157 498 157 c 0,20,21
 510 157 510 157 510 146 c 0,22,23
 510 144 510 144 506.5 128 c 128,-1,24
 503 112 503 112 495 86.5 c 128,-1,25
 487 61 487 61 479 45 c 0,26,27
 450 -11 450 -11 403 -11 c 0,28,29
 367 -11 367 -11 341.5 11 c 128,-1,30
 316 33 316 33 310 66 c 1,31,32
 245 -11 245 -11 177 -11 c 0,33,34
 117 -11 117 -11 79 35 c 128,-1,35
 41 81 41 81 41 153 c 0,36,37
 41 265 41 265 119.5 359 c 128,-1,38
 198 453 198 453 288 453 c 0,39,40
 350 453 350 453 382 387 c 1,0,1
315 122 m 2,41,-1
 367 323 l 2,42,43
 370 338 370 338 370 340 c 0,44,45
 370 345 370 345 366 357.5 c 128,-1,46
 362 370 362 370 354 387 c 128,-1,47
 346 404 346 404 328.5 417 c 128,-1,48
 311 430 311 430 289 430 c 0,49,50
 258 430 258 430 226 403.5 c 128,-1,51
 194 377 194 377 170 332 c 0,52,53
 152 296 152 296 133 220.5 c 128,-1,54
 114 145 114 145 114 108 c 128,-1,55
 114 71 114 71 129 41 c 128,-1,56
 144 11 144 11 179 11 c 0,57,58
 236 11 236 11 295 84 c 0,59,60
 309 100 309 100 315 122 c 2,41,-1
EndSplineSet
Validated: 19457
EndChar

StartChar: b
Encoding: 98 98 27
Width: 439
Flags: W
HStem: -11 22<145.329 217.263> 430 22<243.141 318.562>
VStem: 48 62<53.851 244.533> 351 74<206.997 382.816>
LayerCount: 2
Fore
SplineSet
245 699 m 1,0,-1
 169 391 l 1,1,2
 228 452 228 452 288 452 c 0,3,4
 289 452 289 452 290 453 c 0,5,6
 350 453 350 453 387 406 c 0,7,8
 425 359 425 359 425 289 c 0,9,10
 425 178 425 178 347 83.5 c 128,-1,11
 269 -11 269 -11 178 -11 c 0,12,13
 121 -11 121 -11 84.5 33 c 128,-1,14
 48 77 48 77 48 150 c 0,15,16
 48 185 48 185 65 253 c 2,17,-1
 148 587 l 2,18,19
 162 647 162 647 163 650 c 0,20,21
 163 656 163 656 161 659.5 c 128,-1,22
 159 663 159 663 147 665.5 c 128,-1,23
 135 668 135 668 112 668 c 0,24,25
 103 668 103 668 98.5 668.5 c 128,-1,26
 94 669 94 669 90.5 671.5 c 128,-1,27
 87 674 87 674 87 680 c 0,28,29
 87 698 87 698 106 700 c 0,30,31
 114 701 114 701 143 704 c 128,-1,32
 172 707 172 707 196.5 709 c 128,-1,33
 221 711 221 711 231 711 c 0,34,35
 245 710 245 710 245 699 c 1,0,-1
148 312 m 2,36,-1
 126 218 l 2,37,38
 110 153 110 153 110 115 c 0,39,40
 110 62 110 62 130 36.5 c 128,-1,41
 150 11 150 11 178 11 c 0,42,43
 209 11 209 11 241.5 39 c 128,-1,44
 274 67 274 67 299 117 c 0,45,46
 314 150 314 150 332.5 221 c 128,-1,47
 351 292 351 292 351 334 c 0,48,49
 351 381 351 381 333 405.5 c 128,-1,50
 315 430 315 430 287 430 c 0,51,52
 226 430 226 430 164 348 c 0,53,54
 155 338 155 338 148 312 c 2,36,-1
EndSplineSet
Validated: 3073
EndChar

StartChar: c
Encoding: 99 99 28
Width: 442
Flags: W
HStem: -11 22<164.823 278.682> 299 90<360.473 405.803> 430 23<267.606 374.165>
VStem: 42 76<70.2471 247.775> 342 95<317.565 374.467>
LayerCount: 2
Fore
SplineSet
406 389 m 1,0,1
 384 430 384 430 317 430 c 0,2,3
 276 430 276 430 237 401.5 c 128,-1,4
 198 373 198 373 173 328 c 0,5,6
 148 284 148 284 133 221.5 c 128,-1,7
 118 159 118 159 118 123 c 0,8,9
 118 74 118 74 141 42.5 c 128,-1,10
 164 11 164 11 210 11 c 0,11,12
 222 11 222 11 237.5 13 c 128,-1,13
 253 15 253 15 285 23.5 c 128,-1,14
 317 32 317 32 352 55 c 128,-1,15
 387 78 387 78 415 113 c 0,16,17
 422 123 422 123 428 123 c 0,18,19
 432 123 432 123 436 119 c 128,-1,20
 440 115 440 115 440 110 c 0,21,22
 440 106 440 106 430.5 93 c 128,-1,23
 421 80 421 80 400.5 62 c 128,-1,24
 380 44 380 44 353.5 27.5 c 128,-1,25
 327 11 327 11 288 0 c 128,-1,26
 249 -11 249 -11 208 -11 c 0,27,28
 131 -11 131 -11 86.5 39 c 128,-1,29
 42 89 42 89 42 162 c 0,30,31
 42 271 42 271 127.5 362 c 128,-1,32
 213 453 213 453 316 453 c 0,33,34
 370 453 370 453 403.5 427.5 c 128,-1,35
 437 402 437 402 437 365 c 0,36,37
 437 335 437 335 420 317 c 128,-1,38
 403 299 403 299 380 299 c 0,39,40
 365 299 365 299 353.5 308 c 128,-1,41
 342 317 342 317 342 335 c 0,42,43
 342 358 342 358 360 375 c 0,44,45
 375 389 375 389 406 389 c 1,0,1
EndSplineSet
Validated: 19457
EndChar

StartChar: d
Encoding: 100 100 29
Width: 532
Flags: W
HStem: -11 22<144.739 222.713 383.665 434.821> 430 23<248.529 325.876> 668 43<395 515>
VStem: 41 73<58.2097 231.616>
LayerCount: 2
Fore
SplineSet
528 699 m 1,0,-1
 381 108 l 2,1,2
 375 82 375 82 375 58 c 0,3,4
 375 11 375 11 406 11 c 0,5,6
 435 11 435 11 451 43.5 c 128,-1,7
 467 76 467 76 483 138 c 0,8,9
 485 149 485 149 487.5 153 c 128,-1,10
 490 157 490 157 498 157 c 0,11,12
 510 157 510 157 510 146 c 0,13,14
 510 144 510 144 506.5 128 c 128,-1,15
 503 112 503 112 495 86.5 c 128,-1,16
 487 61 487 61 479 45 c 0,17,18
 450 -11 450 -11 403 -11 c 0,19,20
 367 -11 367 -11 341.5 11 c 128,-1,21
 316 33 316 33 310 66 c 1,22,23
 245 -11 245 -11 177 -11 c 0,24,25
 117 -11 117 -11 79 35 c 128,-1,26
 41 81 41 81 41 153 c 0,27,28
 41 265 41 265 119.5 359 c 128,-1,29
 198 453 198 453 288 453 c 0,30,31
 350 453 350 453 382 387 c 1,32,-1
 443 630 l 1,33,-1
 446 650 l 2,34,35
 446 656 446 656 444 659.5 c 128,-1,36
 442 663 442 663 430.5 665.5 c 128,-1,37
 419 668 419 668 395 668 c 0,38,39
 386 668 386 668 382 668.5 c 128,-1,40
 378 669 378 669 374.5 671.5 c 128,-1,41
 371 674 371 674 371 680 c 0,42,43
 371 697 371 697 385 699 c 0,44,45
 481 710 481 710 515 711 c 0,46,47
 528 710 528 710 528 699 c 1,0,-1
315 122 m 2,48,-1
 367 323 l 2,49,50
 370 338 370 338 370 340 c 0,51,52
 370 345 370 345 366 357.5 c 128,-1,53
 362 370 362 370 354 387 c 128,-1,54
 346 404 346 404 328.5 417 c 128,-1,55
 311 430 311 430 289 430 c 0,56,57
 258 430 258 430 226 403.5 c 128,-1,58
 194 377 194 377 170 332 c 0,59,60
 152 296 152 296 133 220.5 c 128,-1,61
 114 145 114 145 114 108 c 128,-1,62
 114 71 114 71 129 41 c 128,-1,63
 144 11 144 11 179 11 c 0,64,65
 236 11 236 11 295 84 c 0,66,67
 309 100 309 100 315 122 c 2,48,-1
EndSplineSet
Validated: 19457
EndChar

StartChar: e
Encoding: 101 101 30
Width: 476
Flags: W
HStem: -11 22<168.45 278.682> 237 22<143 293.633> 430 23<266.337 361.409>
VStem: 47 74<73.4005 235.896> 391 34<314.052 408.299>
LayerCount: 2
Fore
SplineSet
191 237 m 2,0,-1
 137 237 l 1,1,2
 121 170 121 170 121 130 c 0,3,4
 121 106 121 106 125.5 83 c 128,-1,5
 130 60 130 60 151.5 35.5 c 128,-1,6
 173 11 173 11 210 11 c 0,7,8
 222 11 222 11 237.5 13 c 128,-1,9
 253 15 253 15 285 23.5 c 128,-1,10
 317 32 317 32 352 55 c 128,-1,11
 387 78 387 78 415 113 c 0,12,13
 422 123 422 123 428 123 c 0,14,15
 432 123 432 123 436 119 c 128,-1,16
 440 115 440 115 440 110 c 0,17,18
 440 106 440 106 430.5 93 c 128,-1,19
 421 80 421 80 400.5 62 c 128,-1,20
 380 44 380 44 353.5 27.5 c 128,-1,21
 327 11 327 11 288 0 c 128,-1,22
 249 -11 249 -11 208 -11 c 0,23,24
 134 -11 134 -11 90.5 41.5 c 128,-1,25
 47 94 47 94 47 174 c 0,26,27
 47 258 47 258 91 324 c 128,-1,28
 135 390 135 390 195.5 421.5 c 128,-1,29
 256 453 256 453 315 453 c 0,30,31
 365 453 365 453 395 427 c 128,-1,32
 425 401 425 401 425 366 c 0,33,34
 425 358 425 358 423 347 c 128,-1,35
 421 336 421 336 414.5 319.5 c 128,-1,36
 408 303 408 303 390.5 286.5 c 128,-1,37
 373 270 373 270 348 260 c 0,38,39
 291 237 291 237 191 237 c 2,0,-1
143 259 m 1,40,-1
 185 259 l 2,41,42
 391 259 391 259 391 366 c 0,43,44
 391 394 391 394 370.5 412 c 128,-1,45
 350 430 350 430 315 430 c 0,46,47
 301 430 301 430 282 424.5 c 128,-1,48
 263 419 263 419 235.5 403.5 c 128,-1,49
 208 388 208 388 182.5 350.5 c 128,-1,50
 157 313 157 313 143 259 c 1,40,-1
EndSplineSet
Validated: 19457
EndChar

StartChar: f
Encoding: 102 102 31
Width: 500
Flags: W
HStem: -210 23<100.344 170.943> -169 91<92.6113 135.105> 410 31<214.61 307 382 494.754> 590 91<484.41 525.485> 699 23<444.328 517.673>
VStem: 54 94<-148.438 -95.0184> 471 94<607.018 659.953>
LayerCount: 2
Fore
SplineSet
376 410 m 1,0,-1
 314 85 l 2,1,2
 313 76 313 76 306.5 45.5 c 128,-1,3
 300 15 300 15 285.5 -33.5 c 128,-1,4
 271 -82 271 -82 257 -111 c 0,5,6
 239 -149 239 -149 209 -179.5 c 128,-1,7
 179 -210 179 -210 141 -210 c 0,8,9
 107 -210 107 -210 80.5 -191 c 128,-1,10
 54 -172 54 -172 54 -139 c 0,11,12
 54 -111 54 -111 71.5 -94.5 c 128,-1,13
 89 -78 89 -78 111 -78 c 0,14,15
 126 -78 126 -78 137 -87.5 c 128,-1,16
 148 -97 148 -97 148 -114 c 128,-1,17
 148 -131 148 -131 135.5 -149 c 128,-1,18
 123 -167 123 -167 92 -169 c 1,19,20
 111 -187 111 -187 141 -187 c 0,21,22
 160 -187 160 -187 174 -173 c 128,-1,23
 188 -159 188 -159 199 -126.5 c 128,-1,24
 210 -94 210 -94 215.5 -69 c 128,-1,25
 221 -44 221 -44 230 5 c 2,26,-1
 307 410 l 1,27,-1
 240 410 l 2,28,29
 228 410 228 410 223 410.5 c 128,-1,30
 218 411 218 411 214.5 413.5 c 128,-1,31
 211 416 211 416 211 422 c 0,32,33
 211 435 211 435 217.5 438 c 128,-1,34
 224 441 224 441 242 441 c 2,35,-1
 312 441 l 1,36,37
 337 569 337 569 346 602 c 0,38,39
 366 670 366 670 403 696 c 128,-1,40
 440 722 440 722 476 722 c 0,41,42
 511 722 511 722 538 703 c 128,-1,43
 565 684 565 684 565 651 c 0,44,45
 565 623 565 623 547.5 606.5 c 128,-1,46
 530 590 530 590 509 590 c 0,47,48
 494 590 494 590 482.5 599.5 c 128,-1,49
 471 609 471 609 471 626 c 128,-1,50
 471 643 471 643 484 660.5 c 128,-1,51
 497 678 497 678 526 681 c 1,52,53
 507 699 507 699 476 699 c 0,54,55
 444 699 444 699 428 665 c 0,56,57
 421 651 421 651 403 558 c 2,58,-1
 382 441 l 1,59,-1
 467 441 l 2,60,61
 495 441 495 441 495 430 c 0,62,63
 495 416 495 416 488 413 c 128,-1,64
 481 410 481 410 464 410 c 2,65,-1
 376 410 l 1,0,-1
EndSplineSet
Validated: 19457
EndChar

StartChar: g
Encoding: 103 103 32
Width: 487
Flags: W
HStem: -210 23<68.6238 208.521> -177 89<68 99.6852> 0 23<178.185 260.026> 412 20G<449.5 470.5> 430 23<278.975 357.17>
VStem: 15 95<-167.05 -103.987> 75 72<68.0393 238.868>
LayerCount: 2
Fore
SplineSet
482 386 m 1,0,-1
 369 -69 l 2,1,2
 356 -122 356 -122 298 -166 c 128,-1,3
 240 -210 240 -210 152 -210 c 0,4,5
 79 -210 79 -210 47 -194.5 c 128,-1,6
 15 -179 15 -179 15 -147 c 0,7,8
 15 -119 15 -119 33 -103.5 c 128,-1,9
 51 -88 51 -88 70.5 -88 c 128,-1,10
 90 -88 90 -88 100 -99 c 128,-1,11
 110 -110 110 -110 110 -124 c 0,12,13
 110 -139 110 -139 99.5 -155 c 128,-1,14
 89 -171 89 -171 68 -177 c 1,15,16
 100 -187 100 -187 150 -187 c 0,17,18
 252 -187 252 -187 296 -79 c 2,19,-1
 297 -77 l 2,20,21
 297 -76 297 -76 300.5 -62.5 c 128,-1,22
 304 -49 304 -49 313 -15.5 c 128,-1,23
 322 18 322 18 331 58 c 1,24,-1
 330 59 l 1,25,26
 276 0 276 0 211 0 c 0,27,28
 154 0 154 0 114.5 44 c 128,-1,29
 75 88 75 88 75 162 c 0,30,31
 75 272 75 272 152 362.5 c 128,-1,32
 229 453 229 453 318 453 c 0,33,34
 348 453 348 453 373.5 435 c 128,-1,35
 399 417 399 417 414 388 c 1,36,37
 417 413 417 413 430 422.5 c 128,-1,38
 443 432 443 432 456 432 c 4,39,40
 485 432 485 432 485 406 c 0,41,42
 485 405 485 405 485 404 c 5,43,-1
 482 386 l 1,0,-1
349 131 m 1,44,-1
 398 327 l 2,45,46
 401 339 401 339 401 342 c 0,47,48
 401 349 401 349 395.5 367.5 c 128,-1,49
 390 386 390 386 369.5 408 c 128,-1,50
 349 430 349 430 319 430 c 0,51,52
 288 430 288 430 257 404.5 c 128,-1,53
 226 379 226 379 205 339 c 0,54,55
 185 301 185 301 166 228 c 128,-1,56
 147 155 147 155 147 117 c 0,57,58
 147 80 147 80 163 51.5 c 128,-1,59
 179 23 179 23 214 23 c 0,60,61
 254 23 254 23 297 59 c 0,62,63
 342 98 342 98 349 131 c 1,44,-1
EndSplineSet
Validated: 3073
EndChar

StartChar: h
Encoding: 104 104 33
Width: 589
Flags: W
HStem: -11 22<406.753 464.143> 430 23<307.38 397.104> 691 20G<275.5 287.5>
VStem: 341 61<14.5862 124.934> 418 65<248.119 414.479>
LayerCount: 2
Fore
SplineSet
294 699 m 1,0,-1
 214 374 l 1,1,2
 277 453 277 453 366 453 c 0,3,4
 422 453 422 453 452.5 423.5 c 128,-1,5
 483 394 483 394 483 343 c 0,6,7
 483 286 483 286 421 118 c 1,8,9
 403 73 403 73 402 45 c 0,10,11
 402 11 402 11 427 11 c 0,12,13
 465 11 465 11 491 49 c 128,-1,14
 517 87 517 87 531 138 c 0,15,16
 536 154 536 154 542 156 c 0,17,18
 544 157 544 157 547 157 c 0,19,20
 559 157 559 157 559 146 c 0,21,22
 559 140 559 140 551.5 117.5 c 128,-1,23
 544 95 544 95 529 65 c 128,-1,24
 514 35 514 35 486 12 c 128,-1,25
 458 -11 458 -11 425 -11 c 0,26,27
 389 -11 389 -11 365 13 c 128,-1,28
 341 37 341 37 341 73 c 0,29,30
 341 91 341 91 354 129 c 1,31,32
 417 291 417 291 418 358 c 0,33,34
 418 430 418 430 362 430 c 0,35,36
 313 430 313 430 264 394 c 1,37,38
 241 376 241 376 220 344 c 128,-1,39
 199 312 199 312 195 300 c 1,40,41
 191 275 191 275 183 254 c 1,42,43
 178 230 178 230 166 185 c 1,44,-1
 143 93 l 1,45,-1
 124 15 l 1,46,47
 120 4 120 4 109 -3.5 c 128,-1,48
 98 -11 98 -11 86 -11 c 0,49,50
 76 -11 76 -11 66 -4.5 c 128,-1,51
 56 2 56 2 56 17 c 0,52,53
 56 25 56 25 60 40 c 2,54,-1
 209 630 l 1,55,-1
 212 650 l 2,56,57
 212 656 212 656 210 659.5 c 128,-1,58
 208 663 208 663 196 665.5 c 128,-1,59
 184 668 184 668 161 668 c 0,60,61
 152 668 152 668 147.5 668.5 c 128,-1,62
 143 669 143 669 139.5 671.5 c 128,-1,63
 136 674 136 674 136 680 c 0,64,65
 136 698 136 698 156 700 c 0,66,67
 164 701 164 701 192.5 704 c 128,-1,68
 221 707 221 707 245.5 709 c 128,-1,69
 270 711 270 711 281 711 c 0,70,71
 294 710 294 710 294 699 c 1,0,-1
EndSplineSet
Validated: 19457
EndChar

StartChar: i
Encoding: 105 105 34
Width: 352
Flags: W
HStem: -11 22<148.064 204.71> 430 23<124.817 182.27> 586 91<210.103 279.117>
VStem: 82 61<14.416 126.257> 187 62<312.52 427.835> 198 93<598.517 664.897>
LayerCount: 2
Fore
SplineSet
291 640 m 0,0,1
 291 618 291 618 273 602 c 128,-1,2
 255 586 255 586 237 586 c 0,3,4
 220 586 220 586 209 596.5 c 128,-1,5
 198 607 198 607 198 623 c 0,6,7
 198 643 198 643 215 660 c 128,-1,8
 232 677 232 677 253 677 c 0,9,10
 270 677 270 677 280.5 666 c 128,-1,11
 291 655 291 655 291 640 c 0,0,1
213 255 m 2,12,-1
 173 147 l 2,13,14
 143 68 143 68 143 45 c 0,15,16
 143 11 143 11 168 11 c 0,17,18
 237 11 237 11 272 138 c 0,19,20
 277 154 277 154 283 156 c 0,21,22
 285 157 285 157 288 157 c 0,23,24
 300 157 300 157 300 146 c 0,25,26
 300 140 300 140 292.5 117 c 128,-1,27
 285 94 285 94 270 64.5 c 128,-1,28
 255 35 255 35 227 12 c 128,-1,29
 199 -11 199 -11 166 -11 c 0,30,31
 129 -11 129 -11 105.5 13 c 128,-1,32
 82 37 82 37 82 73 c 0,33,34
 82 93 82 93 105 155 c 0,35,36
 110 168 110 168 127.5 214 c 128,-1,37
 145 260 145 260 158.5 296 c 128,-1,38
 172 332 172 332 176 344 c 0,39,40
 187 373 187 373 187 397 c 0,41,42
 187 430 187 430 162 430 c 0,43,44
 95 430 95 430 58 303 c 0,45,46
 54 291 54 291 51.5 288 c 128,-1,47
 49 285 49 285 42 285 c 0,48,49
 30 285 30 285 30 295 c 0,50,51
 30 301 30 301 38 324 c 128,-1,52
 46 347 46 347 61 377 c 128,-1,53
 76 407 76 407 104 430 c 128,-1,54
 132 453 132 453 165 453 c 0,55,56
 203 453 203 453 226 428.5 c 128,-1,57
 249 404 249 404 249 369 c 0,58,59
 249 349 249 349 236 314 c 0,60,61
 218 267 218 267 213 255 c 2,12,-1
EndSplineSet
Validated: 19457
EndChar

StartChar: j
Encoding: 106 106 35
Width: 420
Flags: W
HStem: -210 23<35.5051 117.447> -178 90<35 69.3826> 430 23<229.805 295.369> 586 91<324.883 394.542>
VStem: -13 94<-166.672 -100.038> 112 30<288.096 331.002> 304 65<272.719 421.372> 313 94<598.863 664.609>
LayerCount: 2
Fore
SplineSet
407 640 m 0,0,1
 407 620 407 620 389.5 603 c 128,-1,2
 372 586 372 586 351 586 c 0,3,4
 334 586 334 586 323.5 596.5 c 128,-1,5
 313 607 313 607 313 623 c 0,6,7
 313 645 313 645 331 661 c 128,-1,8
 349 677 349 677 368 677 c 0,9,10
 385 677 385 677 396 666 c 128,-1,11
 407 655 407 655 407 640 c 0,0,1
201 -51 m 2,12,-1
 297 331 l 2,13,14
 304 362 304 362 304 383 c 0,15,16
 304 430 304 430 271 430 c 0,17,18
 232 430 232 430 198 393.5 c 128,-1,19
 164 357 164 357 142 305 c 0,20,21
 136 291 136 291 133.5 288 c 128,-1,22
 131 285 131 285 124 285 c 0,23,24
 112 285 112 285 112 295 c 0,25,26
 112 300 112 300 123 323.5 c 128,-1,27
 134 347 134 347 153 377 c 128,-1,28
 172 407 172 407 205.5 430 c 128,-1,29
 239 453 239 453 274 453 c 0,30,31
 314 453 314 453 341.5 427 c 128,-1,32
 369 401 369 401 369 358 c 0,33,34
 369 341 369 341 364 321 c 2,35,-1
 269 -54 l 2,36,37
 251 -126 251 -126 193.5 -168 c 128,-1,38
 136 -210 136 -210 77 -210 c 0,39,40
 38 -210 38 -210 12.5 -193 c 128,-1,41
 -13 -176 -13 -176 -13 -146 c 0,42,43
 -13 -120 -13 -120 4.5 -104 c 128,-1,44
 22 -88 22 -88 42 -88 c 0,45,46
 61 -88 61 -88 71 -99 c 128,-1,47
 81 -110 81 -110 81 -124 c 0,48,49
 81 -141 81 -141 68.5 -157 c 128,-1,50
 56 -173 56 -173 35 -178 c 1,51,52
 53 -187 53 -187 75 -187 c 0,53,54
 117 -187 117 -187 151.5 -148.5 c 128,-1,55
 186 -110 186 -110 201 -51 c 2,12,-1
EndSplineSet
Validated: 19457
EndChar

StartChar: k
Encoding: 107 107 36
Width: 532
Flags: W
HStem: -11 22<362.199 418.44> 326 91<437.499 482.918> 430 23<402.169 481.272>
VStem: 290 63<21.5128 147.109> 297 69<90.3472 198.87> 425 95<343.019 404.27> 475 27<98.8608 152.873>
LayerCount: 2
Fore
SplineSet
294 699 m 1,0,-1
 187 267 l 1,1,2
 231 284 231 284 301 362 c 0,3,4
 382 452 382 452 451 453 c 0,5,6
 484 453 484 453 502 433.5 c 128,-1,7
 520 414 520 414 520 388 c 0,8,9
 520 359 520 359 502.5 342.5 c 128,-1,10
 485 326 485 326 464 326 c 0,11,12
 445 326 445 326 435 336.5 c 128,-1,13
 425 347 425 347 425 361 c 0,14,15
 425 370 425 370 428.5 380.5 c 128,-1,16
 432 391 432 391 446.5 403.5 c 128,-1,17
 461 416 461 416 483 417 c 1,18,-1
 479 421 l 1,19,20
 471 427 471 427 458 429 c 0,21,22
 456 430 456 430 449 430 c 0,23,24
 414 430 414 430 379.5 405 c 128,-1,25
 345 380 345 380 302 332 c 1,26,27
 249 277 249 277 214 256 c 1,28,29
 366 237 366 237 366 148 c 0,30,31
 366 134 366 134 361 117 c 0,32,33
 353 84 353 84 353 59 c 0,34,35
 353 11 353 11 386 11 c 0,36,37
 418 11 418 11 438 43.5 c 128,-1,38
 458 76 458 76 475 138 c 1,39,40
 477 149 477 149 479.5 153 c 128,-1,41
 482 157 482 157 489 157 c 0,42,43
 501 157 501 157 502 146 c 0,44,45
 502 144 502 144 498.5 129.5 c 128,-1,46
 495 115 495 115 485.5 89 c 128,-1,47
 476 63 476 63 465 43 c 0,48,49
 432 -11 432 -11 384 -11 c 0,50,51
 343 -11 343 -11 316.5 17 c 128,-1,52
 290 45 290 45 290 90 c 0,53,54
 290 101 290 101 294 126 c 1,55,56
 297 136 297 136 297 147 c 0,57,58
 297 171 297 171 284 189 c 128,-1,59
 271 207 271 207 250 215.5 c 128,-1,60
 229 224 229 224 212 228.5 c 128,-1,61
 195 233 195 233 178 234 c 1,62,63
 127 21 127 21 121 10 c 0,64,65
 111 -11 111 -11 88 -11 c 0,66,67
 87 -11 87 -11 86 -11 c 0,68,69
 76 -11 76 -11 66 -4.5 c 128,-1,70
 56 2 56 2 56 17 c 0,71,72
 56 25 56 25 60 40 c 2,73,-1
 209 630 l 1,74,-1
 212 650 l 2,75,76
 212 656 212 656 210 659.5 c 128,-1,77
 208 663 208 663 196 665.5 c 128,-1,78
 184 668 184 668 161 668 c 0,79,80
 152 668 152 668 147.5 668.5 c 128,-1,81
 143 669 143 669 139.5 671.5 c 128,-1,82
 136 674 136 674 136 680 c 0,83,84
 136 698 136 698 156 700 c 0,85,86
 164 701 164 701 192.5 704 c 128,-1,87
 221 707 221 707 245.5 709 c 128,-1,88
 270 711 270 711 281 711 c 0,89,90
 294 710 294 710 294 699 c 1,0,-1
EndSplineSet
Validated: 3073
EndChar

StartChar: l
Encoding: 108 108 37
Width: 305
Flags: W
HStem: -11 22<119.562 169.338> 691 20G<246 257.5>
VStem: 45 66<20.7645 173.32>
LayerCount: 2
Fore
SplineSet
264 699 m 1,0,-1
 117 108 l 2,1,2
 111 84 111 84 111 58 c 0,3,4
 111 11 111 11 141 11 c 0,5,6
 169 11 169 11 186 44 c 128,-1,7
 203 77 203 77 219 138 c 0,8,9
 221 149 221 149 223.5 153 c 128,-1,10
 226 157 226 157 233 157 c 0,11,12
 245 157 245 157 246 146 c 0,13,14
 246 144 246 144 242.5 128.5 c 128,-1,15
 239 113 239 113 231 88 c 128,-1,16
 223 63 223 63 215 46 c 0,17,18
 188 -11 188 -11 138 -11 c 0,19,20
 100 -11 100 -11 72.5 15 c 128,-1,21
 45 41 45 41 45 83 c 0,22,23
 45 99 45 99 50 118 c 2,24,-1
 179 630 l 1,25,-1
 182 650 l 2,26,27
 182 655 182 655 180 658.5 c 128,-1,28
 178 662 178 662 166.5 665 c 128,-1,29
 155 668 155 668 132 668 c 0,30,31
 106 668 106 668 106 679 c 0,32,33
 106 698 106 698 126 700 c 0,34,35
 134 701 134 701 162.5 704 c 128,-1,36
 191 707 191 707 216 709 c 128,-1,37
 241 711 241 711 251 711 c 0,38,39
 264 710 264 710 264 699 c 1,0,-1
EndSplineSet
Validated: 19457
EndChar

StartChar: m
Encoding: 109 109 38
Width: 899
Flags: W
HStem: -11 22<716.672 773.143> 430 23<108.14 157.237 331.945 422.774 616.112 706.312>
VStem: 166 55<274.781 342.236> 366 67<-3.77979 102.047> 650 62<14.5862 128.783> 727 66<248.393 413.968>
LayerCount: 2
Fore
SplineSet
90 60 m 2,0,-1
 150 297 l 2,1,2
 166 363 166 363 166 383 c 0,3,4
 166 430 166 430 134 430 c 0,5,6
 88 430 88 430 59 308 c 0,7,8
 55 292 55 292 52 288.5 c 128,-1,9
 49 285 49 285 42 285 c 0,10,11
 30 285 30 285 30 295 c 0,12,13
 30 297 30 297 34 313.5 c 128,-1,14
 38 330 38 330 45.5 354 c 128,-1,15
 53 378 53 378 61 394 c 0,16,17
 90 452 90 452 137 453 c 0,18,19
 174 453 174 453 200.5 429.5 c 128,-1,20
 227 406 227 406 231 364 c 1,21,22
 297 453 297 453 391 453 c 0,23,24
 443 453 443 453 475 426 c 0,25,26
 504 401 504 401 508 353 c 1,27,28
 578 452 578 452 675 453 c 0,29,30
 731 453 731 453 762 423.5 c 128,-1,31
 793 394 793 394 793 343 c 0,32,33
 793 289 793 289 730 118 c 1,34,35
 712 73 712 73 712 45 c 0,36,37
 712 11 712 11 736 11 c 0,38,39
 774 11 774 11 800 49 c 128,-1,40
 826 87 826 87 841 138 c 0,41,42
 846 154 846 154 851 156 c 0,43,44
 853 157 853 157 856 157 c 0,45,46
 868 157 868 157 868 146 c 0,47,48
 868 140 868 140 860.5 117.5 c 128,-1,49
 853 95 853 95 838 65 c 128,-1,50
 823 35 823 35 795 12 c 128,-1,51
 767 -11 767 -11 734 -11 c 0,52,53
 698 -11 698 -11 674 13 c 128,-1,54
 650 37 650 37 650 73 c 0,55,56
 650 93 650 93 664 129 c 0,57,58
 727 297 727 297 727 358 c 0,59,60
 727 430 727 430 672 430 c 0,61,62
 633 430 633 430 599 411 c 128,-1,63
 565 392 565 392 545.5 366 c 128,-1,64
 526 340 526 340 515.5 321 c 128,-1,65
 505 302 505 302 503 294 c 0,66,67
 500 281 500 281 441 47 c 0,68,69
 436 25 436 25 433 16 c 128,-1,70
 430 7 430 7 420.5 -2 c 128,-1,71
 411 -11 411 -11 395 -11 c 0,72,73
 383 -11 383 -11 374.5 -4 c 128,-1,74
 366 3 366 3 366 16 c 0,75,76
 366 18 366 18 368.5 28.5 c 128,-1,77
 371 39 371 39 374 54 c 128,-1,78
 377 69 377 69 379 77 c 2,79,-1
 399 155 l 1,80,-1
 428 273 l 1,81,82
 443 330 443 330 443 358 c 0,83,84
 443 430 443 430 388 430 c 0,85,86
 354 430 354 430 324 415.5 c 128,-1,87
 294 401 294 401 273.5 378.5 c 128,-1,88
 253 356 253 356 241 339 c 128,-1,89
 229 322 229 322 221 305 c 0,90,91
 221 304 221 304 218.5 294.5 c 128,-1,92
 216 285 216 285 213 273.5 c 128,-1,93
 210 262 210 262 208 254 c 0,94,95
 203 230 203 230 190 185 c 1,96,-1
 168 93 l 2,97,98
 151 22 151 22 148 17 c 0,99,100
 138 -11 138 -11 113 -11 c 0,101,102
 112 -11 112 -11 111 -11 c 0,103,104
 99 -11 99 -11 90 -4 c 128,-1,105
 81 3 81 3 81 16 c 0,106,107
 81 18 81 18 82.5 26 c 128,-1,108
 84 34 84 34 86.5 44 c 128,-1,109
 89 54 89 54 90 60 c 2,0,-1
EndSplineSet
Validated: 3073
EndChar

StartChar: n
Encoding: 110 110 39
Width: 614
Flags: W
HStem: -11 22<432.753 489.176> 430 23<107.98 157.237 331.945 422.828>
VStem: 166 55<274.781 342.236> 367 61<14.5862 127.113> 443 66<247.854 413.107> 557 28<104.793 155.934>
LayerCount: 2
Fore
SplineSet
90 60 m 2,0,-1
 150 297 l 2,1,2
 166 363 166 363 166 383 c 0,3,4
 166 430 166 430 134 430 c 0,5,6
 88 430 88 430 59 308 c 0,7,8
 55 292 55 292 52 288.5 c 128,-1,9
 49 285 49 285 42 285 c 0,10,11
 30 285 30 285 30 295 c 0,12,13
 30 298 30 298 34 314.5 c 128,-1,14
 38 331 38 331 45.5 355 c 128,-1,15
 53 379 53 379 60 394 c 1,16,17
 69 410 69 410 74.5 418.5 c 128,-1,18
 80 427 80 427 98 440 c 128,-1,19
 116 453 116 453 137 453 c 0,20,21
 174 453 174 453 200.5 429.5 c 128,-1,22
 227 406 227 406 231 364 c 1,23,24
 297 453 297 453 391 453 c 0,25,26
 446 453 446 453 477.5 423.5 c 128,-1,27
 509 394 509 394 509 343 c 128,-1,28
 509 292 509 292 446 118 c 1,29,30
 428 73 428 73 428 45 c 0,31,32
 428 11 428 11 453 11 c 0,33,34
 521 11 521 11 557 138 c 0,35,36
 562 154 562 154 567 156 c 0,37,38
 569 157 569 157 572 157 c 0,39,40
 584 157 584 157 585 146 c 0,41,42
 585 140 585 140 577 117.5 c 128,-1,43
 569 95 569 95 554.5 65 c 128,-1,44
 540 35 540 35 511.5 12 c 128,-1,45
 483 -11 483 -11 451 -11 c 0,46,47
 415 -11 415 -11 391 13 c 128,-1,48
 367 37 367 37 367 73 c 0,49,50
 367 93 367 93 377 120 c 0,51,52
 443 296 443 296 443 356 c 0,53,54
 443 357 443 357 443 358 c 0,55,56
 443 430 443 430 388 430 c 0,57,58
 354 430 354 430 324 415.5 c 128,-1,59
 294 401 294 401 273.5 378.5 c 128,-1,60
 253 356 253 356 241 339 c 128,-1,61
 229 322 229 322 221 305 c 0,62,63
 221 304 221 304 218.5 294.5 c 128,-1,64
 216 285 216 285 213 273.5 c 128,-1,65
 210 262 210 262 208 254 c 0,66,67
 203 230 203 230 190 185 c 1,68,-1
 168 93 l 2,69,70
 151 22 151 22 148 17 c 0,71,72
 138 -11 138 -11 113 -11 c 0,73,74
 112 -11 112 -11 111 -11 c 0,75,76
 99 -11 99 -11 90 -4 c 128,-1,77
 81 3 81 3 81 16 c 0,78,79
 81 18 81 18 82.5 26 c 128,-1,80
 84 34 84 34 86.5 44 c 128,-1,81
 89 54 89 54 90 60 c 2,0,-1
EndSplineSet
Validated: 3073
EndChar

StartChar: o
Encoding: 111 111 40
Width: 495
Flags: W
HStem: -11 22<165.766 254.216> 430 23<267.921 359.66>
VStem: 42 76<70.0039 247.554> 406 74<195.276 373.281>
LayerCount: 2
Fore
SplineSet
480 280 m 0,0,1
 480 168 480 168 394.5 78.5 c 128,-1,2
 309 -11 309 -11 206 -11 c 0,3,4
 134 -11 134 -11 88 37.5 c 128,-1,5
 42 86 42 86 42 162 c 0,6,7
 42 271 42 271 127.5 362 c 128,-1,8
 213 453 213 453 316 453 c 0,9,10
 387 453 387 453 433.5 405.5 c 128,-1,11
 480 358 480 358 480 280 c 0,0,1
207 11 m 0,12,13
 243 11 243 11 281 36 c 128,-1,14
 319 61 319 61 346 105 c 0,15,16
 373 150 373 150 389.5 217 c 128,-1,17
 406 284 406 284 406 319 c 0,18,19
 406 367 406 367 382 398.5 c 128,-1,20
 358 430 358 430 315 430 c 0,21,22
 285 430 285 430 248 409 c 128,-1,23
 211 388 211 388 177 336 c 0,24,25
 153 299 153 299 135.5 231 c 128,-1,26
 118 163 118 163 118 123 c 0,27,28
 118 68 118 68 144 39.5 c 128,-1,29
 170 11 170 11 207 11 c 0,12,13
EndSplineSet
Validated: 19457
EndChar

StartChar: p
Encoding: 112 112 41
Width: 515
Flags: W
HStem: -199 32<-27.3263 31.2286 112.549 185.617> -11 22<216.234 293.678> 430 23<110.14 159.45 318.95 396.998>
VStem: 428 74<206.727 382.176>
LayerCount: 2
Fore
SplineSet
46 -125 m 2,0,-1
 161 331 l 2,1,2
 168 362 168 362 168 383 c 0,3,4
 168 430 168 430 136 430 c 0,5,6
 90 430 90 430 61 308 c 0,7,8
 57 292 57 292 54 288.5 c 128,-1,9
 51 285 51 285 44 285 c 0,10,11
 32 285 32 285 32 295 c 0,12,13
 32 297 32 297 36 313.5 c 128,-1,14
 40 330 40 330 47.5 354.5 c 128,-1,15
 55 379 55 379 63 394 c 0,16,17
 92 452 92 452 139 453 c 0,18,19
 171 453 171 453 197.5 434 c 128,-1,20
 224 415 224 415 231 376 c 1,21,22
 296 453 296 453 366 453 c 0,23,24
 424 453 424 453 463 406.5 c 128,-1,25
 502 360 502 360 502 289 c 0,26,27
 502 177 502 177 423.5 83 c 128,-1,28
 345 -11 345 -11 255 -11 c 0,29,30
 190 -11 190 -11 161 54 c 1,31,32
 153 25 153 25 132 -58.5 c 128,-1,33
 111 -142 111 -142 111 -151 c 0,34,35
 111 -157 111 -157 112.5 -159.5 c 128,-1,36
 114 -162 114 -162 125.5 -164.5 c 128,-1,37
 137 -167 137 -167 161.5 -167 c 128,-1,38
 186 -167 186 -167 186 -178 c 0,39,40
 186 -198 186 -198 168 -199 c 0,41,42
 152 -199 152 -199 118 -197.5 c 128,-1,43
 84 -196 84 -196 67 -196 c 0,44,45
 53 -196 53 -196 23.5 -197.5 c 128,-1,46
 -6 -199 -6 -199 -19.5 -199 c 128,-1,47
 -33 -199 -33 -199 -33 -186 c 128,-1,48
 -33 -173 -33 -173 -27.5 -170 c 128,-1,49
 -22 -167 -22 -167 -9 -167 c 0,50,51
 23 -167 23 -167 31.5 -160 c 128,-1,52
 40 -153 40 -153 46 -125 c 2,0,-1
226 319 m 2,53,-1
 176 119 l 2,54,55
 173 107 173 107 173 102 c 128,-1,56
 173 97 173 97 176.5 85 c 128,-1,57
 180 73 180 73 188 55 c 128,-1,58
 196 37 196 37 213 24 c 128,-1,59
 230 11 230 11 254 11 c 0,60,61
 285 11 285 11 318 38.5 c 128,-1,62
 351 66 351 66 376 117 c 0,63,64
 391 150 391 150 409.5 221 c 128,-1,65
 428 292 428 292 428 334 c 0,66,67
 428 379 428 379 410.5 404.5 c 128,-1,68
 393 430 393 430 362 430 c 0,69,70
 323 430 323 430 280 391 c 1,71,72
 235 354 235 354 226 319 c 2,53,-1
EndSplineSet
Validated: 19457
EndChar

StartChar: q
Encoding: 113 113 42
Width: 456
Flags: W
HStem: -199 32<154.219 232.102 319.065 392.629> -11 22<144.846 222.468> 430 23<248.282 324.611>
VStem: 41 73<57.8968 230.383>
LayerCount: 2
Fore
SplineSet
463 441 m 1,0,-1
 322 -128 l 2,1,2
 318 -146 318 -146 317 -151 c 0,3,4
 317 -157 317 -157 319 -159.5 c 128,-1,5
 321 -162 321 -162 332 -164.5 c 128,-1,6
 343 -167 343 -167 367 -167 c 0,7,8
 394 -167 394 -167 393 -178 c 0,9,10
 393 -198 393 -198 375 -199 c 0,11,12
 359 -199 359 -199 323 -197.5 c 128,-1,13
 287 -196 287 -196 269.5 -196 c 128,-1,14
 252 -196 252 -196 217.5 -197.5 c 128,-1,15
 183 -199 183 -199 167 -199 c 0,16,17
 154 -199 154 -199 154 -187 c 0,18,19
 154 -178 154 -178 157.5 -173 c 128,-1,20
 161 -168 161 -168 165 -168 c 128,-1,21
 169 -168 169 -168 177 -167 c 0,22,23
 220 -166 220 -166 232.5 -160.5 c 128,-1,24
 245 -155 245 -155 251 -133 c 0,25,26
 252 -129 252 -129 261.5 -91.5 c 128,-1,27
 271 -54 271 -54 282.5 -8.5 c 128,-1,28
 294 37 294 37 297 50 c 1,29,30
 236 -11 236 -11 176 -11 c 0,31,32
 119 -11 119 -11 80 34 c 128,-1,33
 41 79 41 79 41 153 c 0,34,35
 41 264 41 264 119 358.5 c 128,-1,36
 197 453 197 453 288 453 c 0,37,38
 354 453 354 453 383 381 c 1,39,40
 396 404 396 404 420 428 c 128,-1,41
 444 452 444 452 453 452 c 0,42,43
 463 451 463 451 463 441 c 1,0,-1
179 11 m 0,44,45
 217 11 217 11 255.5 44 c 128,-1,46
 294 77 294 77 309 105 c 0,47,48
 311 108 311 108 340 221.5 c 128,-1,49
 369 335 369 335 369 340 c 128,-1,50
 369 345 369 345 365 357.5 c 128,-1,51
 361 370 361 370 353 387 c 128,-1,52
 345 404 345 404 327.5 417 c 128,-1,53
 310 430 310 430 288 430 c 0,54,55
 255 430 255 430 219 398.5 c 128,-1,56
 183 367 183 367 161 311 c 0,57,58
 147 275 147 275 130.5 208 c 128,-1,59
 114 141 114 141 114 108 c 0,60,61
 114 98 114 98 116 85 c 128,-1,62
 118 72 118 72 123.5 53.5 c 128,-1,63
 129 35 129 35 143 23 c 128,-1,64
 157 11 157 11 179 11 c 0,44,45
EndSplineSet
Validated: 19457
EndChar

StartChar: r
Encoding: 114 114 43
Width: 461
Flags: W
HStem: -11 21G<105 125.5> 326 92<365.081 403.899> 430 23<108.14 157.471 313.822 402.918>
VStem: 81 67<-3.55566 100.734> 351 95<343.018 403.46>
LayerCount: 2
Fore
SplineSet
90 60 m 2,0,-1
 150 297 l 2,1,2
 166 363 166 363 166 383 c 0,3,4
 166 430 166 430 134 430 c 0,5,6
 88 430 88 430 59 308 c 0,7,8
 55 292 55 292 52 288.5 c 128,-1,9
 49 285 49 285 42 285 c 0,10,11
 30 285 30 285 30 295 c 0,12,13
 30 297 30 297 34 313.5 c 128,-1,14
 38 330 38 330 45.5 354.5 c 128,-1,15
 53 379 53 379 61 394 c 0,16,17
 90 452 90 452 137 453 c 0,18,19
 173 453 173 453 198.5 431 c 128,-1,20
 224 409 224 409 230 374 c 1,21,22
 283 453 283 453 361 453 c 0,23,24
 399 453 399 453 422.5 433.5 c 128,-1,25
 446 414 446 414 446 386 c 0,26,27
 446 359 446 359 429 342.5 c 128,-1,28
 412 326 412 326 390 326 c 0,29,30
 371 326 371 326 361 336.5 c 128,-1,31
 351 347 351 347 351 361 c 0,32,33
 351 381 351 381 366.5 397.5 c 128,-1,34
 382 414 382 414 404 418 c 1,35,-1
 402 419 l 2,36,37
 400 420 400 420 396.5 422 c 128,-1,38
 393 424 393 424 388 426 c 128,-1,39
 383 428 383 428 376 429 c 128,-1,40
 369 430 369 430 361 430 c 0,41,42
 318 430 318 430 280 396 c 0,43,44
 264 381 264 381 245 353 c 128,-1,45
 226 325 226 325 222 312 c 1,46,47
 219 296 219 296 205 241.5 c 128,-1,48
 191 187 191 187 189 179 c 0,49,50
 186 164 186 164 168 92 c 128,-1,51
 150 20 150 20 148 17 c 0,52,53
 138 -11 138 -11 113 -11 c 0,54,55
 112 -11 112 -11 111 -11 c 0,56,57
 99 -11 99 -11 90 -4 c 128,-1,58
 81 3 81 3 81 16 c 0,59,60
 81 18 81 18 82.5 26 c 128,-1,61
 84 34 84 34 86.5 44 c 128,-1,62
 89 54 89 54 90 60 c 2,0,-1
EndSplineSet
Validated: 3073
EndChar

StartChar: s
Encoding: 115 115 44
Width: 479
Flags: W
HStem: -11 22<134.315 268.116> 65 91<84.3984 137.171> 307 76<359.767 399.616> 430 23<248.064 366.47>
VStem: 53 95<74.6528 137.434> 135 59<294.961 373.88> 347 59<86.1364 173.309> 351 79<322.472 373.844>
LayerCount: 2
Fore
SplineSet
400 383 m 1,0,1
 382 430 382 430 308 430 c 0,2,3
 249 430 249 430 221.5 399.5 c 128,-1,4
 194 369 194 369 194 338 c 0,5,6
 194 325 194 325 199 314.5 c 128,-1,7
 204 304 204 304 209.5 299 c 128,-1,8
 215 294 215 294 229 288.5 c 128,-1,9
 243 283 243 283 248.5 282 c 128,-1,10
 254 281 254 281 271 276 c 0,11,12
 301 270 301 270 313.5 267 c 128,-1,13
 326 264 326 264 343 255.5 c 128,-1,14
 360 247 360 247 374 233 c 0,15,16
 406 201 406 201 406 159 c 0,17,18
 406 139 406 139 396 112.5 c 128,-1,19
 386 86 386 86 365 57 c 128,-1,20
 344 28 344 28 301 8.5 c 128,-1,21
 258 -11 258 -11 200 -11 c 0,22,23
 134 -11 134 -11 93.5 16.5 c 128,-1,24
 53 44 53 44 53 88 c 0,25,26
 53 120 53 120 70.5 138 c 128,-1,27
 88 156 88 156 111 156 c 0,28,29
 127 156 127 156 137.5 146.5 c 128,-1,30
 148 137 148 137 148 120 c 0,31,32
 148 96 148 96 130 78 c 0,33,34
 117 65 117 65 99 65 c 0,35,36
 98 65 98 65 96 65 c 0,37,38
 90 65 90 65 84 66 c 1,39,40
 108 12 108 12 201 11 c 0,41,42
 244 11 244 11 275 24.5 c 128,-1,43
 306 38 306 38 320.5 58 c 128,-1,44
 335 78 335 78 341 94.5 c 128,-1,45
 347 111 347 111 347 124 c 0,46,47
 347 144 347 144 339 158 c 128,-1,48
 331 172 331 172 313 180 c 128,-1,49
 295 188 295 188 280.5 192.5 c 128,-1,50
 266 197 266 197 241 202 c 0,51,52
 136 224 136 224 135 303 c 0,53,54
 135 322 135 322 144 346 c 128,-1,55
 153 370 153 370 170.5 395 c 128,-1,56
 188 420 188 420 224.5 436.5 c 128,-1,57
 261 453 261 453 308 453 c 0,58,59
 364 453 364 453 397 427 c 128,-1,60
 430 401 430 401 430 365 c 0,61,62
 430 337 430 337 415.5 322 c 128,-1,63
 401 307 401 307 383 307 c 0,64,65
 368 307 368 307 359.5 316 c 128,-1,66
 351 325 351 325 351 337 c 0,67,68
 351 354 351 354 365.5 368 c 128,-1,69
 380 382 380 382 400 383 c 1,0,1
EndSplineSet
Validated: 3073
EndChar

StartChar: t
Encoding: 116 116 45
Width: 369
Flags: W
HStem: -11 22<137.924 203.863> 410 31<27.6096 142 219 337.789>
VStem: 65 64<18.9585 169.277>
LayerCount: 2
Fore
SplineSet
211 410 m 1,0,-1
 135 108 l 2,1,2
 129 82 129 82 129 58 c 0,3,4
 129 11 129 11 161 11 c 0,5,6
 240 11 240 11 294 142 c 0,7,8
 300 156 300 156 309 157 c 0,9,10
 321 157 321 157 322 146 c 0,11,12
 322 143 322 143 315 127 c 128,-1,13
 308 111 308 111 294 87 c 128,-1,14
 280 63 280 63 261.5 41 c 128,-1,15
 243 19 243 19 215.5 4 c 128,-1,16
 188 -11 188 -11 159 -11 c 0,17,18
 117 -11 117 -11 91 15 c 128,-1,19
 65 41 65 41 65 83 c 0,20,21
 65 102 65 102 142 410 c 1,22,-1
 52 410 l 2,23,24
 40 410 40 410 35.5 410.5 c 128,-1,25
 31 411 31 411 27.5 413.5 c 128,-1,26
 24 416 24 416 24 422 c 0,27,28
 24 435 24 435 30.5 438 c 128,-1,29
 37 441 37 441 54 441 c 2,30,-1
 151 441 l 1,31,-1
 190 604 l 2,32,33
 199 641 199 641 231 641 c 0,34,35
 261 641 261 641 261 613 c 0,36,37
 261 607 261 607 219 441 c 1,38,-1
 309 441 l 2,39,40
 325 441 325 441 331.5 439.5 c 128,-1,41
 338 438 338 438 338 430 c 0,42,43
 338 416 338 416 332 413 c 128,-1,44
 326 410 326 410 307 410 c 2,45,-1
 211 410 l 1,0,-1
EndSplineSet
Validated: 19457
EndChar

StartChar: u
Encoding: 117 117 46
Width: 585
Flags: W
HStem: -11 22<202.612 285.093 430.069 478.973> 421 20G<456 479> 430 23<124.853 182.27>
VStem: 111 65<33.1262 206.881> 187 62<312.269 427.803>
LayerCount: 2
Fore
SplineSet
358 57 m 1,0,1
 306 -11 306 -11 239 -11 c 0,2,3
 238 -11 238 -11 237 -11 c 0,4,5
 187 -11 187 -11 149 17.5 c 128,-1,6
 111 46 111 46 111 112 c 0,7,8
 111 168 111 168 170 327 c 0,9,10
 187 371 187 371 187 396 c 0,11,12
 187 430 187 430 162 430 c 0,13,14
 95 430 95 430 58 303 c 0,15,16
 54 291 54 291 51.5 288 c 128,-1,17
 49 285 49 285 42 285 c 0,18,19
 30 285 30 285 30 295 c 0,20,21
 30 301 30 301 37.5 324 c 128,-1,22
 45 347 45 347 60 377 c 128,-1,23
 75 407 75 407 103 430 c 128,-1,24
 131 453 131 453 165 453 c 0,25,26
 203 453 203 453 226 428.5 c 128,-1,27
 249 404 249 404 249 369 c 0,28,29
 249 349 249 349 231 304 c 0,30,31
 176 158 176 158 176 95 c 0,32,33
 176 11 176 11 240 11 c 0,34,35
 274 11 274 11 302.5 32.5 c 128,-1,36
 331 54 331 54 342.5 72.5 c 128,-1,37
 354 91 354 91 356 97 c 0,38,39
 379 198 379 198 433 406 c 1,40,41
 441 441 441 441 471 441 c 0,42,43
 472 441 472 441 473 441 c 0,44,45
 485 441 485 441 494 434 c 128,-1,46
 503 427 503 427 503 414 c 0,47,48
 503 411 503 411 500.5 399.5 c 128,-1,49
 498 388 498 388 493.5 370.5 c 128,-1,50
 489 353 489 353 487 345 c 0,51,52
 473 293 473 293 470 275 c 1,53,-1
 441 165 l 1,54,55
 421 76 421 76 421 58 c 0,56,57
 421 11 421 11 453 11 c 0,58,59
 473 11 473 11 489 33 c 128,-1,60
 505 55 505 55 512.5 78 c 128,-1,61
 520 101 520 101 529 138 c 0,62,63
 531 149 531 149 534 153 c 128,-1,64
 537 157 537 157 544 157 c 0,65,66
 556 157 556 157 556 146 c 0,67,68
 556 144 556 144 552.5 128 c 128,-1,69
 549 112 549 112 541.5 86.5 c 128,-1,70
 534 61 534 61 525 45 c 0,71,72
 497 -11 497 -11 450 -11 c 0,73,74
 417 -11 417 -11 391.5 7 c 128,-1,75
 366 25 366 25 358 57 c 1,0,1
EndSplineSet
Validated: 3073
EndChar

StartChar: v
Encoding: 118 118 47
Width: 495
Flags: W
HStem: -11 22<209.399 296.519> 430 23<124.817 182.27>
VStem: 112 65<36.3987 205.52> 187 62<311.917 427.835> 435 44<257.85 400>
LayerCount: 2
Fore
SplineSet
479 381 m 0,0,1
 479 354 479 354 466.5 296 c 128,-1,2
 454 238 454 238 429 166 c 128,-1,3
 404 94 404 94 356 41.5 c 128,-1,4
 308 -11 308 -11 249 -11 c 0,5,6
 227 -11 227 -11 206.5 -6.5 c 128,-1,7
 186 -2 186 -2 163 10.5 c 128,-1,8
 140 23 140 23 126 50 c 128,-1,9
 112 77 112 77 112 116 c 0,10,11
 112 172 112 172 170 326 c 0,12,13
 187 371 187 371 187 397 c 0,14,15
 187 430 187 430 162 430 c 0,16,17
 95 430 95 430 58 303 c 0,18,19
 54 291 54 291 51.5 288 c 128,-1,20
 49 285 49 285 42 285 c 0,21,22
 30 285 30 285 30 295 c 0,23,24
 30 301 30 301 38 324 c 128,-1,25
 46 347 46 347 61 377 c 128,-1,26
 76 407 76 407 104 430 c 128,-1,27
 132 453 132 453 165 453 c 0,28,29
 203 453 203 453 226 428.5 c 128,-1,30
 249 404 249 404 249 369 c 0,31,32
 249 347 249 347 237 317 c 1,33,34
 178 158 178 158 177 100 c 0,35,36
 177 11 177 11 253 11 c 0,37,38
 295 11 295 11 332 48 c 128,-1,39
 369 85 369 85 390 134.5 c 128,-1,40
 411 184 411 184 423 226.5 c 128,-1,41
 435 269 435 269 435 289 c 0,42,43
 435 340 435 340 400 373 c 0,44,45
 384 389 384 389 384 403 c 0,46,47
 384 420 384 420 400 436.5 c 128,-1,48
 416 453 416 453 434 453 c 0,49,50
 451 453 451 453 465 436 c 128,-1,51
 479 419 479 419 479 381 c 0,0,1
EndSplineSet
Validated: 19457
EndChar

StartChar: w
Encoding: 119 119 48
Width: 732
Flags: W
HStem: -11 22<214.56 296.824 451.884 539.24> 421 20G<444 465> 430 23<124.853 182.076>
VStem: 112 66<40.0472 213.167> 187 62<314.307 426.554> 353 66<68.1593 220.493> 664 44<255.109 400>
LayerCount: 2
Fore
SplineSet
473 347 m 2,0,-1
 430 175 l 1,1,2
 419 135 419 135 419 100 c 0,3,4
 419 11 419 11 495 11 c 0,5,6
 564 11 564 11 607 101 c 0,7,8
 626 140 626 140 645 201 c 128,-1,9
 664 262 664 262 664 289 c 0,10,11
 664 339 664 339 627 376 c 1,12,13
 612 389 612 389 611 403 c 0,14,15
 611 420 611 420 627.5 436.5 c 128,-1,16
 644 453 644 453 663 453 c 0,17,18
 679 453 679 453 693.5 436 c 128,-1,19
 708 419 708 419 708 381 c 128,-1,20
 708 343 708 343 687 258 c 128,-1,21
 666 173 666 173 640 115 c 0,22,23
 586 -11 586 -11 492 -11 c 0,24,25
 393 -11 393 -11 364 60 c 1,26,27
 324 -11 324 -11 259 -11 c 0,28,29
 258 -11 258 -11 257 -11 c 0,30,31
 194 -11 194 -11 153 20.5 c 128,-1,32
 112 52 112 52 112 118 c 0,33,34
 112 171 112 171 169 325 c 1,35,36
 187 370 187 370 187 396 c 0,37,38
 187 430 187 430 162 430 c 0,39,40
 95 430 95 430 58 303 c 0,41,42
 54 291 54 291 51.5 288 c 128,-1,43
 49 285 49 285 42 285 c 0,44,45
 30 285 30 285 30 295 c 0,46,47
 30 301 30 301 37.5 324 c 128,-1,48
 45 347 45 347 60 377 c 128,-1,49
 75 407 75 407 103 430 c 128,-1,50
 131 453 131 453 165 453 c 0,51,52
 202 453 202 453 225.5 428 c 128,-1,53
 249 403 249 403 249 369 c 0,54,55
 249 351 249 351 231 303 c 0,56,57
 178 164 178 164 178 104 c 0,58,59
 178 11 178 11 260 11 c 0,60,61
 317 11 317 11 354 97 c 1,62,63
 353 102 353 102 353 116 c 0,64,65
 353 144 353 144 362 183 c 0,66,67
 365 193 365 193 379.5 250 c 128,-1,68
 394 307 394 307 407 358.5 c 128,-1,69
 420 410 420 410 421 413 c 0,70,71
 431 441 431 441 457 441 c 0,72,73
 458 441 458 441 459 441 c 0,74,75
 471 441 471 441 479.5 434 c 128,-1,76
 488 427 488 427 488 414 c 0,77,78
 488 411 488 411 485.5 400 c 128,-1,79
 483 389 483 389 479 372 c 128,-1,80
 475 355 475 355 473 347 c 2,0,-1
EndSplineSet
Validated: 3073
EndChar

StartChar: x
Encoding: 120 120 49
Width: 584
Flags: W
HStem: -11 22<81.8125 164.458 312.247 388.491> 25 91<76 111.625> 430 23<180.047 257.436 403.501 492.103>
VStem: 30 94<36.6909 97.9513> 61 26<285.003 329.738> 445 95<341.987 403.668>
LayerCount: 2
Fore
SplineSet
342 309 m 1,0,-1
 307 169 l 2,1,2
 290 99 290 99 290 79 c 0,3,4
 290 50 290 50 304 30.5 c 128,-1,5
 318 11 318 11 346 11 c 0,6,7
 380 11 380 11 420 42 c 128,-1,8
 460 73 460 73 482 145 c 0,9,10
 485 156 485 156 496 157 c 0,11,12
 508 157 508 157 508 146 c 128,-1,13
 508 135 508 135 496.5 110.5 c 128,-1,14
 485 86 485 86 465.5 58.5 c 128,-1,15
 446 31 446 31 413.5 10 c 128,-1,16
 381 -11 381 -11 344 -11 c 0,17,18
 301 -11 301 -11 272.5 12 c 128,-1,19
 244 35 244 35 233 67 c 1,20,21
 230 60 230 60 224 51 c 128,-1,22
 218 42 218 42 204 26 c 128,-1,23
 190 10 190 10 170 -0.5 c 128,-1,24
 150 -11 150 -11 126 -11 c 0,25,26
 88 -11 88 -11 59 6.5 c 128,-1,27
 30 24 30 24 30 56 c 0,28,29
 30 81 30 81 46 98.5 c 128,-1,30
 62 116 62 116 86 116 c 0,31,32
 100 116 100 116 112 107 c 128,-1,33
 124 98 124 98 124 80 c 0,34,35
 124 60 124 60 110 44.5 c 128,-1,36
 96 29 96 29 76 25 c 1,37,38
 98 12 98 12 127 11 c 0,39,40
 160 11 160 11 186 40.5 c 128,-1,41
 212 70 212 70 224 118 c 0,42,43
 279 327 279 327 280 361 c 0,44,45
 280 400 280 400 262.5 415 c 128,-1,46
 245 430 245 430 224 430 c 0,47,48
 189 430 189 430 150 399.5 c 128,-1,49
 111 369 111 369 87 296 c 1,50,51
 85 285 85 285 74 285 c 0,52,53
 62 285 62 285 61 295 c 0,54,55
 61 306 61 306 72.5 330.5 c 128,-1,56
 84 355 84 355 103.5 383 c 128,-1,57
 123 411 123 411 156 432 c 128,-1,58
 189 453 189 453 226 453 c 0,59,60
 307 453 307 453 337 375 c 1,61,62
 378 453 378 453 444 453 c 0,63,64
 479 453 479 453 509.5 437 c 128,-1,65
 540 421 540 421 540 385 c 0,66,67
 540 357 540 357 522 341.5 c 128,-1,68
 504 326 504 326 484.5 326 c 128,-1,69
 465 326 465 326 455 336.5 c 128,-1,70
 445 347 445 347 445 361 c 0,71,72
 445 379 445 379 459 396 c 128,-1,73
 473 413 473 413 495 417 c 1,74,75
 473 430 473 430 443 430 c 0,76,77
 370 430 370 430 342 309 c 1,0,-1
EndSplineSet
Validated: 19457
EndChar

StartChar: y
Encoding: 121 121 50
Width: 501
Flags: W
HStem: -210 23<109.56 210.716> -144 90<82.4541 125.559> -11 22<202.174 286.52> 421 20G<459 478> 430 23<124.853 182.27>
VStem: 51 95<-131.436 -71.0199> 111 65<32.7147 210.502> 187 62<311.699 427.835> 436 66<335.016 433.78>
LayerCount: 2
Fore
SplineSet
498 390 m 2,0,-1
 399 -1 l 2,1,2
 377 -88 377 -88 308 -149 c 128,-1,3
 239 -210 239 -210 160 -210 c 0,4,5
 113 -210 113 -210 82 -185 c 128,-1,6
 51 -160 51 -160 51 -121 c 0,7,8
 51 -87 51 -87 69 -70.5 c 128,-1,9
 87 -54 87 -54 109 -54 c 0,10,11
 146 -54 146 -54 146 -88 c 0,12,13
 146 -89 146 -89 146 -90 c 0,14,15
 146 -114 146 -114 126 -132 c 0,16,17
 112 -144 112 -144 82 -144 c 1,18,19
 100 -187 100 -187 160 -187 c 0,20,21
 223 -187 223 -187 272 -123 c 0,22,23
 313 -69 313 -69 339 35 c 1,24,25
 293 -11 293 -11 236 -11 c 0,26,27
 184 -11 184 -11 147.5 18 c 128,-1,28
 111 47 111 47 111 111 c 0,29,30
 111 168 111 168 170 326 c 0,31,32
 187 373 187 373 187 397 c 0,33,34
 187 430 187 430 162 430 c 0,35,36
 95 430 95 430 58 303 c 0,37,38
 54 291 54 291 51.5 288 c 128,-1,39
 49 285 49 285 42 285 c 0,40,41
 30 285 30 285 30 295 c 0,42,43
 30 301 30 301 37.5 324 c 128,-1,44
 45 347 45 347 60 377 c 128,-1,45
 75 407 75 407 103 430 c 128,-1,46
 131 453 131 453 165 453 c 0,47,48
 203 453 203 453 226 428.5 c 128,-1,49
 249 404 249 404 249 369 c 0,50,51
 249 347 249 347 228 295 c 0,52,53
 176 160 176 160 176 94 c 0,54,55
 176 11 176 11 240 11 c 0,56,57
 284 11 284 11 317 44 c 128,-1,58
 350 77 350 77 355 98 c 2,59,-1
 401 283 l 1,60,61
 408 317 408 317 422 365 c 1,62,63
 432 409 432 409 436 420 c 1,64,65
 448 441 448 441 470 441 c 0,66,67
 471 441 471 441 472 441 c 0,68,69
 484 441 484 441 493 434 c 128,-1,70
 502 427 502 427 502 414 c 0,71,72
 502 404 502 404 498 390 c 2,0,-1
EndSplineSet
Validated: 3073
EndChar

StartChar: z
Encoding: 122 122 51
Width: 476
Flags: W
HStem: -11 68<234.175 356.373> 66 22<136.295 192.138> 353 23<344.015 382.935> 384 69<188.775 302.404>
VStem: 128 26<325.043 357>
LayerCount: 2
Fore
SplineSet
136 85 m 1,0,1
 145 88 145 88 164 88 c 0,2,3
 191 88 191 88 236 71 c 1,4,5
 276 58 276 58 296 57 c 0,6,7
 315 57 315 57 337 64.5 c 128,-1,8
 359 72 359 72 383.5 92.5 c 128,-1,9
 408 113 408 113 419 143 c 1,10,11
 425 156 425 156 433 157 c 0,12,13
 445 157 445 157 445 146 c 0,14,15
 445 112 445 112 397.5 50.5 c 128,-1,16
 350 -11 350 -11 285 -11 c 0,17,18
 250 -11 250 -11 219 27 c 1,19,20
 199 51 199 51 187.5 58.5 c 128,-1,21
 176 66 176 66 160 66 c 0,22,23
 115 66 115 66 73 2 c 1,24,25
 66 -11 66 -11 56 -11 c 0,26,27
 44 -11 44 -11 44 -1 c 0,28,29
 44 3 44 3 55.5 21 c 128,-1,30
 67 39 67 39 92.5 70 c 128,-1,31
 118 101 118 101 150 133 c 1,32,-1
 242 219 l 1,33,34
 343 305 343 305 384 353 c 1,35,36
 346 353 346 353 305 369 c 0,37,38
 261 384 261 384 241 384 c 0,39,40
 173 384 173 384 154 336 c 0,41,42
 150 325 150 325 140 325 c 0,43,44
 128 325 128 325 128 336 c 0,45,46
 128 362 128 362 165 407.5 c 128,-1,47
 202 453 202 453 252 453 c 0,48,49
 275 453 275 453 289.5 442 c 128,-1,50
 304 431 304 431 323 409 c 0,51,52
 331 399 331 399 334.5 395.5 c 128,-1,53
 338 392 338 392 345 386 c 128,-1,54
 352 380 352 380 359 378 c 128,-1,55
 366 376 366 376 375 376 c 0,56,57
 411 376 411 376 452 441 c 0,58,59
 458 452 458 452 467 453 c 0,60,61
 478 453 478 453 478 442 c 0,62,63
 478 438 478 438 469.5 424 c 128,-1,64
 461 410 461 410 431.5 373.5 c 128,-1,65
 402 337 402 337 358 294 c 0,66,67
 342 277 342 277 317 254 c 0,68,69
 290 231 290 231 274 217 c 2,70,-1
 258 202 l 2,71,72
 191 144 191 144 136 85 c 1,0,1
EndSplineSet
Validated: 19457
EndChar

StartChar: Alpha
Encoding: 913 913 52
Width: 788
Flags: W
HStem: 0 32<38.1436 117.748 202.75 258.908 480.242 570.773 680.805 757.906> 237 31<310 555>
LayerCount: 2
Fore
SplineSet
186 120 m 2,0,-1
 548 713 l 2,1,2
 560 733 560 733 577 733 c 0,3,4
 589 733 589 733 592 728.5 c 128,-1,5
 595 724 595 724 597 706 c 2,6,-1
 669 69 l 2,7,8
 671 45 671 45 680.5 38.5 c 128,-1,9
 690 32 690 32 734 32 c 0,10,11
 758 32 758 32 758 18 c 0,12,13
 758 0 758 0 738 0 c 0,14,15
 714 0 714 0 682 2 c 0,16,17
 657 3 657 3 622 3 c 0,18,19
 615 3 615 3 593 2.5 c 128,-1,20
 571 2 571 2 560 2 c 0,21,22
 550 2 550 2 527.5 1 c 128,-1,23
 505 0 505 0 496 0 c 0,24,25
 481 0 481 0 480 13 c 0,26,27
 480 31 480 31 504 32 c 0,28,29
 578 32 578 32 578 65 c 0,30,31
 578 66 578 66 576 79 c 128,-1,32
 574 92 574 92 571.5 113.5 c 128,-1,33
 569 135 569 135 567 153 c 0,34,35
 566 164 566 164 563 194 c 128,-1,36
 560 224 560 224 558 237 c 1,37,-1
 291 237 l 1,38,-1
 210 104 l 2,39,40
 196 80 196 80 196 66 c 0,41,42
 196 37 196 37 244 32 c 1,43,44
 259 32 259 32 259 18 c 0,45,46
 259 0 259 0 240 0 c 0,47,48
 229 0 229 0 190 1.5 c 128,-1,49
 151 3 151 3 139 3 c 0,50,51
 129 3 129 3 95 1.5 c 128,-1,52
 61 0 61 0 52 0 c 0,53,54
 38 0 38 0 38 13 c 0,55,56
 38 29 38 29 50 32 c 0,57,58
 70 34 70 34 82 36 c 128,-1,59
 94 38 94 38 113.5 46 c 128,-1,60
 133 54 133 54 151 72.5 c 128,-1,61
 169 91 169 91 186 120 c 2,0,-1
310 268 m 1,62,-1
 555 268 l 1,63,-1
 517 606 l 1,64,-1
 310 268 l 1,62,-1
EndSplineSet
Validated: 19457
EndChar

StartChar: Beta
Encoding: 914 914 53
Width: 812
Flags: W
HStem: 0 32<52.1252 146.068 244.003 506.906> 351 26<327 560.854> 668 31<218.61 303.842 403.74 648.158>
VStem: 640 97<144.921 292.77> 697 95<483.58 626.919>
LayerCount: 2
Fore
SplineSet
167 78 m 2,0,-1
 305 630 l 2,1,2
 309 645 309 645 309 650 c 0,3,4
 309 658 309 658 304 661 c 128,-1,5
 299 664 299 664 285 666 c 0,6,7
 269 668 269 668 246 668 c 0,8,9
 233 668 233 668 227.5 668.5 c 128,-1,10
 222 669 222 669 218.5 672 c 128,-1,11
 215 675 215 675 215 681 c 0,12,13
 215 693 215 693 222 696 c 128,-1,14
 229 699 229 699 246 699 c 2,15,-1
 596 699 l 2,16,17
 685 699 685 699 738.5 658.5 c 128,-1,18
 792 618 792 618 792 557 c 0,19,20
 792 490 792 490 729 436.5 c 128,-1,21
 666 383 666 383 575 366 c 1,22,23
 650 358 650 358 693.5 317 c 128,-1,24
 737 276 737 276 737 220 c 0,25,26
 737 141 737 141 652.5 70.5 c 128,-1,27
 568 0 568 0 450 0 c 2,28,-1
 77 0 l 2,29,30
 66 0 66 0 61 0.5 c 128,-1,31
 56 1 56 1 52 4 c 128,-1,32
 48 7 48 7 48 13 c 0,33,34
 48 25 48 25 54.5 28.5 c 128,-1,35
 61 32 61 32 79 32 c 0,36,37
 133 32 133 32 146.5 40 c 128,-1,38
 160 48 160 48 167 78 c 2,0,-1
327 377 m 1,39,-1
 486 377 l 2,40,41
 571 377 571 377 634 434.5 c 128,-1,42
 697 492 697 492 697 561 c 0,43,44
 697 574 697 574 693.5 589 c 128,-1,45
 690 604 690 604 680 623.5 c 128,-1,46
 670 643 670 643 644 655.5 c 128,-1,47
 618 668 618 668 582 668 c 2,48,-1
 443 668 l 2,49,50
 411 668 411 668 403.5 661.5 c 128,-1,51
 396 655 396 655 389 628 c 2,52,-1
 327 377 l 1,39,-1
278 32 m 2,53,-1
 424 32 l 2,54,55
 514 32 514 32 577 92.5 c 128,-1,56
 640 153 640 153 640 230 c 0,57,58
 640 295 640 295 603 323 c 128,-1,59
 566 351 566 351 512 351 c 2,60,-1
 319 351 l 1,61,-1
 249 66 l 2,62,63
 244 48 244 48 244 42 c 0,64,65
 244 34 244 34 257 33 c 0,66,67
 262 32 262 32 278 32 c 2,53,-1
EndSplineSet
Validated: 19457
EndChar

StartChar: Gamma
Encoding: 915 915 54
Width: 703
Flags: W
HStem: 0 32<45.1318 143.068 255.676 364.359> 466 21G<711 721> 665 31<215.125 303.968 405.225 666.308>
VStem: 703 28<469.094 548.747>
LayerCount: 2
Fore
SplineSet
391 624 m 2,0,-1
 254 77 l 2,1,2
 250 62 250 62 250 53 c 0,3,4
 250 43 250 43 255.5 39.5 c 128,-1,5
 261 36 261 36 284 34 c 0,6,7
 309 32 309 32 337 32 c 0,8,9
 350 32 350 32 355 31.5 c 128,-1,10
 360 31 360 31 364.5 28 c 128,-1,11
 369 25 369 25 369 18 c 0,12,13
 369 0 369 0 347 0 c 0,14,15
 335 0 335 0 308.5 1 c 128,-1,16
 282 2 282 2 269 2 c 128,-1,17
 256 2 256 2 231 2.5 c 128,-1,18
 206 3 206 3 197 3 c 0,19,20
 139 3 139 3 130 2 c 0,21,22
 110 0 110 0 60 0 c 0,23,24
 45 0 45 0 45 13 c 0,25,26
 45 25 45 25 51.5 28.5 c 128,-1,27
 58 32 58 32 76 32 c 0,28,29
 130 32 130 32 143.5 40 c 128,-1,30
 157 48 157 48 164 78 c 2,31,-1
 300 623 l 2,32,33
 305 641 305 641 305 646 c 128,-1,34
 305 651 305 651 304 653.5 c 128,-1,35
 303 656 303 656 298 659 c 128,-1,36
 293 662 293 662 282 663 c 0,37,38
 266 665 266 665 243 665 c 0,39,40
 230 665 230 665 224.5 665.5 c 128,-1,41
 219 666 219 666 215 669 c 128,-1,42
 211 672 211 672 211 678 c 0,43,44
 211 690 211 690 217.5 693 c 128,-1,45
 224 696 224 696 242 696 c 2,46,-1
 725 696 l 2,47,48
 742 696 742 696 748.5 694 c 128,-1,49
 755 692 755 692 755 682 c 1,50,-1
 733 492 l 2,51,52
 732 481 732 481 731 476.5 c 128,-1,53
 730 472 730 472 727 469 c 128,-1,54
 724 466 724 466 718 466 c 0,55,56
 704 466 704 466 703 481 c 0,57,58
 703 486 703 486 706 496 c 1,59,60
 710 543 710 543 710 556 c 0,61,62
 710 617 710 617 680.5 641 c 128,-1,63
 651 665 651 665 568 665 c 2,64,-1
 445 665 l 2,65,66
 412 665 412 665 405 659 c 128,-1,67
 398 653 398 653 391 624 c 2,0,-1
EndSplineSet
Validated: 19457
EndChar

StartChar: Delta
Encoding: 916 916 55
Width: 876
Flags: W
HStem: 0 77<138 712>
LayerCount: 2
Fore
SplineSet
645 709 m 2,0,-1
 825 27 l 2,1,2
 828 15 828 15 828 11 c 0,3,4
 828 3 828 3 822 1.5 c 128,-1,5
 816 0 816 0 800 0 c 2,6,-1
 76 0 l 2,7,8
 60 0 60 0 56 1 c 128,-1,9
 52 2 52 2 52 7 c 0,10,11
 52 11 52 11 61 23 c 2,12,-1
 589 714 l 2,13,14
 603 733 603 733 621 733 c 0,15,16
 633 733 633 733 637 728.5 c 128,-1,17
 641 724 641 724 645 709 c 2,0,-1
564 636 m 1,18,-1
 138 77 l 1,19,-1
 712 77 l 1,20,-1
 564 636 l 1,18,-1
EndSplineSet
Validated: 19457
EndChar

StartChar: Epsilon
Encoding: 917 917 56
Width: 808
Flags: W
HStem: 0 32<49.1252 143.068 247.003 552.856> 346 32<330 495.944> 466 21G<755 765> 665 31<215.125 303.968 398.652 704.081>
VStem: 504 28.5<226.031 276.276> 567.5 24.5<453.922 497.986> 713 35<208.852 260.387> 750 27<469.094 536.633>
LayerCount: 2
Fore
SplineSet
322 346 m 1,0,-1
 252 66 l 2,1,2
 247 48 247 48 247 42 c 0,3,4
 247 34 247 34 260 33 c 0,5,6
 264 32 264 32 281 32 c 2,7,-1
 437 32 l 2,8,9
 487 32 487 32 525 40.5 c 128,-1,10
 563 49 563 49 589 63 c 128,-1,11
 615 77 615 77 637.5 105 c 128,-1,12
 660 133 660 133 675.5 161.5 c 128,-1,13
 691 190 691 190 713 240 c 0,14,15
 721 257 721 257 724 260.5 c 128,-1,16
 727 264 727 264 733 264 c 0,17,18
 747 264 747 264 748 251 c 0,19,20
 748 243 748 243 648 19 c 0,21,22
 642 6 642 6 638 3 c 0,23,24
 635 0 635 0 614 0 c 2,25,-1
 74 0 l 2,26,27
 63 0 63 0 58 0.5 c 128,-1,28
 53 1 53 1 49 4 c 128,-1,29
 45 7 45 7 45 13 c 0,30,31
 45 25 45 25 51.5 28.5 c 128,-1,32
 58 32 58 32 76 32 c 0,33,34
 130 32 130 32 143.5 40 c 128,-1,35
 157 48 157 48 164 78 c 2,36,-1
 300 623 l 2,37,38
 305 641 305 641 305 646 c 128,-1,39
 305 651 305 651 304 653.5 c 128,-1,40
 303 656 303 656 298 659 c 128,-1,41
 293 662 293 662 282 663 c 0,42,43
 266 665 266 665 243 665 c 0,44,45
 230 665 230 665 224.5 665.5 c 128,-1,46
 219 666 219 666 215 669 c 128,-1,47
 211 672 211 672 211 678 c 0,48,49
 211 690 211 690 217.5 693 c 128,-1,50
 224 696 224 696 242 696 c 2,51,-1
 769 696 l 2,52,53
 786 696 786 696 792.5 694 c 128,-1,54
 799 692 799 692 799 682 c 1,55,-1
 777 492 l 2,56,57
 776 481 776 481 775 476.5 c 128,-1,58
 774 472 774 472 771 469 c 128,-1,59
 768 466 768 466 762 466 c 0,60,61
 748 466 748 466 748 481 c 1,62,-1
 750 507 l 2,63,64
 752 533 752 533 753 551 c 0,65,66
 753 616 753 616 721 640.5 c 128,-1,67
 689 665 689 665 596 665 c 2,68,-1
 445 665 l 2,69,70
 419 665 419 665 410.5 661.5 c 128,-1,71
 402 658 402 658 398 648 c 0,72,73
 391 630 391 630 330 378 c 1,74,-1
 427 378 l 2,75,76
 492 378 492 378 519.5 396 c 128,-1,77
 547 414 547 414 561 472 c 0,78,79
 565 488 565 488 567.5 493 c 128,-1,80
 570 498 570 498 579 498 c 0,81,82
 593 498 593 498 592 484 c 0,83,84
 592 478 592 478 589 464 c 2,85,-1
 535 249 l 2,86,87
 533 241 533 241 532.5 239 c 128,-1,88
 532 237 532 237 529.5 232.5 c 128,-1,89
 527 228 527 228 524 227 c 128,-1,90
 521 226 521 226 517 226 c 0,91,92
 504 226 504 226 504 240 c 0,93,94
 504 245 504 245 507 254 c 0,95,96
 514 283 514 283 514 300 c 0,97,98
 514 327 514 327 496.5 336.5 c 128,-1,99
 479 346 479 346 426 346 c 2,100,-1
 322 346 l 1,0,-1
EndSplineSet
Validated: 19457
EndChar

StartChar: Zeta
Encoding: 918 918 57
Width: 765
Flags: W
HStem: 0 35<171 474.625> 469 21G<201 213> 668 31<363.164 647>
VStem: 194 27<469.013 513>
LayerCount: 2
Fore
SplineSet
742 664 m 2,0,-1
 171 35 l 1,1,-1
 351 35 l 2,2,3
 418 35 418 35 463.5 48.5 c 128,-1,4
 509 62 509 62 538.5 93 c 128,-1,5
 568 124 568 124 585.5 158.5 c 128,-1,6
 603 193 603 193 622 249 c 0,7,8
 627 264 627 264 630 268.5 c 128,-1,9
 633 273 633 273 641 273 c 0,10,11
 654 273 654 273 654 260 c 1,12,-1
 652 253 l 1,13,-1
 650 246 l 1,14,-1
 579 20 l 2,15,16
 574 6 574 6 569.5 3 c 128,-1,17
 565 0 565 0 546 0 c 2,18,-1
 88 0 l 2,19,20
 72 0 72 0 66.5 1.5 c 128,-1,21
 61 3 61 3 61 11 c 1,22,-1
 66 28 l 1,23,-1
 647 668 l 1,24,-1
 476 668 l 2,25,26
 416 668 416 668 372.5 655.5 c 128,-1,27
 329 643 329 643 300.5 616.5 c 128,-1,28
 272 590 272 590 255 558.5 c 128,-1,29
 238 527 238 527 221 479 c 0,30,31
 218 469 218 469 208 469 c 0,32,33
 194 469 194 469 194 482 c 0,34,35
 194 486 194 486 199 502 c 2,36,-1
 253 678 l 2,37,38
 258 693 258 693 262 696 c 128,-1,39
 266 699 266 699 286 699 c 2,40,-1
 729 699 l 2,41,42
 738 699 738 699 741.5 699 c 128,-1,43
 745 699 745 699 749.5 698 c 128,-1,44
 754 697 754 697 755 695 c 128,-1,45
 756 693 756 693 756 689 c 0,46,47
 755 679 755 679 742 664 c 2,0,-1
EndSplineSet
Validated: 19457
EndChar

StartChar: Eta
Encoding: 919 919 58
Width: 898
Flags: W
HStem: 0 32<45.1318 143.068 250.032 338.875 454.234 557.356 658.032 747.359> 348 32<330 640> 668.5 29.5<216.125 300.842 411.448 509.906 625.125 709.841 820.963 916.953>
LayerCount: 2
Fore
SplineSet
799 621 m 2,0,-1
 662 75 l 2,1,2
 658 61 658 61 657 50 c 0,3,4
 657 45 657 45 658 42.5 c 128,-1,5
 659 40 659 40 664.5 37.5 c 128,-1,6
 670 35 670 35 681 34 c 0,7,8
 697 32 697 32 720 32 c 0,9,10
 733 32 733 32 738 31.5 c 128,-1,11
 743 31 743 31 747.5 28 c 128,-1,12
 752 25 752 25 752 18 c 0,13,14
 752 0 752 0 731 0 c 0,15,16
 705 0 705 0 665 2 c 0,17,18
 634 3 634 3 599 3 c 128,-1,19
 564 3 564 3 534 2 c 0,20,21
 495 0 495 0 469 0 c 0,22,23
 454 0 454 0 454 13 c 0,24,25
 454 31 454 31 478 32 c 0,26,27
 516 32 516 32 534.5 35.5 c 128,-1,28
 553 39 553 39 557.5 43 c 128,-1,29
 562 47 562 47 566 57 c 0,30,31
 569 64 569 64 600.5 188.5 c 128,-1,32
 632 313 632 313 640 348 c 1,33,-1
 322 348 l 1,34,-1
 254 74 l 2,35,36
 249 56 249 56 249 50.5 c 128,-1,37
 249 45 249 45 250 42.5 c 128,-1,38
 251 40 251 40 256 37.5 c 128,-1,39
 261 35 261 35 272 34 c 0,40,41
 288 32 288 32 311 32 c 0,42,43
 324 32 324 32 329.5 31.5 c 128,-1,44
 335 31 335 31 339 28 c 128,-1,45
 343 25 343 25 343 18 c 0,46,47
 343 0 343 0 323 0 c 0,48,49
 297 0 297 0 256 2 c 0,50,51
 225 3 225 3 190.5 3 c 128,-1,52
 156 3 156 3 125 2 c 0,53,54
 86 0 86 0 60 0 c 0,55,56
 45 0 45 0 45 13 c 0,57,58
 45 25 45 25 51.5 28.5 c 128,-1,59
 58 32 58 32 76 32 c 0,60,61
 130 32 130 32 143.5 40 c 128,-1,62
 157 48 157 48 164 78 c 2,63,-1
 302 630 l 2,64,65
 306 645 306 645 306 650 c 0,66,67
 306 657 306 657 301 660.5 c 128,-1,68
 296 664 296 664 282 666 c 0,69,70
 266 668 266 668 243 668 c 0,71,72
 231 668 231 668 225.5 668.5 c 128,-1,73
 220 669 220 669 216 672 c 128,-1,74
 212 675 212 675 212 681 c 0,75,76
 212 699 212 699 232 698 c 0,77,78
 258 698 258 698 299 697 c 0,79,80
 330 696 330 696 364.5 696 c 128,-1,81
 399 696 399 696 430 697 c 2,82,-1
 495 698 l 2,83,84
 510 698 510 698 510 686 c 128,-1,85
 510 674 510 674 504 671 c 128,-1,86
 498 668 498 668 482 668 c 0,87,88
 425 668 425 668 411 659.5 c 128,-1,89
 397 651 397 651 390 621 c 2,90,-1
 330 380 l 1,91,-1
 648 380 l 1,92,-1
 711 630 l 2,93,94
 715 646 715 646 715 650 c 0,95,96
 715 657 715 657 710 660.5 c 128,-1,97
 705 664 705 664 690 666 c 0,98,99
 674 668 674 668 651 668 c 0,100,101
 639 668 639 668 634 668.5 c 128,-1,102
 629 669 629 669 625 672 c 128,-1,103
 621 675 621 675 621 681 c 0,104,105
 621 699 621 699 641 698 c 0,106,107
 667 698 667 698 708 697 c 0,108,109
 739 696 739 696 773.5 696 c 128,-1,110
 808 696 808 696 839 697 c 2,111,-1
 903 698 l 2,112,113
 918 698 918 698 918.5 686 c 128,-1,114
 919 674 919 674 912.5 671 c 128,-1,115
 906 668 906 668 891 668 c 0,116,117
 835 668 835 668 820.5 660 c 128,-1,118
 806 652 806 652 799 621 c 2,0,-1
EndSplineSet
Validated: 19457
EndChar

StartChar: Theta
Encoding: 920 920 59
Width: 800
Flags: W
HStem: -23 28<255.981 407.975> 312 77<258 571> 696 26<426.673 568.749>
VStem: 51 90<134.345 366.221> 204 28<278.003 311.32> 232 30<389.75 423.867> 591 34<389.207 423.822> 686 90<329.677 563.269>
LayerCount: 2
Fore
SplineSet
776 443 m 0,0,1
 776 356 776 356 736.5 270.5 c 128,-1,2
 697 185 697 185 634.5 121 c 128,-1,3
 572 57 572 57 489 17 c 128,-1,4
 406 -23 406 -23 322 -23 c 0,5,6
 204 -23 204 -23 127.5 53 c 128,-1,7
 51 129 51 129 51 253 c 0,8,9
 51 368 51 368 116.5 477 c 128,-1,10
 182 586 182 586 288.5 654 c 128,-1,11
 395 722 395 722 507 722 c 0,12,13
 627 722 627 722 701.5 643.5 c 128,-1,14
 776 565 776 565 776 443 c 0,0,1
329 5 m 0,15,16
 399 5 399 5 468.5 48 c 128,-1,17
 538 91 538 91 585 158 c 0,18,19
 627 217 627 217 651.5 291 c 128,-1,20
 676 365 676 365 681 404.5 c 128,-1,21
 686 444 686 444 686 475 c 0,22,23
 686 580 686 580 633.5 638 c 128,-1,24
 581 696 581 696 501 696 c 0,25,26
 436 696 436 696 365.5 655 c 128,-1,27
 295 614 295 614 239 534 c 0,28,29
 193 467 193 467 167 379.5 c 128,-1,30
 141 292 141 292 141 223 c 0,31,32
 141 120 141 120 194 62.5 c 128,-1,33
 247 5 247 5 329 5 c 0,15,16
571 312 m 1,34,-1
 239 312 l 1,35,36
 239 311 239 311 232 290 c 1,37,38
 230 278 230 278 218 278 c 0,39,40
 204 278 204 278 204 291 c 0,41,42
 204 295 204 295 217.5 349 c 128,-1,43
 231 403 231 403 232 404 c 0,44,45
 236 423 236 423 248 424 c 0,46,47
 262 424 262 424 262 410 c 1,48,-1
 258 389 l 1,49,-1
 591 389 l 1,50,51
 591 392 591 392 592 399 c 128,-1,52
 593 406 593 406 597.5 415 c 128,-1,53
 602 424 602 424 610 424 c 0,54,55
 624 424 624 424 625 410 c 0,56,57
 625 408 625 408 618.5 382.5 c 128,-1,58
 612 357 612 357 605 329.5 c 128,-1,59
 598 302 598 302 597 297 c 0,60,61
 592 278 592 278 581 278 c 0,62,63
 567 278 567 278 566 292 c 0,64,65
 566 295 566 295 568.5 303 c 128,-1,66
 571 311 571 311 571 312 c 1,34,-1
EndSplineSet
Validated: 19457
EndChar

StartChar: Iota
Encoding: 921 921 60
Width: 494
Flags: W
HStem: 2 30<40.2461 142.552 253.642 343.875> 668.5 29.5<211.125 303.369 412.964 514.902>
LayerCount: 2
Fore
SplineSet
390 620 m 2,0,-1
 253 74 l 2,1,2
 249 60 249 60 249 50 c 0,3,4
 249 44 249 44 253.5 40 c 128,-1,5
 258 36 258 36 269.5 34.5 c 128,-1,6
 281 33 281 33 290 32.5 c 128,-1,7
 299 32 299 32 317 32 c 0,8,9
 329 32 329 32 334.5 31.5 c 128,-1,10
 340 31 340 31 344 28 c 128,-1,11
 348 25 348 25 348 18 c 0,12,13
 348 0 348 0 328 0 c 0,14,15
 318 0 318 0 295 1 c 128,-1,16
 272 2 272 2 261 2 c 128,-1,17
 250 2 250 2 226.5 2.5 c 128,-1,18
 203 3 203 3 190.5 3 c 128,-1,19
 178 3 178 3 154.5 2.5 c 128,-1,20
 131 2 131 2 120 2 c 128,-1,21
 109 2 109 2 87.5 1 c 128,-1,22
 66 0 66 0 55 0 c 0,23,24
 40 0 40 0 40 13 c 0,25,26
 40 25 40 25 47 28.5 c 128,-1,27
 54 32 54 32 74 32 c 0,28,29
 129 32 129 32 143 40 c 128,-1,30
 157 48 157 48 164 78 c 2,31,-1
 303 631 l 2,32,33
 305 639 305 639 305 650 c 0,34,35
 305 655 305 655 304 659 c 1,36,37
 284 667 284 667 238 668 c 0,38,39
 226 668 226 668 220.5 668.5 c 128,-1,40
 215 669 215 669 211 672 c 128,-1,41
 207 675 207 675 207 681 c 0,42,43
 207 699 207 699 227 698 c 0,44,45
 237 698 237 698 260 697.5 c 128,-1,46
 283 697 283 697 294 697 c 128,-1,47
 305 697 305 697 328.5 696.5 c 128,-1,48
 352 696 352 696 365 696 c 0,49,50
 367 696 367 696 393.5 696.5 c 128,-1,51
 420 697 420 697 434 697 c 0,52,53
 444 697 444 697 466 698 c 0,54,55
 477 698 477 698 485.5 698 c 128,-1,56
 494 698 494 698 499 698 c 0,57,58
 515 698 515 698 515 686 c 128,-1,59
 515 674 515 674 509 671 c 128,-1,60
 503 668 503 668 485 668 c 0,61,62
 427 668 427 668 412.5 660 c 128,-1,63
 398 652 398 652 390 620 c 2,0,-1
EndSplineSet
Validated: 3073
EndChar

StartChar: Kappa
Encoding: 922 922 61
Width: 909
Flags: W
HStem: 0 32<45.1318 143.068 250.032 338.875 518.248 589.966 714.957 776.93> 668.5 29.5<215.61 300.842 411.448 509.906 712.116 753.98 854.875 929.812>
LayerCount: 2
Fore
SplineSet
528 427 m 1,0,-1
 688 75 l 2,1,2
 700 48 700 48 714.5 40.5 c 128,-1,3
 729 33 729 33 759 32 c 0,4,5
 777 32 777 32 777 18 c 0,6,7
 777 0 777 0 759 0 c 2,8,-1
 709 2 l 2,9,10
 702 3 702 3 656 3 c 0,11,12
 646 3 646 3 625 2.5 c 128,-1,13
 604 2 604 2 594 2 c 128,-1,14
 584 2 584 2 564.5 1 c 128,-1,15
 545 0 545 0 535 0 c 0,16,17
 519 0 519 0 518 13 c 0,18,19
 518 31 518 31 543 32 c 0,20,21
 594 32 594 32 594 62 c 0,22,23
 594 67 594 67 587 86 c 1,24,-1
 456 373 l 1,25,-1
 299 255 l 1,26,27
 249 56 249 56 249 50 c 0,28,29
 249 45 249 45 250 42.5 c 128,-1,30
 251 40 251 40 256 37.5 c 128,-1,31
 261 35 261 35 272 34 c 0,32,33
 288 32 288 32 311 32 c 0,34,35
 324 32 324 32 329.5 31.5 c 128,-1,36
 335 31 335 31 339 28 c 128,-1,37
 343 25 343 25 343 18 c 0,38,39
 343 0 343 0 323 0 c 0,40,41
 297 0 297 0 256 2 c 0,42,43
 225 3 225 3 190.5 3 c 128,-1,44
 156 3 156 3 125 2 c 0,45,46
 86 0 86 0 60 0 c 0,47,48
 45 0 45 0 45 13 c 0,49,50
 45 25 45 25 51.5 28.5 c 128,-1,51
 58 32 58 32 76 32 c 0,52,53
 130 32 130 32 143.5 40 c 128,-1,54
 157 48 157 48 164 78 c 2,55,-1
 302 630 l 2,56,57
 306 645 306 645 306 650 c 0,58,59
 306 658 306 658 301 661 c 128,-1,60
 296 664 296 664 282 666 c 0,61,62
 266 668 266 668 243 668 c 0,63,64
 230 668 230 668 224.5 668.5 c 128,-1,65
 219 669 219 669 215.5 672 c 128,-1,66
 212 675 212 675 212 681 c 0,67,68
 212 699 212 699 232 698 c 0,69,70
 258 698 258 698 299 697 c 0,71,72
 330 696 330 696 365 696 c 0,73,74
 409 696 409 696 430 697 c 0,75,76
 440 697 440 697 462 698 c 0,77,78
 473 698 473 698 481.5 698 c 128,-1,79
 490 698 490 698 495 698 c 0,80,81
 510 698 510 698 510 686 c 128,-1,82
 510 674 510 674 504 671 c 128,-1,83
 498 668 498 668 482 668 c 0,84,85
 425 668 425 668 411 659.5 c 128,-1,86
 397 651 397 651 390 621 c 2,87,-1
 308 294 l 1,88,-1
 716 599 l 2,89,90
 724 606 724 606 726 608 c 0,91,92
 729 610 729 610 734 615 c 0,93,94
 754 632 754 632 755 649 c 0,95,96
 755 663 755 663 726 668 c 1,97,98
 712 668 712 668 712 681 c 0,99,100
 712 699 712 699 731 698 c 0,101,102
 748 698 748 698 785.5 697 c 128,-1,103
 823 696 823 696 842 696 c 0,104,105
 869 696 869 696 885.5 697 c 128,-1,106
 902 698 902 698 908.5 698.5 c 128,-1,107
 915 699 915 699 918 698 c 0,108,109
 930 698 930 698 930 686 c 0,110,111
 930 679 930 679 926.5 674.5 c 128,-1,112
 923 670 923 670 919.5 669.5 c 128,-1,113
 916 669 916 669 911 668 c 0,114,115
 882 665 882 665 854 653.5 c 128,-1,116
 826 642 826 642 806.5 629.5 c 128,-1,117
 787 617 787 617 749 591 c 1,118,-1
 736 584 l 1,119,-1
 528 427 l 1,0,-1
EndSplineSet
Validated: 3073
EndChar

StartChar: Lambda
Encoding: 923 923 62
Width: 730
Flags: W
HStem: 0 32<43.1575 106.576 189.891 247.924 430.202 512.524 632.257 699.896>
LayerCount: 2
Fore
SplineSet
173 120 m 2,0,-1
 519 711 l 2,1,2
 525 721 525 721 527.5 724.5 c 128,-1,3
 530 728 530 728 535.5 730.5 c 128,-1,4
 541 733 541 733 548 733 c 0,5,6
 556 733 556 733 560 730 c 128,-1,7
 564 727 564 727 565 723 c 128,-1,8
 566 719 566 719 567 708 c 2,9,-1
 622 69 l 2,10,11
 624 45 624 45 632 38.5 c 128,-1,12
 640 32 640 32 675 32 c 0,13,14
 701 32 701 32 700 18 c 0,15,16
 700 0 700 0 681 0 c 0,17,18
 677 0 677 0 654.5 1 c 128,-1,19
 632 2 632 2 627 2 c 0,20,21
 615 3 615 3 570 3 c 0,22,23
 559 3 559 3 537.5 2.5 c 128,-1,24
 516 2 516 2 505 2 c 0,25,26
 496 2 496 2 475.5 1 c 128,-1,27
 455 0 455 0 445 0 c 0,28,29
 430 0 430 0 430 13 c 0,30,31
 430 31 430 31 453 32 c 0,32,33
 498 33 498 33 513 42.5 c 128,-1,34
 528 52 528 52 528 71 c 0,35,36
 528 72 528 72 527.5 76 c 128,-1,37
 527 80 527 80 527 81 c 2,38,-1
 483 593 l 1,39,-1
 199 108 l 1,40,41
 184 77 184 77 183 68 c 0,42,43
 183 35 183 35 232 32 c 0,44,45
 247 32 247 32 248 18 c 0,46,47
 248 0 248 0 229 0 c 0,48,49
 214 0 214 0 180.5 1.5 c 128,-1,50
 147 3 147 3 131 3 c 0,51,52
 118 3 118 3 90.5 1.5 c 128,-1,53
 63 0 63 0 51 0 c 0,54,55
 38 0 38 0 38 13 c 0,56,57
 38 24 38 24 43 27.5 c 128,-1,58
 48 31 48 31 58 32 c 0,59,60
 115 37 115 37 157 94 c 0,61,62
 160 99 160 99 166 108 c 128,-1,63
 172 117 172 117 173 120 c 2,0,-1
EndSplineSet
Validated: 19457
EndChar

StartChar: Mu
Encoding: 924 924 63
Width: 1069
Flags: W
HStem: 0 32<49.1675 135.836 213.893 289.919 634.132 731.584 829.032 918.359> 668 31<220.125 304.842 991.963 1089.91>
LayerCount: 2
Fore
SplineSet
970 621 m 2,0,-1
 833 75 l 2,1,2
 829 61 829 61 828 50 c 0,3,4
 828 45 828 45 829 42.5 c 128,-1,5
 830 40 830 40 835.5 37.5 c 128,-1,6
 841 35 841 35 852 34 c 0,7,8
 868 32 868 32 891 32 c 0,9,10
 904 32 904 32 909 31.5 c 128,-1,11
 914 31 914 31 918.5 28 c 128,-1,12
 923 25 923 25 923 18 c 0,13,14
 923 0 923 0 903 0 c 0,15,16
 894 0 894 0 872.5 1 c 128,-1,17
 851 2 851 2 841 2 c 0,18,19
 832 2 832 2 816 2 c 128,-1,20
 800 2 800 2 788 2.5 c 128,-1,21
 776 3 776 3 775 3 c 0,22,23
 729 3 729 3 714 2 c 0,24,25
 689 0 689 0 649 0 c 0,26,27
 634 0 634 0 634 13 c 0,28,29
 634 25 634 25 640.5 28.5 c 128,-1,30
 647 32 647 32 665 32 c 0,31,32
 719 32 719 32 732 40 c 128,-1,33
 745 48 745 48 753 78 c 2,34,-1
 899 663 l 1,35,-1
 898 663 l 1,36,-1
 481 19 l 2,37,38
 468 0 468 0 457 0 c 0,39,40
 443 0 443 0 439 27 c 2,41,-1
 346 655 l 1,42,-1
 345 655 l 1,43,-1
 207 98 l 2,44,45
 203 79 203 79 203 76 c 0,46,47
 203 33 203 33 269 32 c 0,48,49
 289 32 289 32 290 18 c 0,50,51
 290 0 290 0 271 0 c 0,52,53
 264 0 264 0 245 1 c 128,-1,54
 226 2 226 2 218 2 c 0,55,56
 193 3 193 3 166 3 c 0,57,58
 131 3 131 3 115 2 c 0,59,60
 88 0 88 0 63 0 c 0,61,62
 49 0 49 0 49 13 c 0,63,64
 49 31 49 31 67 32 c 0,65,66
 117 34 117 34 141.5 51.5 c 128,-1,67
 166 69 166 69 176 109 c 2,68,-1
 306 630 l 2,69,70
 310 645 310 645 310 650 c 0,71,72
 310 657 310 657 305 660.5 c 128,-1,73
 300 664 300 664 286 666 c 0,74,75
 270 668 270 668 247 668 c 0,76,77
 235 668 235 668 229.5 668.5 c 128,-1,78
 224 669 224 669 220 672 c 128,-1,79
 216 675 216 675 216 681 c 0,80,81
 216 693 216 693 222.5 696 c 128,-1,82
 229 699 229 699 247 699 c 2,83,-1
 387 699 l 2,84,85
 409 699 409 699 413.5 695.5 c 128,-1,86
 418 692 418 692 421 673 c 2,87,-1
 506 96 l 1,88,-1
 884 680 l 2,89,90
 893 694 893 694 899 696.5 c 128,-1,91
 905 699 905 699 926 699 c 2,92,-1
 1060 699 l 2,93,94
 1072 699 1072 699 1076.5 698.5 c 128,-1,95
 1081 698 1081 698 1085.5 695 c 128,-1,96
 1090 692 1090 692 1090 686 c 0,97,98
 1090 674 1090 674 1083.5 671 c 128,-1,99
 1077 668 1077 668 1062 668 c 0,100,101
 1006 668 1006 668 991.5 660 c 128,-1,102
 977 652 977 652 970 621 c 2,0,-1
EndSplineSet
Validated: 19457
EndChar

StartChar: Nu
Encoding: 925 925 64
Width: 898
Flags: W
HStem: 0 32<45.1675 131.945 209.893 285.919> 668 31<216.125 310 678.11 751.793 832.08 918.878>
LayerCount: 2
Fore
SplineSet
791 589 m 2,0,-1
 648 22 l 2,1,2
 645 8 645 8 642 4 c 128,-1,3
 639 0 639 0 630 0 c 0,4,5
 623 0 623 0 619.5 3 c 128,-1,6
 616 6 616 6 611 18 c 2,7,-1
 337 638 l 1,8,-1
 203 98 l 2,9,10
 199 79 199 79 199 76 c 0,11,12
 199 33 199 33 265 32 c 0,13,14
 285 32 285 32 286 18 c 0,15,16
 286 0 286 0 267 0 c 0,17,18
 260 0 260 0 241 1 c 128,-1,19
 222 2 222 2 214 2 c 0,20,21
 189 3 189 3 162 3 c 0,22,23
 127 3 127 3 111 2 c 0,24,25
 84 0 84 0 59 0 c 0,26,27
 45 0 45 0 45 13 c 0,28,29
 45 31 45 31 62 32 c 0,30,31
 114 34 114 34 138.5 52 c 128,-1,32
 163 70 163 70 172 109 c 2,33,-1
 310 662 l 1,34,35
 285 668 285 668 243 668 c 0,36,37
 231 668 231 668 225.5 668.5 c 128,-1,38
 220 669 220 669 216 672 c 128,-1,39
 212 675 212 675 212 681 c 0,40,41
 212 693 212 693 218.5 696 c 128,-1,42
 225 699 225 699 243 699 c 2,43,-1
 379 699 l 2,44,45
 396 699 396 699 401 696 c 128,-1,46
 406 693 406 693 413 679 c 2,47,-1
 647 147 l 1,48,-1
 762 603 l 1,49,-1
 764 612 l 2,50,51
 766 620 766 620 765 624 c 0,52,53
 765 666 765 666 696 668 c 0,54,55
 678 668 678 668 678 681 c 0,56,57
 678 699 678 699 696 699 c 0,58,59
 703 699 703 699 722 698 c 128,-1,60
 741 697 741 697 750 697 c 0,61,62
 775 696 775 696 802 696 c 0,63,64
 813 696 813 696 853 697.5 c 128,-1,65
 893 699 893 699 904 699 c 0,66,67
 918 699 918 699 919 686 c 0,68,69
 919 668 919 668 900 668 c 0,70,71
 845 666 845 666 822.5 646 c 128,-1,72
 800 626 800 626 791 589 c 2,0,-1
EndSplineSet
Validated: 19457
EndChar

StartChar: Xi
Encoding: 926 926 65
Width: 822
Flags: W
HStem: 0 71<102 643.184> 326 70<274 606> 429 20G<265 276 645.5 655> 623 70<246.234 767>
VStem: 186 32<539.643 586.482> 218 31<273.272 324.141> 597 32<273.202 324.853> 635 28<396.777 448.969>
LayerCount: 2
Fore
SplineSet
810 664 m 1,0,-1
 791 557 l 2,1,2
 787 534 787 534 774 535 c 0,3,4
 760 535 760 535 760 549 c 0,5,6
 760 552 760 552 761 558 c 0,7,8
 767 591 767 591 767 620 c 1,9,10
 741 623 741 623 695 623 c 2,11,-1
 323 623 l 2,12,13
 253 623 253 623 246 617 c 0,14,15
 235 609 235 609 218 557 c 0,16,17
 214 544 214 544 211 539.5 c 128,-1,18
 208 535 208 535 201 535 c 0,19,20
 187 535 187 535 186 548 c 0,21,22
 186 555 186 555 191 567 c 1,23,-1
 225 673 l 2,24,25
 230 687 230 687 234.5 690 c 128,-1,26
 239 693 239 693 258 693 c 2,27,-1
 782 693 l 2,28,29
 799 693 799 693 805.5 691 c 128,-1,30
 812 689 812 689 812 679 c 1,31,-1
 810 664 l 1,0,-1
177 71 m 2,32,-1
 552 71 l 2,33,34
 629 71 629 71 635 78 c 1,35,36
 647 96 647 96 666 154 c 0,37,38
 671 170 671 170 681 170 c 0,39,40
 695 170 695 170 695 157 c 0,41,42
 695 153 695 153 675.5 91 c 128,-1,43
 656 29 656 29 651 14 c 0,44,45
 647 4 647 4 643 2 c 128,-1,46
 639 0 639 0 621 0 c 2,47,-1
 86 0 l 2,48,49
 75 0 75 0 70 0.5 c 128,-1,50
 65 1 65 1 60.5 4 c 128,-1,51
 56 7 56 7 56 13 c 0,52,53
 56 41 56 41 82 148 c 1,54,55
 85 170 85 170 97 170 c 0,56,57
 111 170 111 170 112 156 c 0,58,59
 112 152 112 152 109 136 c 0,60,61
 103 104 103 104 102 75 c 1,62,63
 131 71 131 71 177 71 c 2,32,-1
222 303 m 1,64,-1
 253 426 l 2,65,66
 256 440 256 440 258.5 444.5 c 128,-1,67
 261 449 261 449 269 449 c 0,68,69
 283 449 283 449 284 434 c 0,70,71
 284 432 284 432 282 425 c 128,-1,72
 280 418 280 418 277.5 408.5 c 128,-1,73
 275 399 275 399 274 396 c 1,74,-1
 624 396 l 1,75,76
 630 421 630 421 632 428 c 0,77,78
 634 436 634 436 635 439.5 c 128,-1,79
 636 443 636 443 639.5 446 c 128,-1,80
 643 449 643 449 648 449 c 0,81,82
 662 449 662 449 663 435 c 0,83,84
 663 432 663 432 655.5 402 c 128,-1,85
 648 372 648 372 639 336.5 c 128,-1,86
 630 301 630 301 629 296 c 0,87,88
 623 273 623 273 611 273 c 0,89,90
 597 273 597 273 597 288 c 0,91,92
 597 289 597 289 606 326 c 1,93,-1
 257 326 l 1,94,95
 250 295 250 295 249 294 c 0,96,97
 244 274 244 274 232 273 c 0,98,99
 218 273 218 273 218 287 c 0,100,101
 218 295 218 295 222 303 c 1,64,-1
EndSplineSet
Validated: 19457
EndChar

StartChar: Omicron
Encoding: 927 927 66
Width: 800
Flags: W
HStem: -23 31<255.734 408.142> 693 29<420.775 571.575>
VStem: 51 99<134.711 373.887> 683 93<343.357 563.159>
LayerCount: 2
Fore
SplineSet
776 443 m 0,0,1
 776 356 776 356 736.5 270.5 c 128,-1,2
 697 185 697 185 634.5 121 c 128,-1,3
 572 57 572 57 489 17 c 128,-1,4
 406 -23 406 -23 322 -23 c 0,5,6
 204 -23 204 -23 127.5 53 c 128,-1,7
 51 129 51 129 51 253 c 0,8,9
 51 368 51 368 116.5 477 c 128,-1,10
 182 586 182 586 288.5 654 c 128,-1,11
 395 722 395 722 507 722 c 0,12,13
 627 722 627 722 701.5 643.5 c 128,-1,14
 776 565 776 565 776 443 c 0,0,1
329 8 m 0,15,16
 387 8 387 8 451.5 43.5 c 128,-1,17
 516 79 516 79 570 151 c 1,18,19
 627 229 627 229 655 323.5 c 128,-1,20
 683 418 683 418 683 482 c 0,21,22
 683 581 683 581 631 637 c 128,-1,23
 579 693 579 693 500 693 c 0,24,25
 439 693 439 693 371.5 657 c 128,-1,26
 304 621 304 621 252 549 c 0,27,28
 197 472 197 472 173.5 380 c 128,-1,29
 150 288 150 288 150 227 c 0,30,31
 150 123 150 123 200.5 65.5 c 128,-1,32
 251 8 251 8 329 8 c 0,15,16
EndSplineSet
Validated: 19457
EndChar

StartChar: Pi
Encoding: 928 928 67
Width: 897
Flags: W
HStem: 0 32<45.1318 143.068 250.032 338.875 454.132 551.068 658.032 747.359> 665 31<215.125 303.968 401 720 819.932 917.911>
LayerCount: 2
Fore
SplineSet
798 616 m 2,0,-1
 662 75 l 2,1,2
 658 61 658 61 657 50 c 0,3,4
 657 45 657 45 658 42.5 c 128,-1,5
 659 40 659 40 664.5 37.5 c 128,-1,6
 670 35 670 35 681 34 c 0,7,8
 697 32 697 32 720 32 c 0,9,10
 733 32 733 32 738 31.5 c 128,-1,11
 743 31 743 31 747.5 28 c 128,-1,12
 752 25 752 25 752 18 c 0,13,14
 752 0 752 0 731 0 c 0,15,16
 705 0 705 0 665 2 c 0,17,18
 634 3 634 3 599 3 c 128,-1,19
 564 3 564 3 534 2 c 0,20,21
 495 0 495 0 469 0 c 0,22,23
 454 0 454 0 454 13 c 0,24,25
 454 25 454 25 460.5 28.5 c 128,-1,26
 467 32 467 32 484 32 c 0,27,28
 538 32 538 32 551.5 40 c 128,-1,29
 565 48 565 48 572 78 c 2,30,-1
 720 665 l 1,31,-1
 401 665 l 1,32,-1
 254 74 l 2,33,34
 249 56 249 56 249 50.5 c 128,-1,35
 249 45 249 45 250 42.5 c 128,-1,36
 251 40 251 40 256 37.5 c 128,-1,37
 261 35 261 35 272 34 c 0,38,39
 288 32 288 32 311 32 c 0,40,41
 324 32 324 32 329.5 31.5 c 128,-1,42
 335 31 335 31 339 28 c 128,-1,43
 343 25 343 25 343 18 c 0,44,45
 343 0 343 0 323 0 c 0,46,47
 297 0 297 0 256 2 c 0,48,49
 225 3 225 3 190.5 3 c 128,-1,50
 156 3 156 3 125 2 c 0,51,52
 86 0 86 0 60 0 c 0,53,54
 45 0 45 0 45 13 c 0,55,56
 45 25 45 25 51.5 28.5 c 128,-1,57
 58 32 58 32 76 32 c 0,58,59
 130 32 130 32 143.5 40 c 128,-1,60
 157 48 157 48 164 78 c 2,61,-1
 300 623 l 2,62,63
 305 641 305 641 305 646 c 128,-1,64
 305 651 305 651 304 653.5 c 128,-1,65
 303 656 303 656 298 659 c 128,-1,66
 293 662 293 662 282 663 c 0,67,68
 266 665 266 665 243 665 c 0,69,70
 230 665 230 665 224.5 665.5 c 128,-1,71
 219 666 219 666 215 669 c 128,-1,72
 211 672 211 672 211 678 c 0,73,74
 211 690 211 690 217 693 c 128,-1,75
 223 696 223 696 242 696 c 2,76,-1
 889 696 l 2,77,78
 900 696 900 696 904.5 695.5 c 128,-1,79
 909 695 909 695 913.5 692 c 128,-1,80
 918 689 918 689 918 683 c 0,81,82
 918 671 918 671 911 668 c 128,-1,83
 904 665 904 665 890 665 c 0,84,85
 833 665 833 665 819.5 656.5 c 128,-1,86
 806 648 806 648 798 616 c 2,0,-1
EndSplineSet
Validated: 19457
EndChar

StartChar: Rho
Encoding: 929 929 68
Width: 808
Flags: W
HStem: 0 32<46.1318 144.068 251.032 339.875> 322 28<321 559.598> 668 31<216.61 301.842 404.74 635.141>
VStem: 691 97<464.384 617.459>
LayerCount: 2
Fore
SplineSet
316 322 m 1,0,-1
 255 74 l 2,1,2
 250 56 250 56 250 50.5 c 128,-1,3
 250 45 250 45 251 42.5 c 128,-1,4
 252 40 252 40 257 37.5 c 128,-1,5
 262 35 262 35 273 34 c 0,6,7
 289 32 289 32 312 32 c 0,8,9
 325 32 325 32 330.5 31.5 c 128,-1,10
 336 31 336 31 340 28 c 128,-1,11
 344 25 344 25 344 18 c 0,12,13
 344 0 344 0 324 0 c 0,14,15
 298 0 298 0 257 2 c 0,16,17
 226 3 226 3 191.5 3 c 128,-1,18
 157 3 157 3 126 2 c 0,19,20
 87 0 87 0 61 0 c 0,21,22
 46 0 46 0 46 13 c 0,23,24
 46 25 46 25 52.5 28.5 c 128,-1,25
 59 32 59 32 77 32 c 0,26,27
 131 32 131 32 144.5 40 c 128,-1,28
 158 48 158 48 165 78 c 2,29,-1
 303 630 l 2,30,31
 307 645 307 645 307 650 c 0,32,33
 307 658 307 658 302 661 c 128,-1,34
 297 664 297 664 283 666 c 0,35,36
 267 668 267 668 244 668 c 0,37,38
 231 668 231 668 225.5 668.5 c 128,-1,39
 220 669 220 669 216.5 672 c 128,-1,40
 213 675 213 675 213 681 c 0,41,42
 213 693 213 693 220 696 c 128,-1,43
 227 699 227 699 244 699 c 2,44,-1
 582 699 l 2,45,46
 678 699 678 699 733 653.5 c 128,-1,47
 788 608 788 608 788 544 c 0,48,49
 788 460 788 460 698 391 c 128,-1,50
 608 322 608 322 487 322 c 2,51,-1
 316 322 l 1,0,-1
390 628 m 2,52,-1
 321 350 l 1,53,-1
 469 350 l 2,54,55
 570 350 570 350 627 401 c 0,56,57
 662 433 662 433 676.5 485.5 c 128,-1,58
 691 538 691 538 691 568 c 0,59,60
 691 667 691 667 548 668 c 2,61,-1
 444 668 l 2,62,63
 412 668 412 668 404.5 662 c 128,-1,64
 397 656 397 656 390 628 c 2,52,-1
EndSplineSet
Validated: 19457
EndChar

StartChar: Sigma
Encoding: 931 931 69
Width: 852
Flags: W
HStem: 0 43<137 590.187> 469 21G<800 810> 668 31<339 728.188>
VStem: 729 28<212 232> 793 27<472.094 533.747>
LayerCount: 2
Fore
SplineSet
470 334 m 2,0,-1
 137 43 l 1,1,-1
 423 43 l 2,2,3
 563 43 563 43 622.5 79.5 c 128,-1,4
 682 116 682 116 729 232 c 1,5,-1
 730 233 l 2,6,7
 735 241 735 241 743 242 c 0,8,9
 756 242 756 242 757 228 c 1,10,-1
 753 212 l 1,11,-1
 679 19 l 2,12,13
 674 5 674 5 669 2.5 c 128,-1,14
 664 0 664 0 645 0 c 2,15,-1
 91 0 l 2,16,17
 80 0 80 0 75.5 0.5 c 128,-1,18
 71 1 71 1 66.5 4 c 128,-1,19
 62 7 62 7 62 13 c 128,-1,20
 62 19 62 19 75 31 c 2,21,-1
 396 310 l 1,22,-1
 234 665 l 2,23,24
 228 677 228 677 228 681 c 0,25,26
 228 693 228 693 235.5 696 c 128,-1,27
 243 699 243 699 260 699 c 2,28,-1
 814 699 l 2,29,30
 825 699 825 699 830 698.5 c 128,-1,31
 835 698 835 698 839 695 c 128,-1,32
 843 692 843 692 843 686 c 2,33,-1
 842 669 l 1,34,-1
 822 495 l 2,35,36
 821 485 821 485 820 480 c 128,-1,37
 819 475 819 475 816 472 c 128,-1,38
 813 469 813 469 807 469 c 0,39,40
 793 469 793 469 793 485 c 1,41,-1
 795 506 l 2,42,43
 797 526 797 526 796 534 c 0,44,45
 796 615 796 615 754 641.5 c 128,-1,46
 712 668 712 668 593 668 c 2,47,-1
 339 668 l 1,48,-1
 475 368 l 2,49,50
 482 354 482 354 482 350 c 0,51,52
 482 345 482 345 470 334 c 2,0,-1
EndSplineSet
Validated: 19457
EndChar

StartChar: Tau
Encoding: 932 932 70
Width: 749
Flags: W
HStem: 2 30<60.5474 206.742 315.738 442.452> 463 21G<33.5 44> 662 31<166.409 360.356 459.127 660.494>
VStem: 27 24<463.029 495.812> 681 30<463.003 536.073> 690 49<549.82 684>
LayerCount: 2
Fore
SplineSet
450 624 m 2,0,-1
 312 76 l 2,1,2
 308 62 308 62 308 55 c 0,3,4
 308 43 308 43 315.5 40 c 128,-1,5
 323 37 323 37 344 34 c 1,6,7
 372 32 372 32 410 32 c 0,8,9
 422 32 422 32 426.5 32 c 128,-1,10
 431 32 431 32 436 30.5 c 128,-1,11
 441 29 441 29 442.5 26.5 c 128,-1,12
 444 24 444 24 444 18 c 0,13,14
 444 0 444 0 423 0 c 0,15,16
 420 0 420 0 380.5 1 c 128,-1,17
 341 2 341 2 334 2 c 0,18,19
 296 3 296 3 249 3 c 0,20,21
 235 3 235 3 205.5 2.5 c 128,-1,22
 176 2 176 2 161.5 2 c 128,-1,23
 147 2 147 2 119 1 c 128,-1,24
 91 0 91 0 78 0 c 0,25,26
 61 0 61 0 60.5 13.5 c 128,-1,27
 60 27 60 27 68 29.5 c 128,-1,28
 76 32 76 32 102 32 c 0,29,30
 155 32 155 32 180 37.5 c 128,-1,31
 205 43 205 43 211.5 51 c 128,-1,32
 218 59 218 59 223 81 c 2,33,-1
 360 629 l 2,34,35
 364 645 364 645 365 650 c 0,36,37
 365 657 365 657 360.5 659.5 c 128,-1,38
 356 662 356 662 336 662 c 2,39,-1
 296 662 l 2,40,41
 235 662 235 662 203.5 657.5 c 128,-1,42
 172 653 172 653 144 634 c 128,-1,43
 116 615 116 615 99 582.5 c 128,-1,44
 82 550 82 550 59 487 c 0,45,46
 54 472 54 472 51 467.5 c 128,-1,47
 48 463 48 463 40 463 c 0,48,49
 27 463 27 463 27 476 c 0,50,51
 27 479 27 479 31 493 c 2,52,-1
 94 673 l 2,53,54
 99 687 99 687 104 690 c 128,-1,55
 109 693 109 693 127 693 c 2,56,-1
 710 693 l 2,57,58
 727 693 727 693 733 691 c 128,-1,59
 739 689 739 689 739 679 c 0,60,61
 739 675 739 675 737 665 c 2,62,-1
 711 487 l 2,63,64
 708 462 708 462 694 463 c 0,65,66
 680 463 680 463 680 477 c 1,67,-1
 681 485 l 1,68,69
 690 545 690 545 690 574 c 0,70,71
 690 631 690 631 660.5 646.5 c 128,-1,72
 631 662 631 662 538 662 c 0,73,74
 484 662 484 662 475 659 c 0,75,76
 463 657 463 657 459 650.5 c 128,-1,77
 455 644 455 644 450 624 c 2,0,-1
EndSplineSet
Validated: 19457
EndChar

StartChar: YUpsilon
Encoding: 933 933 71
Width: 780
Flags: W
HStem: 0 32<105.129 204.583 307.032 395.875> 668 31<39.1406 126.357 238.393 318.902 585.11 633.421 721.014 800.88>
LayerCount: 2
Fore
SplineSet
630 579 m 2,0,-1
 373 292 l 1,1,2
 373 292 373 292 361 281 c 1,3,4
 348 224 348 224 337 182 c 1,5,-1
 319 110 l 1,6,7
 306 60 306 60 306 50 c 0,8,9
 306 45 306 45 307 42.5 c 128,-1,10
 308 40 308 40 313 37.5 c 128,-1,11
 318 35 318 35 330 34 c 0,12,13
 346 32 346 32 369 32 c 0,14,15
 382 32 382 32 387 31.5 c 128,-1,16
 392 31 392 31 396 28 c 128,-1,17
 400 25 400 25 400 18 c 0,18,19
 400 0 400 0 380 0 c 0,20,21
 355 0 355 0 314 2 c 0,22,23
 283 3 283 3 249 3 c 0,24,25
 207 3 207 3 185 2 c 0,26,27
 150 0 150 0 121 0 c 0,28,29
 106 0 106 0 105 13 c 0,30,31
 105 25 105 25 111.5 28.5 c 128,-1,32
 118 32 118 32 133 32 c 0,33,34
 192 33 192 33 205 41.5 c 128,-1,35
 218 50 218 50 228 92 c 0,36,37
 232 108 232 108 253 191.5 c 128,-1,38
 274 275 274 275 274 278.5 c 128,-1,39
 274 282 274 282 269 295 c 2,40,-1
 136 634 l 2,41,42
 131 648 131 648 126.5 653.5 c 128,-1,43
 122 659 122 659 107 663.5 c 128,-1,44
 92 668 92 668 62 668 c 0,45,46
 38 668 38 668 39 681 c 0,47,48
 39 699 39 699 58 699 c 0,49,50
 82 699 82 699 115 697 c 0,51,52
 140 696 140 696 175 696 c 2,53,-1
 180 696 l 2,54,55
 184 696 184 696 191.5 696 c 128,-1,56
 199 696 199 696 207 696.5 c 128,-1,57
 215 697 215 697 223.5 697 c 128,-1,58
 232 697 232 697 239 697 c 0,59,60
 249 697 249 697 271 698 c 128,-1,61
 293 699 293 699 303 699 c 0,62,63
 319 699 319 699 319 686 c 0,64,65
 319 674 319 674 313 671 c 128,-1,66
 307 668 307 668 294 668 c 0,67,68
 236 668 236 668 236 644 c 0,69,70
 236 640 236 640 242 626 c 2,71,-1
 361 322 l 1,72,-1
 605 594 l 1,73,-1
 610 600 l 2,74,75
 615 606 615 606 620.5 613.5 c 128,-1,76
 626 621 626 621 630.5 630 c 128,-1,77
 635 639 635 639 635 645 c 0,78,79
 635 664 635 664 602 668 c 1,80,81
 585 668 585 668 585 681 c 0,82,83
 585 699 585 699 603 699 c 0,84,85
 618 699 618 699 652.5 697.5 c 128,-1,86
 687 696 687 696 703 696 c 0,87,88
 717 696 717 696 731 696.5 c 128,-1,89
 745 697 745 697 754.5 697.5 c 128,-1,90
 764 698 764 698 771.5 698 c 128,-1,91
 779 698 779 698 783 698 c 2,92,-1
 787 699 l 1,93,94
 800 699 800 699 801 686 c 0,95,96
 801 670 801 670 788 668 c 1,97,98
 759 666 759 666 743 662 c 128,-1,99
 727 658 727 658 696 638 c 128,-1,100
 665 618 665 618 630 579 c 2,0,-1
EndSplineSet
Validated: 19457
EndChar

StartChar: Phi
Encoding: 934 934 72
Width: 701
Flags: W
HStem: 0 32<94.1483 226.446 325.191 433.875> 138 26<205.562 255 346 407.469> 536 25<445 493.378> 668 31<262.548 375.324 474.976 604.902>
VStem: 25 95<240.835 390.034> 581 95<306.12 457.48>
LayerCount: 2
Fore
SplineSet
458 612 m 2,0,-1
 445 561 l 1,1,2
 545 553 545 553 610.5 503.5 c 128,-1,3
 676 454 676 454 676 384 c 0,4,5
 676 295 676 295 574 221 c 128,-1,6
 472 147 472 147 339 138 c 1,7,8
 320 60 320 60 319 53 c 0,9,10
 319 43 319 43 325 39.5 c 128,-1,11
 331 36 331 36 353 34 c 0,12,13
 378 32 378 32 407 32 c 0,14,15
 420 32 420 32 425 31.5 c 128,-1,16
 430 31 430 31 434 28 c 128,-1,17
 438 25 438 25 438 18 c 0,18,19
 438 0 438 0 418 0 c 0,20,21
 407 0 407 0 380.5 1 c 128,-1,22
 354 2 354 2 342 2 c 0,23,24
 329 2 329 2 302.5 2.5 c 128,-1,25
 276 3 276 3 263 3 c 0,26,27
 209 3 209 3 189 2 c 0,28,29
 154 0 154 0 112 0 c 0,30,31
 95 0 95 0 94 13 c 0,32,33
 94 25 94 25 101.5 28.5 c 128,-1,34
 109 32 109 32 127 32 c 0,35,36
 178 32 178 32 200 37 c 128,-1,37
 222 42 222 42 229 50.5 c 128,-1,38
 236 59 236 59 242 85 c 2,39,-1
 255 138 l 1,40,41
 151 146 151 146 88 196.5 c 128,-1,42
 25 247 25 247 25 315 c 0,43,44
 25 403 25 403 125 477 c 128,-1,45
 225 551 225 551 361 561 c 1,46,47
 380 642 380 642 381 646 c 0,48,49
 381 656 381 656 375.5 660 c 128,-1,50
 370 664 370 664 349 666 c 0,51,52
 325 668 325 668 296 668 c 0,53,54
 285 668 285 668 280 668 c 128,-1,55
 275 668 275 668 269.5 669.5 c 128,-1,56
 264 671 264 671 262.5 673.5 c 128,-1,57
 261 676 261 676 261 681 c 0,58,59
 261 699 261 699 283 699 c 0,60,61
 294 699 294 699 320 698 c 128,-1,62
 346 697 346 697 358 697 c 0,63,64
 371 697 371 697 397.5 696.5 c 128,-1,65
 424 696 424 696 437 696 c 0,66,67
 491 696 491 696 511 697 c 0,68,69
 546 699 546 699 589 699 c 0,70,71
 605 699 605 699 605 686 c 128,-1,72
 605 673 605 673 598.5 670.5 c 128,-1,73
 592 668 592 668 568 668 c 0,74,75
 519 668 519 668 498 662.5 c 128,-1,76
 477 657 477 657 470.5 648 c 128,-1,77
 464 639 464 639 458 612 c 2,0,-1
261 164 m 1,78,-1
 354 536 l 1,79,80
 297 530 297 530 252.5 507.5 c 128,-1,81
 208 485 208 485 184 457.5 c 128,-1,82
 160 430 160 430 144.5 396 c 128,-1,83
 129 362 129 362 124.5 338 c 128,-1,84
 120 314 120 314 120 294 c 0,85,86
 120 234 120 234 160 203 c 1,87,88
 194 171 194 171 261 164 c 1,78,-1
438 536 m 1,89,-1
 346 164 l 1,90,91
 409 171 409 171 456.5 197 c 128,-1,92
 504 223 504 223 527 252.5 c 128,-1,93
 550 282 550 282 563.5 318 c 128,-1,94
 577 354 577 354 579 372.5 c 128,-1,95
 581 391 581 391 581 406 c 0,96,97
 580 520 580 520 438 536 c 1,89,-1
EndSplineSet
Validated: 19457
EndChar

StartChar: Chi
Encoding: 935 935 73
Width: 868
Flags: W
HStem: 2 30<30.4548 117.56 223.199 271.969 488.311 554.169 677.352 766.976> 668 28<211.024 299.054 426.693 488.703 647.034 694.202 803.996 889.508>
LayerCount: 2
Fore
SplineSet
520 392 m 1,0,-1
 668 63 l 2,1,2
 674 51 674 51 678.5 45.5 c 128,-1,3
 683 40 683 40 698.5 36 c 128,-1,4
 714 32 714 32 742 32 c 0,5,6
 767 32 767 32 767 18 c 0,7,8
 767 0 767 0 748 0 c 2,9,-1
 691 2 l 2,10,11
 666 3 666 3 631 3 c 0,12,13
 620 3 620 3 599.5 2.5 c 128,-1,14
 579 2 579 2 568.5 2 c 128,-1,15
 558 2 558 2 536 1 c 128,-1,16
 514 0 514 0 504 0 c 0,17,18
 489 0 489 0 488 13 c 0,19,20
 488 31 488 31 506 32 c 0,21,22
 525 33 525 33 540 39.5 c 128,-1,23
 555 46 555 46 560.5 52 c 128,-1,24
 566 58 566 58 566 61.5 c 128,-1,25
 566 65 566 65 561 75 c 2,26,-1
 451 321 l 1,27,28
 445 314 445 314 397 263 c 2,29,-1
 342 206 l 1,30,-1
 263 125 l 2,31,32
 236 96 236 96 227.5 84.5 c 128,-1,33
 219 73 219 73 219 61 c 0,34,35
 219 36 219 36 258 32 c 1,36,37
 272 32 272 32 272 18 c 0,38,39
 272 0 272 0 252 0 c 0,40,41
 244 0 244 0 225 1 c 128,-1,42
 206 2 206 2 196.5 2 c 128,-1,43
 187 2 187 2 168.5 2.5 c 128,-1,44
 150 3 150 3 140 3 c 0,45,46
 100 3 100 3 91 2 c 0,47,48
 88 2 88 2 67.5 1 c 128,-1,49
 47 0 47 0 44 0 c 0,50,51
 30 0 30 0 30 13 c 0,52,53
 30 29 30 29 53 32 c 0,54,55
 94 35 94 35 128.5 51.5 c 128,-1,56
 163 68 163 68 182.5 84.5 c 128,-1,57
 202 101 202 101 242 141 c 0,58,59
 248 147 248 147 266.5 167.5 c 128,-1,60
 285 188 285 188 291 194 c 0,61,62
 308 211 308 211 373 279 c 128,-1,63
 438 347 438 347 438 349 c 0,64,65
 438 350 438 350 435 356 c 2,66,-1
 432 362 l 1,67,-1
 310 636 l 2,68,69
 304 648 304 648 299.5 653.5 c 128,-1,70
 295 659 295 659 279.5 663.5 c 128,-1,71
 264 668 264 668 236 668 c 0,72,73
 211 668 211 668 211 681 c 0,74,75
 211 699 211 699 230 699 c 2,76,-1
 287 697 l 2,77,78
 312 696 312 696 347 696 c 0,79,80
 358 696 358 696 378.5 696.5 c 128,-1,81
 399 697 399 697 409.5 697 c 128,-1,82
 420 697 420 697 442 698 c 128,-1,83
 464 699 464 699 474 699 c 0,84,85
 489 699 489 699 489 686 c 0,86,87
 489 668 489 668 472 668 c 0,88,89
 453 667 453 667 438 660 c 128,-1,90
 423 653 423 653 417.5 647 c 128,-1,91
 412 641 412 641 412 638 c 128,-1,92
 412 635 412 635 417 625 c 2,93,-1
 508 420 l 1,94,-1
 676 595 l 2,95,96
 700 619 700 619 700 637 c 0,97,98
 700 637 700 637 700 638 c 0,99,100
 700 663 700 663 662 668 c 1,101,102
 648 668 648 668 647 681 c 0,103,104
 647 699 647 699 667 699 c 0,105,106
 675 699 675 699 694.5 698 c 128,-1,107
 714 697 714 697 723 697 c 128,-1,108
 732 697 732 697 751 696.5 c 128,-1,109
 770 696 770 696 779 696 c 0,110,111
 819 696 819 696 828 697 c 0,112,113
 831 697 831 697 851.5 698 c 128,-1,114
 872 699 872 699 876 699 c 0,115,116
 890 699 890 699 890 686 c 0,117,118
 890 670 890 670 866 668 c 0,119,120
 825 665 825 665 791 648.5 c 128,-1,121
 757 632 757 632 736 614 c 128,-1,122
 715 596 715 596 676 556 c 1,123,124
 656 533 656 533 630 508 c 0,125,126
 626 504 626 504 580.5 455 c 128,-1,127
 535 406 535 406 520 392 c 1,0,-1
EndSplineSet
Validated: 3073
EndChar

StartChar: Psi
Encoding: 936 936 74
Width: 717
Flags: W
HStem: 0 32<72.1494 203.518 302.676 411.875> 139 27<205.875 232> 543 23<29.0156 57.4714 699.342 723.875> 668 31<240.548 352.325 461.028 581.406>
VStem: 58 79<229.377 450.202> 79 83<346.29 533.565>
LayerCount: 2
Fore
SplineSet
437 618 m 2,0,-1
 324 167 l 1,1,2
 479 202 479 202 535 416 c 0,3,4
 560 508 560 508 592.5 538 c 128,-1,5
 625 568 625 568 670 568 c 2,6,-1
 699 568 l 2,7,8
 710 568 710 568 715 567.5 c 128,-1,9
 720 567 720 567 724 564 c 128,-1,10
 728 561 728 561 728 555 c 0,11,12
 728 545 728 545 712 543 c 0,13,14
 652 535 652 535 617 413 c 0,15,16
 584 293 584 293 513 225 c 0,17,18
 432 149 432 149 316 138 c 1,19,20
 297 60 297 60 297 53 c 0,21,22
 297 43 297 43 302.5 39.5 c 128,-1,23
 308 36 308 36 331 34 c 0,24,25
 356 32 356 32 384 32 c 0,26,27
 397 32 397 32 402.5 31.5 c 128,-1,28
 408 31 408 31 412 28 c 128,-1,29
 416 25 416 25 416 18 c 0,30,31
 416 0 416 0 395 0 c 0,32,33
 384 0 384 0 358 1 c 128,-1,34
 332 2 332 2 319 2 c 128,-1,35
 306 2 306 2 280 2.5 c 128,-1,36
 254 3 254 3 241 3 c 0,37,38
 187 3 187 3 167 2 c 0,39,40
 132 0 132 0 89 0 c 0,41,42
 72 0 72 0 72 13 c 0,43,44
 72 25 72 25 79 28.5 c 128,-1,45
 86 32 86 32 104 32 c 0,46,47
 156 32 156 32 178 37 c 128,-1,48
 200 42 200 42 206.5 51 c 128,-1,49
 213 60 213 60 220 88 c 2,50,-1
 232 139 l 1,51,52
 58 163 58 163 58 330 c 0,53,54
 58 372 58 372 71 425 c 0,55,56
 79 459 79 459 79 484 c 0,57,58
 79 515 79 515 70.5 528 c 128,-1,59
 62 541 62 541 45 543 c 1,60,61
 29 546 29 546 29 555 c 128,-1,62
 29 564 29 564 35 566 c 128,-1,63
 41 568 41 568 58 568 c 2,64,-1
 87 568 l 2,65,66
 101 568 101 568 110.5 566.5 c 128,-1,67
 120 565 120 565 133.5 558 c 128,-1,68
 147 551 147 551 154.5 532.5 c 128,-1,69
 162 514 162 514 162 484 c 0,70,71
 162 453 162 453 151 406 c 1,72,73
 138 355 138 355 137 311 c 0,74,75
 137 188 137 188 240 166 c 1,76,-1
 355 627 l 2,77,78
 358 636 358 636 358 646 c 128,-1,79
 358 656 358 656 352.5 660 c 128,-1,80
 347 664 347 664 327 666 c 0,81,82
 303 668 303 668 273 668 c 0,83,84
 262 668 262 668 257.5 668 c 128,-1,85
 253 668 253 668 247.5 669.5 c 128,-1,86
 242 671 242 671 240.5 673.5 c 128,-1,87
 239 676 239 676 239 681 c 0,88,89
 239 699 239 699 260 699 c 0,90,91
 271 699 271 699 297.5 698 c 128,-1,92
 324 697 324 697 336 697 c 0,93,94
 349 697 349 697 375 696.5 c 128,-1,95
 401 696 401 696 415 696 c 0,96,97
 469 696 469 696 488 697 c 0,98,99
 523 699 523 699 566 699 c 0,100,101
 582 699 582 699 582.5 686 c 128,-1,102
 583 673 583 673 575.5 670.5 c 128,-1,103
 568 668 568 668 545 668 c 0,104,105
 477 668 477 668 460.5 659 c 128,-1,106
 444 650 444 650 437 618 c 2,0,-1
EndSplineSet
Validated: 19457
EndChar

StartChar: Omega
Encoding: 937 937 75
Width: 843
Flags: W
HStem: 0 66<119.167 261.597 531 673.357> 696 26<476.375 627.246>
VStem: 85 29<72.231 164.998> 168 97<296.1 499.789> 262 30<66.4492 156.382> 722 28<128.107 164.971> 725 98<430.496 600.14>
LayerCount: 2
Fore
SplineSet
531 66 m 1,0,-1
 611 66 l 2,1,2
 640 66 640 66 654.5 68 c 128,-1,3
 669 70 669 70 673.5 73 c 128,-1,4
 678 76 678 76 683 84 c 0,5,6
 696 104 696 104 718 147 c 0,7,8
 721 153 721 153 722 155.5 c 128,-1,9
 723 158 723 158 725 161 c 128,-1,10
 727 164 727 164 729.5 164.5 c 128,-1,11
 732 165 732 165 735 165 c 0,12,13
 749 165 749 165 750 152 c 0,14,15
 750 149 750 149 683 15 c 0,16,17
 677 4 677 4 672.5 2 c 128,-1,18
 668 0 668 0 650 0 c 2,19,-1
 514 0 l 2,20,21
 503 0 503 0 498.5 0.5 c 128,-1,22
 494 1 494 1 489.5 4 c 128,-1,23
 485 7 485 7 485 13 c 0,24,25
 485 41 485 41 522 114 c 0,26,27
 539 149 539 149 596 238 c 1,28,29
 640 306 640 306 661 341 c 128,-1,30
 682 376 682 376 703.5 432 c 128,-1,31
 725 488 725 488 725 535 c 0,32,33
 725 613 725 613 676 654.5 c 128,-1,34
 627 696 627 696 556 696 c 0,35,36
 517 696 517 696 477 683.5 c 128,-1,37
 437 671 437 671 398.5 643.5 c 128,-1,38
 360 616 360 616 330.5 579 c 128,-1,39
 301 542 301 542 283 488 c 128,-1,40
 265 434 265 434 265 373 c 0,41,42
 265 321 265 321 278 250 c 1,43,44
 292 148 292 148 292 106 c 0,45,46
 292 70 292 70 286 37 c 0,47,48
 282 10 282 10 276.5 5 c 128,-1,49
 271 0 271 0 251 0 c 2,50,-1
 115 0 l 2,51,52
 93 0 93 0 89 4 c 128,-1,53
 85 8 85 8 85 31 c 2,54,-1
 85 134 l 2,55,56
 85 151 85 151 87 158 c 128,-1,57
 89 165 89 165 99.5 165 c 128,-1,58
 110 165 110 165 112 159 c 128,-1,59
 114 153 114 153 114 136 c 0,60,61
 114 79 114 79 119 72 c 0,62,63
 124 66 124 66 174 66 c 2,64,-1
 262 66 l 1,65,66
 262 106 262 106 252.5 139.5 c 128,-1,67
 243 173 243 173 218 229 c 0,68,69
 201 270 201 270 192 291.5 c 128,-1,70
 183 313 183 313 175.5 346 c 128,-1,71
 168 379 168 379 168 409 c 0,72,73
 168 496 168 496 226 569 c 128,-1,74
 284 642 284 642 372.5 682 c 128,-1,75
 461 722 461 722 556 722 c 0,76,77
 678 722 678 722 750.5 661 c 128,-1,78
 823 600 823 600 823 512 c 0,79,80
 823 464 823 464 795.5 408.5 c 128,-1,81
 768 353 768 353 738.5 317.5 c 128,-1,82
 709 282 709 282 660 230 c 1,83,84
 563 131 563 131 531 66 c 1,0,-1
EndSplineSet
Validated: 19457
EndChar

StartChar: alpha
Encoding: 945 945 76
Width: 673
Flags: W
HStem: -11 25<168.453 293.794 519.011 568.489> 427 26<268.917 369.597>
VStem: 44 79<71.2631 250.827> 428.5 73.5<104.607 166.297 183 354.9> 605 27<355.594 401.989>
LayerCount: 2
Fore
SplineSet
502 241 m 2,0,-1
 502 183 l 1,1,2
 569 272 569 272 601 383 c 0,3,4
 604 393 604 393 605 395.5 c 128,-1,5
 606 398 606 398 609 400 c 128,-1,6
 612 402 612 402 618 402 c 0,7,8
 631 402 631 402 632 391 c 0,9,10
 632 387 632 387 627 369 c 128,-1,11
 622 351 622 351 610.5 320.5 c 128,-1,12
 599 290 599 290 585 262 c 0,13,14
 556 206 556 206 513 153 c 0,15,16
 504 142 504 142 504 126 c 0,17,18
 504 14 504 14 537 14 c 0,19,20
 552 14 552 14 568.5 26.5 c 128,-1,21
 585 39 585 39 593 59 c 1,22,23
 597 72 597 72 608 73 c 0,24,25
 622 73 622 73 623 61 c 0,26,27
 623 43 623 43 596.5 16 c 128,-1,28
 570 -11 570 -11 533.5 -11 c 128,-1,29
 497 -11 497 -11 471.5 12 c 128,-1,30
 446 35 446 35 436 75 c 1,31,32
 324 -11 324 -11 215 -11 c 0,33,34
 140 -11 140 -11 92 37 c 128,-1,35
 44 85 44 85 44 164 c 0,36,37
 44 274 44 274 131 363.5 c 128,-1,38
 218 453 218 453 324 453 c 0,39,40
 398 453 398 453 450 400 c 128,-1,41
 502 347 502 347 502 241 c 2,0,-1
431 104 m 1,42,43
 429 123 429 123 428.5 198 c 128,-1,44
 428 273 428 273 424 304 c 0,45,46
 406 427 406 427 324 427 c 0,47,48
 283 427 283 427 244.5 400 c 128,-1,49
 206 373 206 373 183 337 c 0,50,51
 155 292 155 292 139 228.5 c 128,-1,52
 123 165 123 165 123 126 c 0,53,54
 123 72 123 72 148.5 43 c 128,-1,55
 174 14 174 14 218 14 c 0,56,57
 323 14 323 14 431 104 c 1,42,43
EndSplineSet
Validated: 19457
EndChar

StartChar: beta
Encoding: 946 946 77
Width: 620
Flags: W
HStem: -199 21G<42.5 51> -11 26<214.679 339.341> 378 25<313.509 409.264> 416 25<313.859 409.247> 697 26<384.366 496.747>
VStem: 489 69<158.555 348.985> 539 61<508.419 660.614>
LayerCount: 2
Fore
SplineSet
600 586 m 0,0,1
 600 532 600 532 563 481.5 c 128,-1,2
 526 431 526 431 483 410 c 1,3,4
 518 388 518 388 538 345 c 128,-1,5
 558 302 558 302 558 254 c 0,6,7
 558 151 558 151 481 77 c 0,8,9
 390 -11 390 -11 271 -11 c 0,10,11
 168 -11 168 -11 130 86 c 1,12,-1
 59 -194 l 2,13,14
 57 -199 57 -199 45 -199 c 0,15,16
 40 -199 40 -199 35.5 -195 c 128,-1,17
 31 -191 31 -191 32 -187 c 2,18,-1
 193 457 l 1,19,20
 245 641 245 641 367 703 c 0,21,22
 403 722 403 722 442 723 c 0,23,24
 519 723 519 723 559.5 683 c 128,-1,25
 600 643 600 643 600 586 c 0,0,1
410 411 m 1,26,27
 394 416 394 416 358 416 c 0,28,29
 325 416 325 416 313 409 c 1,30,31
 327 404 327 404 358 403 c 0,32,33
 381 404 381 404 410 411 c 1,26,27
539 603 m 0,34,35
 539 652 539 652 511.5 674.5 c 128,-1,36
 484 697 484 697 443 697 c 0,37,38
 401 697 401 697 363 672.5 c 128,-1,39
 325 648 325 648 297.5 609 c 128,-1,40
 270 570 270 570 251.5 531.5 c 128,-1,41
 233 493 233 493 223 457 c 1,42,-1
 154 177 l 2,43,44
 151 166 151 166 151 144 c 0,45,46
 151 87 151 87 183.5 51 c 128,-1,47
 216 15 216 15 272 15 c 0,48,49
 356 15 356 15 421 85 c 0,50,51
 489 159 489 159 489 279 c 0,52,53
 489 281 489 281 489 283 c 0,54,55
 489 362 489 362 445 392 c 1,56,57
 390 378 390 378 354 378 c 0,58,59
 283 378 283 378 283 406 c 0,60,61
 283 406 283 406 283 407 c 0,62,63
 283 441 283 441 362 441 c 0,64,65
 364 441 364 441 367 441 c 0,66,67
 414 441 414 441 447 429 c 1,68,69
 486 447 486 447 512.5 500 c 128,-1,70
 539 553 539 553 539 603 c 0,34,35
EndSplineSet
Validated: 3073
EndChar

StartChar: gamma
Encoding: 947 947 78
Width: 588
Flags: W
HStem: 377 76<139.988 292.387> 421 20G<550.5 561.5>
VStem: 18 29<255.011 297.271> 315 33.5<-218.934 -156.246> 379 29<135 244.867>
LayerCount: 2
Fore
SplineSet
408 135 m 1,0,1
 453 253 453 253 472 292 c 1,2,3
 514 386 514 386 542 435 c 0,4,5
 546 441 546 441 555 441 c 0,6,7
 568 441 568 441 568 430 c 0,8,9
 568 426 568 426 551 393 c 0,10,11
 509 310 509 310 473 222.5 c 128,-1,12
 437 135 437 135 420.5 88 c 128,-1,13
 404 41 404 41 403 33 c 0,14,15
 388 -71 388 -71 364 -159 c 0,16,17
 356 -188 356 -188 348.5 -202.5 c 128,-1,18
 341 -217 341 -217 338 -219 c 128,-1,19
 335 -221 335 -221 330 -221 c 0,20,21
 316 -221 316 -221 315 -199 c 0,22,23
 315 -159 315 -159 370 25 c 1,24,25
 379 51 379 51 379 115 c 0,26,27
 379 139 379 139 377.5 158 c 128,-1,28
 376 177 376 177 371.5 211 c 128,-1,29
 367 245 367 245 355.5 271 c 128,-1,30
 344 297 344 297 326.5 322.5 c 128,-1,31
 309 348 309 348 278.5 362.5 c 128,-1,32
 248 377 248 377 209 377 c 0,33,34
 193 377 193 377 173.5 372.5 c 128,-1,35
 154 368 154 368 128.5 357 c 128,-1,36
 103 346 103 346 80.5 322.5 c 128,-1,37
 58 299 58 299 47 265 c 0,38,39
 43 255 43 255 33 255 c 0,40,41
 19 255 19 255 18 266 c 0,42,43
 18 280 18 280 32.5 309.5 c 128,-1,44
 47 339 47 339 71 371.5 c 128,-1,45
 95 404 95 404 136 428.5 c 128,-1,46
 177 453 177 453 222 453 c 0,47,48
 311 453 311 453 358 351 c 1,49,50
 403 254 403 254 408 135 c 1,0,1
EndSplineSet
Validated: 19457
EndChar

StartChar: delta
Encoding: 948 948 79
Width: 492
Flags: W
HStem: -12 25<164.832 252.871> 640 78<380.335 460.649> 693 36<255.926 358.771>
VStem: 44 68<69.0165 253.986> 210 32<601.092 678.562> 345 76<160.177 351.398>
LayerCount: 2
Fore
SplineSet
274 446 m 1,0,1
 210 559 210 559 210 622 c 0,2,3
 210 623 210 623 210 624 c 0,4,5
 210 639 210 639 214.5 654.5 c 128,-1,6
 219 670 219 670 230.5 688.5 c 128,-1,7
 242 707 242 707 267 718 c 128,-1,8
 292 729 292 729 328 729 c 0,9,10
 361 729 361 729 411 718 c 0,11,12
 450 710 450 710 461 704 c 128,-1,13
 472 698 472 698 472 682 c 128,-1,14
 472 666 472 666 459.5 653 c 128,-1,15
 447 640 447 640 431 640 c 0,16,17
 418 640 418 640 372 667 c 1,18,19
 333 693 333 693 300 693 c 0,20,21
 299 693 299 693 298 693 c 0,22,23
 269 693 269 693 255.5 679 c 128,-1,24
 242 665 242 665 242 648 c 0,25,26
 242 603 242 603 344 477 c 0,27,28
 367 449 367 449 379.5 430.5 c 128,-1,29
 392 412 392 412 406.5 372 c 128,-1,30
 421 332 421 332 421 289 c 0,31,32
 421 175 421 175 360 81.5 c 128,-1,33
 299 -12 299 -12 213 -12 c 0,34,35
 142 -12 142 -12 93 34.5 c 128,-1,36
 44 81 44 81 44 163 c 0,37,38
 44 261 44 261 114 344 c 128,-1,39
 184 427 184 427 274 446 c 1,0,1
289 422 m 1,40,41
 240 409 240 409 202.5 371 c 128,-1,42
 165 333 165 333 146.5 287 c 128,-1,43
 128 241 128 241 120 202.5 c 128,-1,44
 112 164 112 164 112 134 c 0,45,46
 112 72 112 72 142 42.5 c 128,-1,47
 172 13 172 13 212 13 c 0,48,49
 254 13 254 13 286 56.5 c 128,-1,50
 318 100 318 100 331.5 151.5 c 128,-1,51
 345 203 345 203 345 247 c 0,52,53
 345 323 345 323 289 422 c 1,40,41
EndSplineSet
Validated: 3073
EndChar

StartChar: varepsilon
Encoding: 949 949 80
Width: 488
Flags: W
HStem: -23 52<100.429 305.76> 216 26<186.684 291.45> 254 26<186.719 291.499> 413 51<195.349 386.574>
VStem: 29 28<74.878 159.313> 79 29<279.537 353.302>
LayerCount: 2
Fore
SplineSet
147 230 m 1,0,1
 107 211 107 211 82 177 c 128,-1,2
 57 143 57 143 57 115 c 0,3,4
 57 102 57 102 62 90 c 128,-1,5
 67 78 67 78 81 62.5 c 128,-1,6
 95 47 95 47 128.5 38 c 128,-1,7
 162 29 162 29 211 29 c 0,8,9
 336 29 336 29 370 82 c 0,10,11
 379 97 379 97 385 97 c 0,12,13
 397 97 397 97 397 85 c 128,-1,14
 397 73 397 73 378 49.5 c 128,-1,15
 359 26 359 26 310.5 1.5 c 128,-1,16
 262 -23 262 -23 200 -23 c 0,17,18
 125 -23 125 -23 77 14 c 128,-1,19
 29 51 29 51 29 109 c 0,20,21
 29 154 29 154 57.5 190 c 128,-1,22
 86 226 86 226 120 246 c 1,23,24
 79 274 79 274 79 316 c 0,25,26
 79 372 79 372 149.5 418 c 128,-1,27
 220 464 220 464 313 464 c 0,28,29
 362 464 362 464 397 446 c 0,30,31
 448 421 448 421 449 403 c 0,32,33
 449 391 449 391 439 383 c 128,-1,34
 429 375 429 375 420 375 c 0,35,36
 412 375 412 375 400 382 c 0,37,38
 357 413 357 413 302 413 c 0,39,40
 225 413 225 413 166.5 385.5 c 128,-1,41
 108 358 108 358 108 316 c 0,42,43
 108 281 108 281 148 260 c 1,44,45
 194 279 194 279 247 280 c 0,46,47
 323 280 323 280 323 250 c 0,48,49
 323 216 323 216 238 216 c 0,50,51
 184 216 184 216 147 230 c 1,0,1
186 246 m 1,52,53
 203 242 203 242 238 242 c 0,54,55
 275 242 275 242 292 249 c 1,56,57
 266 254 266 254 246 254 c 0,58,59
 215 254 215 254 186 246 c 1,52,53
EndSplineSet
Validated: 19457
EndChar

StartChar: zeta
Encoding: 950 950 81
Width: 515
Flags: W
HStem: -210 26<240.556 324.448> 568 26<365.2 461.908> 606 26<365.699 462.203>
VStem: 48 61<108.318 305.622> 310 29<622.225 712.418> 348 58<-156.259 -72.6239>
LayerCount: 2
Fore
SplineSet
336 588 m 1,0,1
 251 539 251 539 180 425.5 c 128,-1,2
 109 312 109 312 109 201 c 0,3,4
 109 160 109 160 119.5 131 c 128,-1,5
 130 102 130 102 154 85 c 128,-1,6
 178 68 178 68 195.5 60 c 128,-1,7
 213 52 213 52 247 41 c 0,8,9
 258 37 258 37 278.5 30.5 c 128,-1,10
 299 24 299 24 314 19 c 128,-1,11
 329 14 329 14 332 13 c 0,12,13
 406 -15 406 -15 406 -86 c 0,14,15
 406 -132 406 -132 372.5 -171 c 128,-1,16
 339 -210 339 -210 293 -210 c 0,17,18
 257 -210 257 -210 223 -191 c 128,-1,19
 189 -172 189 -172 189 -161 c 0,20,21
 189 -149 189 -149 202 -148 c 0,22,23
 208 -148 208 -148 215 -155 c 0,24,25
 252 -184 252 -184 290 -184 c 0,26,27
 291 -184 291 -184 293 -184 c 0,28,29
 317 -184 317 -184 332.5 -163 c 128,-1,30
 348 -142 348 -142 348 -119 c 0,31,32
 348 -102 348 -102 342 -90 c 128,-1,33
 336 -78 336 -78 321 -69 c 128,-1,34
 306 -60 306 -60 294.5 -55.5 c 128,-1,35
 283 -51 283 -51 258 -43 c 0,36,37
 176 -17 176 -17 147.5 -4 c 128,-1,38
 119 9 119 9 93 37 c 0,39,40
 48 87 48 87 48 172 c 0,41,42
 48 303 48 303 132 428.5 c 128,-1,43
 216 554 216 554 321 610 c 1,44,45
 311 630 311 630 310 660 c 0,46,47
 310 713 310 713 330 714 c 0,48,49
 344 714 344 714 344 700 c 0,50,51
 344 699 344 699 341.5 686.5 c 128,-1,52
 339 674 339 674 339 659 c 0,53,54
 339 635 339 635 345 622 c 1,55,56
 372 632 372 632 411 632 c 0,57,58
 495 632 495 632 495 602 c 0,59,60
 495 568 495 568 400 568 c 0,61,62
 356 569 356 569 336 588 c 1,0,1
365 600 m 1,63,64
 376 594 376 594 401 594 c 0,65,66
 441 594 441 594 463 601 c 1,67,68
 438 606 438 606 410 606 c 0,69,70
 379 606 379 606 365 600 c 1,63,64
EndSplineSet
Validated: 3073
EndChar

StartChar: eta
Encoding: 951 951 82
Width: 543
Flags: W
HStem: -11 21G<109.5 131> 427 26<107.41 161.417 337.262 435.206>
VStem: 30 25<283.047 326.833> 169 56<268.356 330.5> 454 69<246.938 414.068>
LayerCount: 2
Fore
SplineSet
515 283 m 2,0,-1
 399 -179 l 2,1,2
 389 -221 389 -221 356 -221 c 0,3,4
 342 -221 342 -221 333.5 -213 c 128,-1,5
 325 -205 325 -205 325 -191 c 0,6,7
 325 -183 325 -183 329 -169 c 2,8,-1
 444 290 l 1,9,10
 453 331 453 331 454 355 c 0,11,12
 454 427 454 427 398 427 c 0,13,14
 337 427 337 427 290 383 c 0,15,16
 274 367 274 367 258 345.5 c 128,-1,17
 242 324 242 324 234.5 310.5 c 128,-1,18
 227 297 227 297 225 292 c 1,19,20
 225 289 225 289 219.5 267 c 128,-1,21
 214 245 214 245 206 212.5 c 128,-1,22
 198 180 198 180 194 161 c 2,23,-1
 170 70 l 2,24,25
 157 17 157 17 154 10 c 0,26,27
 143 -11 143 -11 119 -11 c 0,28,29
 118 -11 118 -11 117 -11 c 0,30,31
 102 -11 102 -11 93.5 -2 c 128,-1,32
 85 7 85 7 85 18 c 0,33,34
 85 23 85 23 92 48 c 1,35,-1
 133 216 l 2,36,37
 135 221 135 221 138.5 236 c 128,-1,38
 142 251 142 251 147 270 c 128,-1,39
 152 289 152 289 155 299 c 0,40,41
 169 361 169 361 169 379 c 0,42,43
 169 427 169 427 138 427 c 0,44,45
 112 427 112 427 95 399 c 128,-1,46
 78 371 78 371 62 308 c 0,47,48
 58 292 58 292 55 287.5 c 128,-1,49
 52 283 52 283 44 283 c 0,50,51
 30 283 30 283 30 295 c 0,52,53
 30 298 30 298 34 314 c 128,-1,54
 38 330 38 330 45.5 353.5 c 128,-1,55
 53 377 53 377 61 393 c 0,56,57
 92 452 92 452 140 453 c 0,58,59
 179 453 179 453 207.5 428.5 c 128,-1,60
 236 404 236 404 240 364 c 1,61,62
 308 453 308 453 401 453 c 0,63,64
 451 453 451 453 487 427 c 128,-1,65
 523 401 523 401 523 340 c 0,66,67
 523 315 523 315 515 283 c 2,0,-1
EndSplineSet
Validated: 3073
EndChar

StartChar: theta
Encoding: 952 952 83
Width: 497
Flags: W
HStem: -11 25<141.677 209.066> 339 33<154 366> 696 26<309.807 378.742>
VStem: 42 72<74.5 299.768> 407 70<414.774 638.674>
LayerCount: 2
Fore
SplineSet
477 507 m 0,0,1
 477 394 477 394 432.5 273 c 128,-1,2
 388 152 388 152 315.5 70.5 c 128,-1,3
 243 -11 243 -11 171 -11 c 0,4,5
 133 -11 133 -11 106 11.5 c 128,-1,6
 79 34 79 34 66 69 c 128,-1,7
 53 104 53 104 47.5 137.5 c 128,-1,8
 42 171 42 171 42 203 c 0,9,10
 42 316 42 316 86.5 437 c 128,-1,11
 131 558 131 558 203.5 640 c 128,-1,12
 276 722 276 722 348 722 c 0,13,14
 414 722 414 722 445.5 659 c 128,-1,15
 477 596 477 596 477 507 c 0,0,1
154 372 m 1,16,-1
 375 372 l 1,17,18
 407 505 407 505 407 569 c 0,19,20
 407 696 407 696 347 696 c 0,21,22
 297 696 297 696 238 598 c 0,23,24
 192 520 192 520 154 372 c 1,16,-1
366 339 m 1,25,-1
 145 339 l 1,26,27
 114 210 114 210 114 146 c 0,28,29
 114 144 114 144 114 142 c 0,30,31
 114 14 114 14 172 14 c 0,32,33
 227 14 227 14 289 125 c 0,34,35
 330 198 330 198 366 339 c 1,25,-1
EndSplineSet
Validated: 3073
EndChar

StartChar: iota
Encoding: 953 953 84
Width: 371
Flags: W
HStem: -11 25<132.586 204.765> 433 20G<183 204.5>
VStem: 57 66<15.6874 130.639> 157 72<337.653 443.718> 313 28<113.227 158.882>
LayerCount: 2
Fore
SplineSet
341 146 m 0,0,1
 341 124 341 124 318.5 88.5 c 128,-1,2
 296 53 296 53 249 21 c 128,-1,3
 202 -11 202 -11 147 -11 c 0,4,5
 106 -11 106 -11 81.5 13.5 c 128,-1,6
 57 38 57 38 57 75 c 0,7,8
 57 95 57 95 73.5 139 c 128,-1,9
 90 183 90 183 92 193 c 0,10,11
 104 230 104 230 105 234 c 0,12,13
 106 237 106 237 117.5 277 c 128,-1,14
 129 317 129 317 133 330 c 0,15,16
 135 338 135 338 144 374.5 c 128,-1,17
 153 411 153 411 157 422 c 0,18,19
 168 453 168 453 198 453 c 0,20,21
 211 453 211 453 220 444 c 128,-1,22
 229 435 229 435 229 423 c 0,23,24
 229 419 229 419 218 374 c 128,-1,25
 207 329 207 329 185 253 c 128,-1,26
 163 177 163 177 140 117 c 0,27,28
 123 71 123 71 123 47 c 0,29,30
 123 32 123 32 128 24 c 128,-1,31
 133 16 133 16 137.5 15 c 128,-1,32
 142 14 142 14 150 14 c 0,33,34
 191 14 191 14 241 46 c 128,-1,35
 291 78 291 78 313 147 c 1,36,37
 315 158 315 158 328 159 c 0,38,39
 341 158 341 158 341 146 c 0,0,1
EndSplineSet
Validated: 19457
EndChar

StartChar: kappa
Encoding: 954 954 85
Width: 606
Flags: W
HStem: -11 25<432.445 489.699> 349 92<452.315 525.341> 433 20G<180.5 204.5>
VStem: 56 69<-1.71826 63.2963> 355 69<25.5 147.656> 362 74<92.4387 194.219> 442 96<361.584 405.922> 551 24<117.209 158.969>
LayerCount: 2
Fore
SplineSet
229 423 m 1,0,-1
 191 267 l 1,1,2
 222 277 222 277 246 293.5 c 128,-1,3
 270 310 270 310 322 352 c 0,4,5
 358 381 358 381 376.5 395 c 128,-1,6
 395 409 395 409 430.5 425 c 128,-1,7
 466 441 466 441 496 441 c 0,8,9
 514 441 514 441 525 432 c 128,-1,10
 536 423 536 423 537 417 c 128,-1,11
 538 411 538 411 538 404 c 0,12,13
 538 385 538 385 521.5 367 c 128,-1,14
 505 349 505 349 481 349 c 0,15,16
 462 349 462 349 452 360.5 c 128,-1,17
 442 372 442 372 442 386 c 0,18,19
 442 389 442 389 443 393 c 128,-1,20
 444 397 444 397 445 401 c 2,21,-1
 446 406 l 1,22,23
 407 390 407 390 334 331 c 1,24,25
 268 278 268 278 237 260 c 1,26,27
 325 254 325 254 364 240 c 0,28,29
 436 214 436 214 436 154 c 0,30,31
 436 153 436 153 436 152 c 0,32,33
 436 136 436 136 431 118 c 1,34,-1
 430 109 l 2,35,36
 428 101 428 101 426 88 c 128,-1,37
 424 75 424 75 424 63 c 0,38,39
 424 14 424 14 457 14 c 0,40,41
 513 14 513 14 544 135 c 0,42,43
 548 149 548 149 551 154 c 128,-1,44
 554 159 554 159 562 159 c 0,45,46
 575 159 575 159 575 146 c 0,47,48
 575 143 575 143 571 127 c 128,-1,49
 567 111 567 111 557 85 c 128,-1,50
 547 59 547 59 536 42 c 0,51,52
 503 -11 503 -11 454 -11 c 0,53,54
 412 -11 412 -11 383.5 18 c 128,-1,55
 355 47 355 47 355 92 c 0,56,57
 355 106 355 106 359 125 c 0,58,59
 362 137 362 137 362 148 c 0,60,61
 362 197 362 197 294 219 c 0,62,63
 251 232 251 232 182 234 c 1,64,65
 130 19 130 19 125 10 c 0,66,67
 114 -11 114 -11 90 -11 c 0,68,69
 89 -11 89 -11 88 -11 c 0,70,71
 73 -11 73 -11 64.5 -2 c 128,-1,72
 56 7 56 7 56 18 c 0,73,74
 56 20 56 20 59 36 c 2,75,-1
 155 413 l 1,76,77
 163 453 163 453 198 453 c 0,78,79
 211 453 211 453 220 444 c 128,-1,80
 229 435 229 435 229 423 c 1,0,-1
EndSplineSet
Validated: 3073
EndChar

StartChar: lambda
Encoding: 955 955 86
Width: 613
Flags: W
HStem: -13 21G<82 95.5 529 571.5> 685 26<179.051 223.208>
LayerCount: 2
Fore
SplineSet
375 296 m 1,0,-1
 122 6 l 1,1,2
 103 -13 103 -13 88 -13 c 0,3,4
 76 -13 76 -13 65.5 -5 c 128,-1,5
 55 3 55 3 55 18 c 0,6,7
 55 32 55 32 74 51 c 2,8,-1
 362 330 l 1,9,-1
 257 613 l 2,10,11
 248 637 248 637 242 648.5 c 128,-1,12
 236 660 236 660 224.5 671.5 c 128,-1,13
 213 683 213 683 199 685 c 0,14,15
 180 687 180 687 179 697 c 0,16,17
 179 710 179 710 202 711 c 0,18,19
 303 711 303 711 330 641 c 2,20,-1
 548 55 l 2,21,22
 558 25 558 25 571 11 c 0,23,24
 577 5 577 5 578 0 c 0,25,26
 578 -9 578 -9 565 -11 c 1,27,-1
 542 -11 l 2,28,29
 516 -11 516 -11 506.5 -7 c 128,-1,30
 497 -3 497 -3 482 15 c 0,31,32
 478 21 478 21 465.5 55.5 c 128,-1,33
 453 90 453 90 426 162.5 c 128,-1,34
 399 235 399 235 375 296 c 1,0,-1
EndSplineSet
Validated: 19457
EndChar

StartChar: mu
Encoding: 956 956 87
Width: 633
Flags: W
HStem: -11 25<216.601 312.688 471.775 526.034> 421 20G<506.5 521.5> 433 20G<207.5 231.5>
VStem: 475.5 69.5<331.875 431.718> 572 31<87.3765 158.844>
LayerCount: 2
Fore
SplineSet
243 366 m 1,0,-1
 200 194 l 2,1,2
 186 134 186 134 185 104 c 0,3,4
 185 14 185 14 262 14 c 0,5,6
 286 14 286 14 309 24 c 128,-1,7
 332 34 332 34 347 47.5 c 128,-1,8
 362 61 362 61 374 76.5 c 128,-1,9
 386 92 386 92 391.5 102 c 128,-1,10
 397 112 397 112 398 114 c 0,11,12
 405 141 405 141 445 300 c 2,13,-1
 467 385 l 2,14,15
 472 403 472 403 475.5 413 c 128,-1,16
 479 423 479 423 489 432 c 128,-1,17
 499 441 499 441 514 441 c 128,-1,18
 529 441 529 441 537.5 432 c 128,-1,19
 546 423 546 423 545 412 c 0,20,21
 545 410 545 410 542.5 397 c 128,-1,22
 540 384 540 384 534.5 364 c 128,-1,23
 529 344 529 344 527 334 c 2,24,-1
 504 243 l 1,25,-1
 478 137 l 2,26,27
 464 82 464 82 464 61 c 0,28,29
 464 14 464 14 496 14 c 0,30,31
 521 14 521 14 538.5 41.5 c 128,-1,32
 556 69 556 69 572 134 c 0,33,34
 575 150 575 150 578.5 154.5 c 128,-1,35
 582 159 582 159 590 159 c 0,36,37
 603 159 603 159 603 146 c 0,38,39
 603 143 603 143 599 126.5 c 128,-1,40
 595 110 595 110 587 85 c 128,-1,41
 579 60 579 60 570 45 c 0,42,43
 540 -11 540 -11 493 -11 c 0,44,45
 462 -11 462 -11 434 7.5 c 128,-1,46
 406 26 406 26 397 62 c 1,47,48
 336 -11 336 -11 260 -11 c 0,49,50
 259 -11 259 -11 258 -11 c 0,51,52
 195 -11 195 -11 157 19 c 1,53,-1
 108 -175 l 1,54,55
 99 -221 99 -221 63 -221 c 0,56,57
 49 -221 49 -221 40.5 -213 c 128,-1,58
 32 -205 32 -205 32 -191 c 0,59,60
 32 -183 32 -183 36 -169 c 2,61,-1
 182 413 l 1,62,63
 190 453 190 453 225 453 c 0,64,65
 238 453 238 453 247.5 444 c 128,-1,66
 257 435 257 435 257 423 c 0,67,68
 257 417 257 417 243 366 c 1,0,-1
EndSplineSet
Validated: 3073
EndChar

StartChar: nu
Encoding: 957 957 88
Width: 570
Flags: W
HStem: 0 21G<64 144.5> 410.5 31.5<76.1251 98.6888> 433 20G<212 225.5 502 524.5>
VStem: 147 86<369.257 445.5>
LayerCount: 2
Fore
SplineSet
229 418 m 2,0,-1
 133 37 l 1,1,2
 244 73 244 73 337.5 168.5 c 128,-1,3
 431 264 431 264 474 411 c 0,4,5
 486 453 486 453 518 453 c 0,6,7
 531 453 531 453 540.5 444 c 128,-1,8
 550 435 550 435 550 423 c 0,9,10
 550 417 550 417 545 398 c 128,-1,11
 540 379 540 379 524 342 c 128,-1,12
 508 305 508 305 486 270 c 0,13,14
 418 165 418 165 310 92 c 128,-1,15
 202 19 202 19 87 0 c 1,16,-1
 73 0 l 2,17,18
 55 0 55 0 54 13 c 1,19,-1
 63 53 l 1,20,-1
 104 215 l 2,21,22
 127 303 127 303 130 318 c 0,23,24
 147 388 147 388 147 393 c 0,25,26
 147 399 147 399 145.5 401.5 c 128,-1,27
 144 404 144 404 133 407 c 128,-1,28
 122 410 122 410 99 410 c 0,29,30
 89 410 89 410 84.5 410.5 c 128,-1,31
 80 411 80 411 76 414 c 128,-1,32
 72 417 72 417 72 423 c 0,33,34
 72 439 72 439 93 442 c 1,35,36
 206 452 206 452 218 453 c 0,37,38
 233 453 233 453 233 438 c 0,39,40
 233 432 233 432 229 418 c 2,0,-1
EndSplineSet
Validated: 19457
EndChar

StartChar: xi
Encoding: 958 958 89
Width: 485
Flags: W
HStem: -210 26<231.062 323.609> 292 25<253.482 360.895> 330 25<254.045 360.774> 568 26<332.499 430.202> 606 26<332.534 431>
VStem: 24 56<79.8633 186.844> 105 85<358.858 503.664> 281 28<627.281 712.418> 340 60<-163.576 -97.1642> 361 34<318.864 328.89> 431 34<596.895 603.847>
LayerCount: 2
Fore
SplineSet
204 305 m 1,0,1
 145 273 145 273 112.5 222.5 c 128,-1,2
 80 172 80 172 80 135 c 0,3,4
 80 113 80 113 88 97.5 c 128,-1,5
 96 82 96 82 117.5 68.5 c 128,-1,6
 139 55 139 55 155.5 48 c 128,-1,7
 172 41 172 41 210 27 c 0,8,9
 219 23 219 23 255.5 9.5 c 128,-1,10
 292 -4 292 -4 323.5 -16.5 c 128,-1,11
 355 -29 355 -29 358 -30 c 0,12,13
 400 -55 400 -55 400 -99 c 0,14,15
 400 -138 400 -138 369.5 -174 c 128,-1,16
 339 -210 339 -210 292 -210 c 0,17,18
 253 -210 253 -210 214 -191.5 c 128,-1,19
 175 -173 175 -173 175 -161 c 0,20,21
 175 -156 175 -156 178.5 -152 c 128,-1,22
 182 -148 182 -148 187.5 -148 c 128,-1,23
 193 -148 193 -148 203 -156 c 0,24,25
 245 -184 245 -184 289 -184 c 0,26,27
 291 -184 291 -184 292 -184 c 0,28,29
 314 -184 314 -184 327 -167.5 c 128,-1,30
 340 -151 340 -151 340 -132 c 0,31,32
 340 -119 340 -119 333.5 -110 c 128,-1,33
 327 -101 327 -101 320.5 -98 c 128,-1,34
 314 -95 314 -95 301 -90 c 0,35,36
 282 -82 282 -82 254 -73 c 1,37,38
 218 -59 218 -59 144 -32 c 0,39,40
 124 -24 124 -24 111 -17 c 128,-1,41
 98 -10 98 -10 74 7 c 128,-1,42
 50 24 50 24 37 49.5 c 128,-1,43
 24 75 24 75 24 106 c 0,44,45
 24 121 24 121 30 143.5 c 128,-1,46
 36 166 36 166 50.5 196.5 c 128,-1,47
 65 227 65 227 96.5 261 c 128,-1,48
 128 295 128 295 171 321 c 1,49,50
 105 359 105 359 105 429 c 0,51,52
 105 485 105 485 150 540 c 128,-1,53
 195 595 195 595 287 621 c 1,54,55
 281 637 281 637 281 660 c 0,56,57
 281 713 281 713 300 714 c 0,58,59
 314 714 314 714 314 700 c 0,60,61
 314 699 314 699 311.5 686.5 c 128,-1,62
 309 674 309 674 309 659 c 0,63,64
 309 637 309 637 313 627 c 1,65,66
 341 632 341 632 377 632 c 0,67,68
 397 632 397 632 409.5 631.5 c 128,-1,69
 422 631 422 631 436.5 628.5 c 128,-1,70
 451 626 451 626 458 619 c 128,-1,71
 465 612 465 612 465 602 c 0,72,73
 465 568 465 568 371 568 c 0,74,75
 324 568 324 568 303 591 c 1,76,77
 257 569 257 569 223.5 521.5 c 128,-1,78
 190 474 190 474 190 422 c 0,79,80
 190 371 190 371 221 342 c 1,81,82
 260 355 260 355 309 355 c 0,83,84
 352 355 352 355 373.5 349.5 c 128,-1,85
 395 344 395 344 395 326 c 0,86,87
 395 292 395 292 298 292 c 0,88,89
 244 292 244 292 204 305 c 1,0,1
431 600 m 1,90,-1
 431 601 l 1,91,92
 407 606 407 606 379 606 c 0,93,94
 349 606 349 606 332 601 c 1,95,96
 343 594 343 594 372 594 c 0,97,98
 409 594 409 594 431 600 c 1,90,-1
253 324 m 1,99,100
 270 318 270 318 301 317 c 0,101,102
 361 317 361 317 361 325 c 0,103,104
 361 330 361 330 308 330 c 0,105,106
 277 330 277 330 253 324 c 1,99,100
EndSplineSet
Validated: 3073
EndChar

StartChar: omicron
Encoding: 959 959 90
Width: 514
Flags: W
HStem: -11 25<170.169 266.519> 427 26<269.295 368.616>
VStem: 44 79<71.8357 250.827> 415 79<194.693 370.516>
LayerCount: 2
Fore
SplineSet
494 278 m 0,0,1
 494 168 494 168 406.5 78.5 c 128,-1,2
 319 -11 319 -11 214 -11 c 0,3,4
 141 -11 141 -11 92.5 37 c 128,-1,5
 44 85 44 85 44 164 c 0,6,7
 44 274 44 274 131 363.5 c 128,-1,8
 218 453 218 453 324 453 c 0,9,10
 399 453 399 453 446.5 404 c 128,-1,11
 494 355 494 355 494 278 c 0,0,1
215 14 m 0,12,13
 254 14 254 14 293.5 41.5 c 128,-1,14
 333 69 333 69 357 112 c 0,15,16
 384 157 384 157 399.5 218.5 c 128,-1,17
 415 280 415 280 415 315 c 0,18,19
 415 371 415 371 388 399 c 128,-1,20
 361 427 361 427 322.5 427 c 128,-1,21
 284 427 284 427 245.5 400.5 c 128,-1,22
 207 374 207 374 183 337 c 0,23,24
 155 292 155 292 139 228.5 c 128,-1,25
 123 165 123 165 123 126 c 0,26,27
 123 68 123 68 150.5 41 c 128,-1,28
 178 14 178 14 215 14 c 0,12,13
EndSplineSet
Validated: 19457
EndChar

StartChar: pi
Encoding: 960 960 91
Width: 607
Flags: W
HStem: -11 21G<134.5 155 395.5 411.5> 378 63<124.9 250 280 396 422.016 589.781>
VStem: 111 69<-1.71826 72.2969> 354 55<76.8022 287.912> 364 83<-0.167114 96.6357>
LayerCount: 2
Fore
SplineSet
280 378 m 1,0,-1
 210 109 l 2,1,2
 192 37 192 37 180 13 c 128,-1,3
 168 -11 168 -11 142 -11 c 0,4,5
 127 -11 127 -11 119 -2 c 128,-1,6
 111 7 111 7 111 18 c 0,7,8
 111 27 111 27 128 62 c 1,9,10
 210 238 210 238 250 378 c 1,11,-1
 191 378 l 2,12,13
 108 378 108 378 58 302 c 0,14,15
 51 290 51 290 42 290 c 0,16,17
 28 290 28 290 28 301 c 0,18,19
 28 308 28 308 50.5 341 c 128,-1,20
 73 374 73 374 92 393 c 0,21,22
 140 441 140 441 201 441 c 2,23,-1
 555 441 l 2,24,25
 568 441 568 441 575.5 440 c 128,-1,26
 583 439 583 439 590 433 c 128,-1,27
 597 427 597 427 597 415 c 0,28,29
 597 378 597 378 546 378 c 2,30,-1
 426 378 l 1,31,32
 409 296 409 296 409 225 c 0,33,34
 409 126 409 126 440 54 c 0,35,36
 447 39 447 39 447 31 c 0,37,38
 447 14 447 14 433.5 1.5 c 128,-1,39
 420 -11 420 -11 403 -11 c 0,40,41
 388 -11 388 -11 380 -0.5 c 128,-1,42
 372 10 372 10 364 40 c 0,43,44
 355 77 355 77 354 122 c 0,45,46
 354 202 354 202 396 378 c 1,47,-1
 280 378 l 1,0,-1
EndSplineSet
Validated: 19457
EndChar

StartChar: rho
Encoding: 961 961 92
Width: 548
Flags: W
HStem: -11 25<225.495 313.964> 427 26<333.363 417.946>
VStem: 32 70<-212.749 -113.594> 452 76<200.961 378.128>
LayerCount: 2
Fore
SplineSet
36 -169 m 2,0,-1
 135 225 l 2,1,2
 160 321 160 321 231.5 387 c 128,-1,3
 303 453 303 453 379 453 c 0,4,5
 445 453 445 453 486.5 405.5 c 128,-1,6
 528 358 528 358 528 284 c 0,7,8
 528 173 528 173 446.5 81 c 128,-1,9
 365 -11 365 -11 270 -11 c 0,10,11
 199 -11 199 -11 167 54 c 1,12,13
 159 26 159 26 145 -26 c 0,14,15
 143 -33 143 -33 132.5 -76 c 128,-1,16
 122 -119 122 -119 112.5 -156.5 c 128,-1,17
 103 -194 103 -194 102 -196 c 0,18,19
 89 -221 89 -221 65 -221 c 0,20,21
 64 -221 64 -221 63 -221 c 0,22,23
 49 -221 49 -221 40.5 -213 c 128,-1,24
 32 -205 32 -205 32 -191 c 0,25,26
 32 -183 32 -183 36 -169 c 2,0,-1
269 14 m 0,27,28
 302 14 302 14 334.5 39.5 c 128,-1,29
 367 65 367 65 387 98 c 0,30,31
 417 147 417 147 434.5 219.5 c 128,-1,32
 452 292 452 292 452 327 c 0,33,34
 452 371 452 371 432.5 399 c 128,-1,35
 413 427 413 427 378 427 c 0,36,37
 365 427 365 427 348 421 c 128,-1,38
 331 415 331 415 303.5 397 c 128,-1,39
 276 379 276 379 250.5 334 c 128,-1,40
 225 289 225 289 208 222 c 1,41,42
 178 119 178 119 178 104 c 0,43,44
 178 99 178 99 182 86.5 c 128,-1,45
 186 74 186 74 195.5 57 c 128,-1,46
 205 40 205 40 224 27 c 128,-1,47
 243 14 243 14 269 14 c 0,27,28
EndSplineSet
Validated: 3073
EndChar

StartChar: sigmafinal
Encoding: 962 962 93
Width: 439
Flags: W
HStem: -111 37<176.584 238.829> -111 26<185.235 269.26> 401 43.5<349.781 428.852> 427 26<235.171 376.438>
VStem: 34 56<189.854 305.262> 286 60<-65.0908 7.06116>
LayerCount: 2
Fore
SplineSet
346 2 m 0,0,1
 346 -41 346 -41 315 -76 c 128,-1,2
 284 -111 284 -111 240 -111 c 0,3,4
 222 -111 222 -111 198 -104 c 128,-1,5
 174 -97 174 -97 174 -86 c 0,6,7
 174 -74 174 -74 187 -74 c 0,8,9
 190 -74 190 -74 199 -77 c 0,10,11
 218 -85 218 -85 239.5 -85 c 128,-1,12
 261 -85 261 -85 273.5 -67.5 c 128,-1,13
 286 -50 286 -50 286 -33 c 0,14,15
 286 -13 286 -13 275 -2 c 128,-1,16
 264 9 264 9 237 24 c 2,17,-1
 137 77 l 2,18,19
 118 88 118 88 106 95.5 c 128,-1,20
 94 103 94 103 74 121 c 128,-1,21
 54 139 54 139 44 164 c 128,-1,22
 34 189 34 189 34 220 c 0,23,24
 34 309 34 309 119.5 381 c 128,-1,25
 205 453 205 453 322 453 c 0,26,27
 359 453 359 453 394 444.5 c 128,-1,28
 429 436 429 436 429 421 c 0,29,30
 429 414 429 414 424 407.5 c 128,-1,31
 419 401 419 401 411 401 c 0,32,33
 409 401 409 401 399 404 c 1,34,35
 353 427 353 427 315 427 c 0,36,37
 228 427 228 427 159 374 c 128,-1,38
 90 321 90 321 90 253 c 0,39,40
 90 192 90 192 151 158 c 1,41,-1
 287 85 l 1,42,43
 346 55 346 55 346 2 c 0,0,1
EndSplineSet
Validated: 19457
EndChar

StartChar: sigma
Encoding: 963 963 94
Width: 606
Flags: W
HStem: -11 25<155.447 253.759> 378 63<214.57 365.152 432 588.781>
VStem: 40 68<64.2158 239.148> 393 70<166.051 350.387>
LayerCount: 2
Fore
SplineSet
545 378 m 2,0,-1
 432 378 l 1,1,2
 463 327 463 327 463 268 c 0,3,4
 463 155 463 155 380 72 c 128,-1,5
 297 -11 297 -11 200 -11 c 0,6,7
 132 -11 132 -11 86 33.5 c 128,-1,8
 40 78 40 78 40 153 c 0,9,10
 40 218 40 218 75.5 284 c 128,-1,11
 111 350 111 350 175.5 395.5 c 128,-1,12
 240 441 240 441 313 441 c 2,13,-1
 554 441 l 2,14,15
 567 441 567 441 574.5 440 c 128,-1,16
 582 439 582 439 589 433 c 128,-1,17
 596 427 596 427 596 415 c 0,18,19
 596 378 596 378 545 378 c 2,0,-1
201 14 m 0,20,21
 236 14 236 14 272 36 c 128,-1,22
 308 58 308 58 334 95 c 0,23,24
 365 138 365 138 379 193.5 c 128,-1,25
 393 249 393 249 393 280 c 0,26,27
 393 332 393 332 366 355 c 128,-1,28
 339 378 339 378 296 378 c 0,29,30
 244 378 244 378 204.5 349.5 c 128,-1,31
 165 321 165 321 145.5 277 c 128,-1,32
 126 233 126 233 117 194.5 c 128,-1,33
 108 156 108 156 108 125 c 0,34,35
 108 66 108 66 136.5 40 c 128,-1,36
 165 14 165 14 201 14 c 0,20,21
EndSplineSet
Validated: 19457
EndChar

StartChar: tau
Encoding: 964 964 95
Width: 548
Flags: W
HStem: -12 21G<184 217.5> 378 63<124.9 278 310 536.144>
VStem: 168 76<-6.25098 69.5777>
LayerCount: 2
Fore
SplineSet
310 378 m 1,0,-1
 244 32 l 2,1,2
 235 -12 235 -12 200 -12 c 0,3,4
 168 -12 168 -12 168 16 c 0,5,6
 168 23 168 23 173 39 c 2,7,-1
 278 378 l 1,8,-1
 191 378 l 2,9,10
 108 378 108 378 58 302 c 0,11,12
 51 290 51 290 42 290 c 0,13,14
 28 290 28 290 28 301 c 0,15,16
 28 308 28 308 50.5 341 c 128,-1,17
 73 374 73 374 92 393 c 0,18,19
 140 441 140 441 201 441 c 2,20,-1
 497 441 l 2,21,22
 510 441 510 441 517 440 c 128,-1,23
 524 439 524 439 531.5 433 c 128,-1,24
 539 427 539 427 539 415 c 0,25,26
 539 378 539 378 487 378 c 2,27,-1
 310 378 l 1,0,-1
EndSplineSet
Validated: 19457
EndChar

StartChar: upsilon
Encoding: 965 965 96
Width: 569
Flags: W
HStem: -11 25<232.082 344.182> 427 26<128.474 186.218>
VStem: 118 70<48.6185 217.875> 190 67<308.743 425.597> 505 46<249.082 394.5>
LayerCount: 2
Fore
SplineSet
551 378 m 0,0,1
 551 336 551 336 531 257 c 128,-1,2
 511 178 511 178 472 116 c 0,3,4
 391 -11 391 -11 288 -11 c 0,5,6
 211 -11 211 -11 167 22 c 1,7,8
 118 57 118 57 118 127 c 0,9,10
 118 145 118 145 120 159 c 128,-1,11
 122 173 122 173 136 216 c 128,-1,12
 150 259 150 259 177 333 c 0,13,14
 190 369 190 369 190 393 c 0,15,16
 190 427 190 427 166 427 c 0,17,18
 134 427 134 427 105.5 392.5 c 128,-1,19
 77 358 77 358 60 302 c 1,20,21
 50 284 50 284 44 283 c 1,22,23
 30 283 30 283 30 295 c 0,24,25
 30 302 30 302 38 325 c 128,-1,26
 46 348 46 348 62 378 c 128,-1,27
 78 408 78 408 106.5 430.5 c 128,-1,28
 135 453 135 453 169 453 c 0,29,30
 207 453 207 453 232 428.5 c 128,-1,31
 257 404 257 404 257 367 c 0,32,33
 257 349 257 349 243 309 c 0,34,35
 189 171 189 171 188 115 c 0,36,37
 188 101 188 101 190.5 89.5 c 128,-1,38
 193 78 193 78 201 58 c 128,-1,39
 209 38 209 38 232 26 c 128,-1,40
 255 14 255 14 291 14 c 0,41,42
 349 14 349 14 401.5 69.5 c 128,-1,43
 454 125 454 125 479.5 187.5 c 128,-1,44
 505 250 505 250 505 288 c 0,45,46
 505 339 505 339 468 373 c 0,47,48
 452 387 452 387 452 402 c 0,49,50
 452 419 452 419 468.5 436.5 c 128,-1,51
 485 454 485 454 504 454 c 0,52,53
 512 454 512 454 520.5 450.5 c 128,-1,54
 529 447 529 447 540 429 c 128,-1,55
 551 411 551 411 551 378 c 0,0,1
EndSplineSet
Validated: 19457
EndChar

StartChar: varphi
Encoding: 966 966 97
Width: 687
Flags: W
HStem: -11 63<293.227 431.073> 389 64<450.147 583.33> 421 20G<154.5 169.5>
VStem: 52 30<149.608 280.624> 174 75<-214.749 -119.371> 617 32<215.802 346.597>
LayerCount: 2
Fore
SplineSet
281 -9 m 1,0,1
 257 -149 257 -149 249 -185 c 0,2,3
 241 -223 241 -223 206 -223 c 0,4,5
 194 -223 194 -223 184 -215 c 128,-1,6
 174 -207 174 -207 174 -194 c 0,7,8
 174 -187 174 -187 233 -2 c 1,9,10
 157 15 157 15 104.5 66.5 c 128,-1,11
 52 118 52 118 52 196 c 0,12,13
 52 241 52 241 73 300 c 128,-1,14
 94 359 94 359 120 400 c 128,-1,15
 146 441 146 441 163 441 c 0,16,17
 176 441 176 441 176 430 c 0,18,19
 176 425 176 425 167 416 c 0,20,21
 127 370 127 370 104.5 304.5 c 128,-1,22
 82 239 82 239 82 207 c 0,23,24
 82 151 82 151 127 112 c 128,-1,25
 172 73 172 73 253 58 c 1,26,27
 267 106 267 106 275.5 132 c 128,-1,28
 284 158 284 158 300.5 206.5 c 128,-1,29
 317 255 317 255 331.5 282.5 c 128,-1,30
 346 310 346 310 368 347 c 128,-1,31
 390 384 390 384 412.5 404 c 128,-1,32
 435 424 435 424 465 438.5 c 128,-1,33
 495 453 495 453 527 453 c 0,34,35
 584 453 584 453 616.5 413.5 c 128,-1,36
 649 374 649 374 649 308 c 0,37,38
 649 186 649 186 547 87.5 c 128,-1,39
 445 -11 445 -11 315 -11 c 0,40,41
 299 -11 299 -11 281 -9 c 1,0,1
293 53 m 1,42,43
 303 52 303 52 325 52 c 0,44,45
 442 52 442 52 529.5 125.5 c 128,-1,46
 617 199 617 199 617 287 c 0,47,48
 617 334 617 334 589.5 361.5 c 128,-1,49
 562 389 562 389 518 389 c 0,50,51
 442 389 442 389 380 308 c 1,52,53
 329 243 329 243 304 117 c 1,54,55
 299 84 299 84 293 53 c 1,42,43
EndSplineSet
Validated: 19457
EndChar

StartChar: chi
Encoding: 967 967 98
Width: 655
Flags: W
HStem: -210 26<491.492 547.125> -199 21G<40 49> 421 20G<606 617> 427 26<109.635 164.616>
VStem: 569 28<-163.537 -129.024>
LayerCount: 2
Fore
SplineSet
612 410 m 2,0,-1
 362 138 l 1,1,2
 462 -184 462 -184 512 -184 c 0,3,4
 512 -184 512 -184 513 -184 c 0,5,6
 526 -184 526 -184 543 -174 c 128,-1,7
 560 -164 560 -164 569 -139 c 1,8,9
 571 -129 571 -129 584 -129 c 128,-1,10
 597 -129 597 -129 597 -140 c 0,11,12
 597 -157 597 -157 573 -183.5 c 128,-1,13
 549 -210 549 -210 506 -210 c 0,14,15
 473 -210 473 -210 448.5 -202.5 c 128,-1,16
 424 -195 424 -195 409 -179.5 c 128,-1,17
 394 -164 394 -164 388 -154 c 128,-1,18
 382 -144 382 -144 375 -128 c 0,19,20
 336 -43 336 -43 303 73 c 1,21,-1
 247 13 l 1,22,-1
 75 -174 l 1,23,24
 63 -189 63 -189 57 -195 c 1,25,26
 51 -199 51 -199 47 -199 c 0,27,28
 33 -199 33 -199 33 -185 c 0,29,30
 33 -179 33 -179 44 -167 c 2,31,-1
 284 93 l 2,32,33
 292 102 292 102 292 105 c 0,34,35
 292 107 292 107 282.5 137.5 c 128,-1,36
 273 168 273 168 258 215 c 0,37,38
 247 245 247 245 227 296 c 0,39,40
 176 427 176 427 142 427 c 0,41,42
 127 427 127 427 110.5 415 c 128,-1,43
 94 403 94 403 88 385 c 0,44,45
 83 372 83 372 73 372 c 0,46,47
 59 372 59 372 58 384 c 0,48,49
 58 402 58 402 83.5 427.5 c 128,-1,50
 109 453 109 453 150 453 c 0,51,52
 244 453 244 453 278 378 c 0,53,54
 304 322 304 322 354 170 c 1,55,-1
 592 429 l 2,56,57
 603 441 603 441 609 441 c 0,58,59
 625 441 625 441 623 427 c 0,60,61
 622 421 622 421 612 410 c 2,0,-1
EndSplineSet
Validated: 3073
EndChar

StartChar: psi
Encoding: 968 968 99
Width: 686
Flags: W
HStem: -210 21G<263.5 275> -11 25<266.49 303 339 412.359> 427 26<128.474 186.218> 691 20G<491.5 502.5>
VStem: 119 71<62.2097 222.921> 190 67<308.697 425.597> 622 46<247.933 394.5>
LayerCount: 2
Fore
SplineSet
509 699 m 1,0,-1
 339 14 l 1,1,2
 440 14 440 14 524 98 c 0,3,4
 571 145 571 145 596.5 198 c 128,-1,5
 622 251 622 251 622 288 c 0,6,7
 622 339 622 339 585 373 c 0,8,9
 569 387 569 387 568 402 c 0,10,11
 568 419 568 419 585 436.5 c 128,-1,12
 602 454 602 454 621 454 c 0,13,14
 629 454 629 454 637.5 450.5 c 128,-1,15
 646 447 646 447 657 429 c 128,-1,16
 668 411 668 411 668 378 c 0,17,18
 668 352 668 352 663 323 c 0,19,20
 649 249 649 249 631 205 c 128,-1,21
 613 161 613 161 578 117 c 0,22,23
 476 -11 476 -11 332 -11 c 1,24,25
 329 -22 329 -22 289 -184 c 0,26,27
 285 -201 285 -201 282.5 -205.5 c 128,-1,28
 280 -210 280 -210 270 -210 c 0,29,30
 257 -210 257 -210 257 -199 c 1,31,-1
 303 -9 l 1,32,33
 208 -3 208 -3 163.5 37 c 128,-1,34
 119 77 119 77 119 137 c 0,35,36
 119 182 119 182 175 326 c 1,37,38
 190 368 190 368 190 393 c 0,39,40
 190 427 190 427 166 427 c 0,41,42
 134 427 134 427 105.5 392.5 c 128,-1,43
 77 358 77 358 60 302 c 1,44,45
 50 284 50 284 44 283 c 1,46,47
 30 283 30 283 30 295 c 0,48,49
 30 302 30 302 38 325 c 128,-1,50
 46 348 46 348 62 378 c 128,-1,51
 78 408 78 408 106.5 430.5 c 128,-1,52
 135 453 135 453 169 453 c 0,53,54
 207 453 207 453 232 428.5 c 128,-1,55
 257 404 257 404 257 367 c 0,56,57
 257 349 257 349 243 309 c 0,58,59
 191 174 191 174 190 130 c 0,60,61
 190 32 190 32 310 16 c 1,62,-1
 478 689 l 2,63,64
 481 702 481 702 484 706.5 c 128,-1,65
 487 711 487 711 496 711 c 0,66,67
 509 710 509 710 509 699 c 1,0,-1
EndSplineSet
Validated: 19457
EndChar

StartChar: omega
Encoding: 969 969 100
Width: 654
Flags: W
HStem: -11 77<81.3086 205.149 352.731 479.06> 433 20G<580 602.5>
VStem: 14 37<104.736 261.968> 280 74<189.836 278.521> 280 38<131.812 203.04> 308 46<214.878 298.947> 589 48<250.218 393>
LayerCount: 2
Fore
SplineSet
637 379 m 0,0,1
 637 346 637 346 617 260 c 1,2,3
 598 180 598 180 575 134 c 0,4,5
 505 -11 505 -11 406 -11 c 0,6,7
 377 -11 377 -11 355 -2 c 128,-1,8
 333 7 333 7 319.5 24.5 c 128,-1,9
 306 42 306 42 299 57 c 128,-1,10
 292 72 292 72 286 91 c 1,11,12
 259 50 259 50 217.5 19.5 c 128,-1,13
 176 -11 176 -11 132 -11 c 0,14,15
 70 -11 70 -11 42 31.5 c 128,-1,16
 14 74 14 74 14 140 c 0,17,18
 14 212 14 212 41.5 291.5 c 128,-1,19
 69 371 69 371 112 431 c 1,20,21
 122 447 122 447 135 447 c 0,22,23
 142 447 142 447 148 442 c 128,-1,24
 154 437 154 437 154 430 c 0,25,26
 154 421 154 421 147 413 c 0,27,28
 51 285 51 285 51 180 c 0,29,30
 51 131 51 131 73 98.5 c 128,-1,31
 95 66 95 66 141 66 c 0,32,33
 216 66 216 66 280 155 c 1,34,35
 280 182 280 182 287.5 226.5 c 128,-1,36
 295 271 295 271 308 288 c 0,37,38
 317 299 317 299 332 299 c 0,39,40
 354 299 354 299 354 275 c 0,41,42
 354 274 354 274 354 273 c 0,43,44
 354 251 354 251 336 201.5 c 128,-1,45
 318 152 318 152 318 148 c 0,46,47
 326 112 326 112 352.5 88.5 c 128,-1,48
 379 65 379 65 419 65 c 0,49,50
 467 65 467 65 508.5 108 c 128,-1,51
 550 151 550 151 569.5 200.5 c 128,-1,52
 589 250 589 250 589 285 c 0,53,54
 589 337 589 337 551 375 c 0,55,56
 538 388 538 388 538 401 c 0,57,58
 538 420 538 420 554 436.5 c 128,-1,59
 570 453 570 453 590 453 c 0,60,61
 615 453 615 453 626 430 c 128,-1,62
 637 407 637 407 637 379 c 0,0,1
EndSplineSet
Validated: 3073
EndChar

StartChar: vartheta
Encoding: 977 977 101
Width: 623
Flags: W
HStem: -11 25<212.016 297.404> 427 26<107.41 161.331> 696 26<392.238 467.528>
VStem: 30 25<283.047 326.833> 114 69<32.9794 207.37> 169 70<269.711 419.646> 284 28<481.511 600.028> 493 65<415.203 648.02>
LayerCount: 2
Fore
SplineSet
228 302 m 2,0,-1
 214 243 l 1,1,2
 183 120 183 120 183 94 c 0,3,4
 183 14 183 14 261 14 c 0,5,6
 319 14 319 14 384 140 c 0,7,8
 421 212 421 212 458 361 c 1,9,10
 427 370 427 370 399.5 383 c 128,-1,11
 372 396 372 396 344 416.5 c 128,-1,12
 316 437 316 437 300 467.5 c 128,-1,13
 284 498 284 498 284 535 c 0,14,15
 284 601 284 601 331 661.5 c 128,-1,16
 378 722 378 722 439 722 c 0,17,18
 483 722 483 722 511 687.5 c 128,-1,19
 539 653 539 653 548.5 609 c 128,-1,20
 558 565 558 565 558 514 c 0,21,22
 558 448 558 448 540 366 c 1,23,24
 545 365 545 365 554 362.5 c 128,-1,25
 563 360 563 360 569 359 c 0,26,27
 592 355 592 355 592 346 c 0,28,29
 592 332 592 332 580 332 c 0,30,31
 574 332 574 332 532 341 c 1,32,33
 509 255 509 255 470 176.5 c 128,-1,34
 431 98 431 98 373 43.5 c 128,-1,35
 315 -11 315 -11 257 -11 c 0,36,37
 114 -11 114 -11 114 108 c 0,38,39
 114 136 114 136 124 178 c 0,40,41
 130 203 130 203 143 257 c 2,42,-1
 159 315 l 2,43,44
 169 357 169 357 169 379 c 0,45,46
 169 427 169 427 138 427 c 0,47,48
 112 427 112 427 95 399 c 128,-1,49
 78 371 78 371 62 308 c 0,50,51
 58 292 58 292 55 287.5 c 128,-1,52
 52 283 52 283 44 283 c 0,53,54
 30 283 30 283 30 295 c 0,55,56
 30 298 30 298 34 314 c 128,-1,57
 38 330 38 330 45.5 353.5 c 128,-1,58
 53 377 53 377 61 393 c 0,59,60
 92 452 92 452 140 453 c 0,61,62
 181 453 181 453 210 426.5 c 128,-1,63
 239 400 239 400 239 357 c 0,64,65
 238 348 238 348 228 302 c 2,0,-1
464 386 m 1,66,67
 493 504 493 504 493 572 c 0,68,69
 493 618 493 618 484 651 c 0,70,71
 472 696 472 696 437 696 c 0,72,73
 389 696 389 696 350.5 643.5 c 128,-1,74
 312 591 312 591 312 536 c 0,75,76
 312 438 312 438 464 386 c 1,66,67
EndSplineSet
Validated: 19457
EndChar

StartChar: Upsilon
Encoding: 978 978 102
Width: 745
Flags: W
HStem: 0 32<69.1494 185.878 305.676 414.875> 646 76<129.63 256.969 541.993 677.19>
VStem: 302 56<467.314 596.41> 700 35<547.977 620.814>
LayerCount: 2
Fore
SplineSet
214 77 m 2,0,-1
 264 275 l 2,1,2
 290 377 290 377 296 411 c 128,-1,3
 302 445 302 445 302 488 c 0,4,5
 302 646 302 646 187 646 c 0,6,7
 170 646 170 646 149 641 c 128,-1,8
 128 636 128 636 100.5 615.5 c 128,-1,9
 73 595 73 595 61 562 c 1,10,11
 57 547 57 547 42 547 c 0,12,13
 30 547 30 547 30 557 c 0,14,15
 30 569 30 569 41.5 595 c 128,-1,16
 53 621 53 621 74 650 c 128,-1,17
 95 679 95 679 131 700.5 c 128,-1,18
 167 722 167 722 208 722 c 128,-1,19
 249 722 249 722 278.5 704.5 c 128,-1,20
 308 687 308 687 323 664.5 c 128,-1,21
 338 642 338 642 346.5 609.5 c 128,-1,22
 355 577 355 577 356.5 557 c 128,-1,23
 358 537 358 537 358 514 c 0,24,25
 358 485 358 485 356 467 c 1,26,27
 406 585 406 585 477.5 653.5 c 128,-1,28
 549 722 549 722 632 722 c 0,29,30
 681 722 681 722 708 690 c 128,-1,31
 735 658 735 658 735 606 c 0,32,33
 735 571 735 571 729.5 559 c 128,-1,34
 724 547 724 547 711 547 c 0,35,36
 699 547 699 547 698 557 c 0,37,38
 698 558 698 558 699 565 c 128,-1,39
 700 572 700 572 700 578 c 0,40,41
 700 610 700 610 675 628 c 128,-1,42
 650 646 650 646 614 646 c 0,43,44
 536 646 536 646 472 567.5 c 128,-1,45
 408 489 408 489 372 345 c 0,46,47
 369 332 369 332 351.5 264.5 c 128,-1,48
 334 197 334 197 318.5 135 c 128,-1,49
 303 73 303 73 302 70 c 0,50,51
 300 58 300 58 300 53 c 0,52,53
 300 43 300 43 305.5 39.5 c 128,-1,54
 311 36 311 36 334 34 c 0,55,56
 359 32 359 32 387 32 c 0,57,58
 400 32 400 32 405.5 31.5 c 128,-1,59
 411 31 411 31 415 28 c 128,-1,60
 419 25 419 25 419 18 c 0,61,62
 419 0 419 0 397 0 c 0,63,64
 385 0 385 0 358.5 1 c 128,-1,65
 332 2 332 2 319 2 c 0,66,67
 292 3 292 3 241 3 c 0,68,69
 191 3 191 3 164 2 c 0,70,71
 121 0 121 0 86 0 c 0,72,73
 69 0 69 0 69 13 c 0,74,75
 69 25 69 25 75.5 28.5 c 128,-1,76
 82 32 82 32 97 32 c 0,77,78
 167 33 167 33 186.5 39 c 128,-1,79
 206 45 206 45 214 77 c 2,0,-1
EndSplineSet
Validated: 19457
EndChar

StartChar: phi
Encoding: 981 981 103
Width: 625
Flags: W
HStem: -210 21G<215 226> -12 25<204.208 254 290 349.127> 428 26<304.407 365 400 449.703> 691 20G<442 453>
VStem: 51 70<87.9137 260.883> 532 71<178.591 351.552>
LayerCount: 2
Fore
SplineSet
458 683 m 2,0,-1
 400 454 l 1,1,2
 500 447 500 447 551.5 391.5 c 128,-1,3
 603 336 603 336 603 267 c 0,4,5
 603 166 603 166 508 79.5 c 128,-1,6
 413 -7 413 -7 284 -12 c 1,7,-1
 241 -183 l 2,8,9
 236 -201 236 -201 233 -205.5 c 128,-1,10
 230 -210 230 -210 222 -210 c 0,11,12
 208 -210 208 -210 208 -199 c 0,13,14
 208 -197 208 -197 230 -109 c 0,15,16
 234 -93 234 -93 242 -61 c 128,-1,17
 250 -29 250 -29 254 -12 c 1,18,19
 159 -6 159 -6 105 47 c 128,-1,20
 51 100 51 100 51 175 c 0,21,22
 51 276 51 276 146 362.5 c 128,-1,23
 241 449 241 449 371 454 c 1,24,-1
 430 689 l 2,25,26
 434 704 434 704 436 707.5 c 128,-1,27
 438 711 438 711 446 711 c 0,28,29
 460 711 460 711 461 698 c 0,30,31
 461 695 461 695 458 683 c 2,0,-1
260 13 m 1,32,-1
 365 428 l 1,33,34
 253 418 253 418 187 334 c 128,-1,35
 121 250 121 250 121 155 c 0,36,37
 121 88 121 88 161 52 c 128,-1,38
 201 16 201 16 260 13 c 1,32,-1
393 428 m 1,39,-1
 290 13 l 1,40,41
 395 22 395 22 463.5 103.5 c 128,-1,42
 532 185 532 185 532 287 c 0,43,44
 532 355 532 355 492.5 389.5 c 128,-1,45
 453 424 453 424 393 428 c 1,39,-1
EndSplineSet
Validated: 19457
EndChar

StartChar: varpi
Encoding: 982 982 104
Width: 880
Flags: W
HStem: -11 63<173.924 301.437 503.564 631.818> 378 63<125.341 226 260.128 759.067 782 857.493>
VStem: 121 34<76.6605 219.26> 440.5 34.5<90.2852 155> 463 26<255.965 302.974> 765 29<222.448 376.875>
LayerCount: 2
Fore
SplineSet
201 441 m 2,0,-1
 818 441 l 2,1,2
 831 441 831 441 838 440 c 128,-1,3
 845 439 845 439 852.5 433 c 128,-1,4
 860 427 860 427 860 415 c 0,5,6
 860 390 860 390 837 381 c 0,7,8
 830 378 830 378 782 378 c 1,9,10
 793 342 793 342 794 304 c 0,11,12
 794 262 794 262 776 209 c 128,-1,13
 758 156 758 156 727.5 106 c 128,-1,14
 697 56 697 56 650 22.5 c 128,-1,15
 603 -11 603 -11 551 -11 c 0,16,17
 519 -11 519 -11 497 1.5 c 128,-1,18
 475 14 475 14 464.5 30 c 128,-1,19
 454 46 454 46 447.5 72.5 c 128,-1,20
 441 99 441 99 440.5 114.5 c 128,-1,21
 440 130 440 130 440 155 c 1,22,-1
 439 155 l 1,23,24
 395 75 395 75 335.5 32 c 128,-1,25
 276 -11 276 -11 216 -11 c 0,26,27
 185 -11 185 -11 164.5 2 c 128,-1,28
 144 15 144 15 135.5 36.5 c 128,-1,29
 127 58 127 58 124 75.5 c 128,-1,30
 121 93 121 93 121 112 c 0,31,32
 121 250 121 250 226 378 c 1,33,34
 176 378 176 378 159 375.5 c 128,-1,35
 142 373 142 373 122 361 c 0,36,37
 87 343 87 343 58 303 c 1,38,39
 50 290 50 290 42 290 c 0,40,41
 28 290 28 290 28 301 c 0,42,43
 28 307 28 307 50.5 340.5 c 128,-1,44
 73 374 73 374 92 393 c 0,45,46
 141 441 141 441 201 441 c 2,0,-1
753 378 m 1,47,-1
 282 378 l 2,48,49
 264 378 264 378 260 375 c 0,50,51
 249 365 249 365 227.5 336.5 c 128,-1,52
 206 308 206 308 180.5 251.5 c 128,-1,53
 155 195 155 195 155 145 c 0,54,55
 155 52 155 52 226 52 c 0,56,57
 292 52 292 52 360 112 c 128,-1,58
 428 172 428 172 463 292 c 0,59,60
 466 303 466 303 477 303 c 0,61,62
 491 303 491 303 492 291 c 0,63,64
 492 290 492 290 491 288 c 128,-1,65
 490 286 490 286 489 282 c 0,66,67
 475 219 475 219 475 173 c 0,68,69
 475 52 475 52 561 52 c 0,70,71
 640 52 640 52 702.5 134 c 128,-1,72
 765 216 765 216 765 304 c 0,73,74
 765 342 765 342 753 378 c 1,47,-1
EndSplineSet
Validated: 19457
EndChar

StartChar: varrho
Encoding: 1009 1009 105
Width: 522
Flags: W
HStem: -199 21G<355 371> -179 63<99.0063 347> -11 25<203.743 287.553> 427 26<303.937 390.97>
VStem: 51 34<-97.1741 51.125> 348 32<-198.877 -185 -182 -180> 425 77<200.961 377.272>
LayerCount: 2
Fore
SplineSet
106 95 m 1,0,1
 85 1 85 1 85 -43 c 0,2,3
 85 -45 85 -45 85 -47 c 0,4,5
 85 -67 85 -67 91 -80 c 128,-1,6
 97 -93 97 -93 105.5 -101 c 128,-1,7
 114 -109 114 -109 135.5 -112 c 128,-1,8
 157 -115 157 -115 173 -116 c 0,9,10
 181 -116 181 -116 194.5 -116 c 128,-1,11
 208 -116 208 -116 226 -116 c 0,12,13
 275 -116 275 -116 295.5 -117 c 128,-1,14
 316 -118 316 -118 340.5 -122.5 c 128,-1,15
 365 -127 365 -127 372.5 -137.5 c 128,-1,16
 380 -148 380 -148 380 -168 c 0,17,18
 380 -199 380 -199 362 -199 c 0,19,20
 348 -199 348 -199 348 -185 c 1,21,-1
 347 -182 l 2,22,23
 347 -180 347 -180 346 -180 c 0,24,25
 342 -175 342 -175 302 -175 c 0,26,27
 279 -175 279 -175 249 -177 c 128,-1,28
 219 -179 219 -179 200 -179 c 0,29,30
 112 -179 112 -179 81.5 -152 c 128,-1,31
 51 -125 51 -125 51 -75 c 0,32,33
 51 -20 51 -20 80 110 c 128,-1,34
 109 240 109 240 128 282 c 0,35,36
 162 357 162 357 225 405 c 128,-1,37
 288 453 288 453 352 453 c 0,38,39
 418 453 418 453 460 405.5 c 128,-1,40
 502 358 502 358 502 284 c 0,41,42
 502 173 502 173 420.5 81 c 128,-1,43
 339 -11 339 -11 243 -11 c 0,44,45
 196 -11 196 -11 159 16 c 128,-1,46
 122 43 122 43 106 95 c 1,0,1
243 14 m 0,47,48
 276 14 276 14 308 39.5 c 128,-1,49
 340 65 340 65 360 98 c 0,50,51
 390 147 390 147 407.5 219.5 c 128,-1,52
 425 292 425 292 425 327 c 0,53,54
 425 371 425 371 405.5 399 c 128,-1,55
 386 427 386 427 351 427 c 0,56,57
 317 427 317 427 279.5 399 c 128,-1,58
 242 371 242 371 216 322 c 0,59,60
 193 279 193 279 179 218.5 c 128,-1,61
 165 158 165 158 165 122 c 0,62,63
 165 73 165 73 186.5 43.5 c 128,-1,64
 208 14 208 14 243 14 c 0,47,48
EndSplineSet
Validated: 3073
EndChar

StartChar: epsilon
Encoding: 1013 1013 106
Width: 425
Flags: W
HStem: -11 25<191.769 304.47> 231 32<148 344.359> 410 31<252.114 389.359>
VStem: 50 79<85.3047 229.677>
LayerCount: 2
Fore
SplineSet
315 231 m 2,0,-1
 140 231 l 1,1,2
 129 182 129 182 129 147 c 0,3,4
 129 84 129 84 162 49 c 128,-1,5
 195 14 195 14 244 14 c 0,6,7
 297 14 297 14 357 54 c 0,8,9
 364 59 364 59 369 59 c 0,10,11
 381 59 381 59 381 43 c 0,12,13
 381 36 381 36 361 23 c 128,-1,14
 341 10 341 10 307 -0.5 c 128,-1,15
 273 -11 273 -11 242 -11 c 0,16,17
 162 -11 162 -11 106 41 c 128,-1,18
 50 93 50 93 50 185 c 0,19,20
 50 300 50 300 135 370.5 c 128,-1,21
 220 441 220 441 325 441 c 2,22,-1
 362 441 l 2,23,24
 374 441 374 441 379.5 440.5 c 128,-1,25
 385 440 385 440 389.5 436.5 c 128,-1,26
 394 433 394 433 394 426 c 0,27,28
 394 410 394 410 360 410 c 2,29,-1
 328 410 l 2,30,31
 260 410 260 410 214.5 371.5 c 128,-1,32
 169 333 169 333 148 263 c 1,33,-1
 318 263 l 2,34,35
 329 263 329 263 334.5 262.5 c 128,-1,36
 340 262 340 262 344.5 259 c 128,-1,37
 349 256 349 256 349 249 c 0,38,39
 349 231 349 231 315 231 c 2,0,-1
EndSplineSet
Validated: 19457
EndChar

StartChar: setascender
Encoding: 31 31 107
Width: 158
Flags: W
VStem: 49 61<-262.658 829.233>
LayerCount: 2
Fore
SplineSet
110 806 m 10,0,1
 110 806 110 806 110 -234 c 2,2,3
 110 -241 110 -241 97.5 -253.5 c 128,-1,4
 85 -266 85 -266 82 -266 c 0,5,6
 68 -266 68 -266 58.5 -257 c 128,-1,7
 49 -248 49 -248 49 -240 c 2,8,-1
 49 822 l 1,9,10
 58 838 58 838 73.5 838 c 128,-1,11
 89 838 89 838 99.5 829.5 c 128,-1,12
 110 821 110 821 110 806 c 10,0,1
EndSplineSet
Validated: 19457
EndChar

StartChar: digit0
Encoding: 48 48 108
Width: 523
Flags: W
HStem: -23 23<222.384 307.727> 659 23<381.078 466.373>
VStem: 120 65<42.5264 246.159> 505 63<420.403 616.905>
LayerCount: 2
Fore
SplineSet
568 508 m 0,0,1
 568 447 568 447 543.5 343.5 c 128,-1,2
 519 240 519 240 487 168 c 0,3,4
 442 67 442 67 379.5 22 c 128,-1,5
 317 -23 317 -23 257 -23 c 0,6,7
 224 -23 224 -23 199 -12.5 c 128,-1,8
 174 -2 174 -2 160 16.5 c 128,-1,9
 146 35 146 35 137 52.5 c 128,-1,10
 128 70 128 70 125 93.5 c 128,-1,11
 122 117 122 117 121 127.5 c 128,-1,12
 120 138 120 138 120 152 c 0,13,14
 120 222 120 222 148.5 334.5 c 128,-1,15
 177 447 177 447 214 517 c 0,16,17
 258 601 258 601 315 641.5 c 128,-1,18
 372 682 372 682 431 682 c 0,19,20
 469 682 469 682 496 667 c 128,-1,21
 523 652 523 652 536.5 632.5 c 128,-1,22
 550 613 550 613 557.5 586 c 128,-1,23
 565 559 565 559 566.5 542.5 c 128,-1,24
 568 526 568 526 568 508 c 0,0,1
262 0 m 0,25,26
 300 0 300 0 335.5 30 c 128,-1,27
 371 60 371 60 389 100 c 0,28,29
 422 173 422 173 463.5 339.5 c 128,-1,30
 505 506 505 506 505 563 c 0,31,32
 505 610 505 610 482.5 634.5 c 128,-1,33
 460 659 460 659 426 659 c 0,34,35
 394 659 394 659 359 635.5 c 128,-1,36
 324 612 324 612 298 560 c 0,37,38
 270 503 270 503 227.5 332.5 c 128,-1,39
 185 162 185 162 185 100 c 0,40,41
 185 46 185 46 208 23 c 128,-1,42
 231 0 231 0 262 0 c 0,25,26
EndSplineSet
Validated: 19457
EndChar

StartChar: digit1
Encoding: 49 49 109
Width: 523
Flags: W
HStem: 0 32<120.192 229.974 324.675 423.39> 518 32<244.316 320.977>
LayerCount: 2
Fore
SplineSet
469 656 m 2,0,-1
 323 72 l 2,1,2
 320 60 320 60 319 52 c 0,3,4
 319 42 319 42 324.5 39 c 128,-1,5
 330 36 330 36 348 34 c 0,6,7
 375 32 375 32 392 32 c 2,8,-1
 400 32 l 2,9,10
 410 32 410 32 415 31.5 c 128,-1,11
 420 31 420 31 423.5 28.5 c 128,-1,12
 427 26 427 26 427 19 c 0,13,14
 427 0 427 0 407 0 c 0,15,16
 384 0 384 0 338 1.5 c 128,-1,17
 292 3 292 3 269 3 c 0,18,19
 247 3 247 3 202.5 1.5 c 128,-1,20
 158 0 158 0 135 0 c 0,21,22
 120 0 120 0 120 12 c 0,23,24
 120 25 120 25 126.5 28.5 c 128,-1,25
 133 32 133 32 148 32 c 2,26,-1
 157 32 l 2,27,28
 214 32 214 32 230.5 40 c 128,-1,29
 247 48 247 48 253 75 c 2,30,-1
 374 560 l 1,31,32
 318 518 318 518 260 518 c 0,33,34
 244 518 244 518 244 530 c 0,35,36
 244 546 244 546 260 550 c 1,37,38
 361 560 361 560 440 666 c 0,39,40
 453 682 453 682 460 682 c 0,41,42
 472 682 472 682 472 670 c 0,43,44
 472 665 472 665 469 656 c 2,0,-1
EndSplineSet
Validated: 19457
EndChar

